<svg xmlns="http://www.w3.org/2000/svg" xmlns:xlink="http://www.w3.org/1999/xlink"><defs><style>
    .sprite-symbol-usage {display: none;}
    .sprite-symbol-usage:target {display: inline;}
  </style><symbol fill="none" viewBox="0 0 60 60" id="automatization"><path d="M48.75 60h-37.5C5.036 60 0 54.964 0 48.75v-37.5C0 5.036 5.036 0 11.25 0h37.5C54.964 0 60 5.036 60 11.25v37.5C60 54.964 54.964 60 48.75 60z" fill="#436FFD" /><path d="M18 40.9a1.1 1.1 0 001.1 1.1h21.799A1.1 1.1 0 0042 40.9v-4.8a1.1 1.1 0 00-1.1-1.099H19.1a1.098 1.098 0 00-1.1 1.1v4.8zM40.9 18H19.1a1.1 1.1 0 00-1.1 1.1v4.8a1.1 1.1 0 001.1 1.099h21.799a1.1 1.1 0 001.1-1.1v-4.8A1.098 1.098 0 0040.9 18z" fill="#fff" /><path d="M19.1 33.5h21.799a1.1 1.1 0 001.1-1.1v-4.8a1.1 1.1 0 00-1.1-1.1h-21.8A1.1 1.1 0 0018 27.6v4.8a1.1 1.1 0 001.1 1.1z" fill="#DDE7FF" /></symbol><symbol fill="none" viewBox="0 0 60 60" id="browser-grid"><path d="M48.75 60h-37.5C5.036 60 0 54.964 0 48.75v-37.5C0 5.036 5.036 0 11.25 0h37.5C54.964 0 60 5.036 60 11.25v37.5C60 54.964 54.964 60 48.75 60z" fill="#F3F6FF" /><path d="M43.43 15H16.57A1.57 1.57 0 0015 16.57v21.5c0 .868.703 1.57 1.57 1.57h26.86A1.57 1.57 0 0045 38.07v-21.5A1.57 1.57 0 0043.43 15zm-26.35 3.884a1.321 1.321 0 112.643 0 1.321 1.321 0 01-2.642 0zm5.75 17.499a.496.496 0 01-.495.495H19.79a.496.496 0 01-.495-.495V23.1c0-.274.222-.496.495-.496h2.544c.273 0 .495.222.495.496v13.283zm-.895-16.18a1.32 1.32 0 11.002-2.64 1.32 1.32 0 01-.002 2.64zm2.215-1.32a1.32 1.32 0 112.641 0 1.32 1.32 0 01-2.641 0zm4.638 17.5a.496.496 0 01-.496.495H25.75a.496.496 0 01-.495-.495V23.1c0-.274.221-.496.495-.496h2.543c.274 0 .496.222.496.496v13.283zm5.958 0a.496.496 0 01-.496.495h-2.543a.496.496 0 01-.496-.495V23.1c0-.274.222-.496.496-.496h2.543c.274 0 .496.222.496.496v13.283zm5.957 0a.496.496 0 01-.495.495h-2.544a.496.496 0 01-.495-.495V23.1c0-.274.222-.496.495-.496h2.544c.273 0 .495.222.495.496v13.283z" fill="#436FFD" /><path d="M17 41.32h26v1a2 2 0 01-2 2H19a2 2 0 01-2-2v-1z" fill="#D64933" /></symbol><symbol fill="none" viewBox="0 0 60 60" id="business"><path d="M48.75 60h-37.5C5.036 60 0 54.964 0 48.75v-37.5C0 5.036 5.036 0 11.25 0h37.5C54.964 0 60 5.036 60 11.25v37.5C60 54.964 54.964 60 48.75 60z" fill="#F3F6FF" /><path d="M29.1 16h-4.4c-.4 0-.7.2-.9.6-.1.4-.1.8.2 1l1.3 1.3c-2.3 2.4-7.4 7.5-7.4 7.5-.5.5-.5 1.3 0 1.8.2.2.6.4.9.4.3 0 .6-.1.9-.4l7.5-7.5 1.2 1.3c.2.2.4.3.7.3.1 0 .2 0 .4-.1.3-.2.5-.5.5-.9v-4.4c0-.5-.4-.9-.9-.9z" fill="#D64933" /><path d="M33.8 28.8c0-.9-.7-1.6-1.6-1.6h-4.4c-.9 0-1.6.7-1.6 1.6V41h7.5V28.8h.1zm-10 5c0-.9-.7-1.6-1.6-1.6h-4.4c-.9 0-1.6.7-1.6 1.6V41h7.5v-7.2h.1zm19.9-10c0-.9-.7-1.6-1.6-1.6h-4.4c-.9 0-1.6.7-1.6 1.6V41h7.5V23.8h.1zm.4 19.1H15.9c-.5 0-.9.4-.9.9s.4.9.9.9H44c.5 0 .9-.4.9-.9.1-.5-.3-.9-.8-.9z" fill="#436FFD" /></symbol><symbol fill="none" viewBox="0 0 24 24" id="cross"><path d="M13.214 12l6.152-7.334a.186.186 0 00-.143-.307h-1.87c-.11 0-.216.05-.289.134l-5.074 6.05-5.074-6.05a.375.375 0 00-.288-.134h-1.87a.186.186 0 00-.143.307L10.767 12l-6.152 7.334a.187.187 0 00.143.307h1.87c.11 0 .215-.05.288-.134l5.074-6.05 5.074 6.05c.07.084.176.134.289.134h1.87c.16 0 .246-.185.143-.307L13.214 12z" fill="currentColor" /></symbol><symbol fill="none" viewBox="0 0 60 60" id="documents"><path d="M48.75 60h-37.5C5.036 60 0 54.964 0 48.75v-37.5C0 5.036 5.036 0 11.25 0h37.5C54.964 0 60 5.036 60 11.25v37.5C60 54.964 54.964 60 48.75 60z" fill="#F3F6FF" /><path d="M19.136 46h15.91c1.727 0 3.136-1.429 3.136-3.187V22.31c0-1.76-1.409-3.189-3.137-3.189H19.137c-1.73 0-3.137 1.429-3.137 3.189v20.502C16 44.57 17.407 46 19.136 46zm.476-22.597a.43.43 0 01.423-.433h6.186a.43.43 0 01.423.433v8.992a.428.428 0 01-.423.428h-6.186a.427.427 0 01-.423-.428v-8.992zm.65 12.975h13.561c.413 0 .75.343.75.764a.755.755 0 01-.75.76h-13.56a.755.755 0 01-.751-.76c0-.42.335-.764.75-.764zm0 3.196h13.561c.413 0 .75.342.75.763a.757.757 0 01-.75.763h-13.56a.756.756 0 01-.751-.763c0-.42.335-.763.75-.763z" fill="#436FFD" /><path fill-rule="evenodd" clip-rule="evenodd" d="M19.23 17.073h17.357a4 4 0 014 4v21.835c1.726-.175 3.076-1.528 3.076-3.169V17.188c0-1.759-1.551-3.188-3.455-3.188H22.683c-1.863 0-3.388 1.367-3.453 3.073z" fill="#D64933" /></symbol><symbol fill="none" viewBox="0 0 18 18" id="eye"><path d="M16.563 8.546C14.896 5.036 12.377 3.27 9 3.27c-3.379 0-5.896 1.766-7.563 5.278a1.06 1.06 0 000 .906c1.667 3.51 4.186 5.276 7.563 5.276 3.378 0 5.895-1.766 7.562-5.278a1.06 1.06 0 000-.906zM9 13.465c-2.836 0-4.912-1.438-6.376-4.465C4.089 5.973 6.165 4.535 9 4.535c2.835 0 4.91 1.438 6.375 4.465-1.462 3.027-3.538 4.465-6.375 4.465zm-.07-7.559a3.094 3.094 0 100 6.188 3.094 3.094 0 000-6.188zm0 5.063a1.968 1.968 0 110-3.938 1.968 1.968 0 110 3.938z" fill="currentColor" /></symbol><symbol fill="none" viewBox="0 0 18 18" id="eye-crossed"><path d="M16.562 8.547c-.618-1.302-1.353-2.364-2.206-3.185l-.894.894c.729.697 1.364 1.609 1.914 2.744-1.463 3.027-3.539 4.465-6.376 4.465a6.803 6.803 0 01-2.353-.393l-.97.969c.997.46 2.104.69 3.323.69 3.379 0 5.9-1.76 7.562-5.279a1.06 1.06 0 000-.905zM15.445 2.91l-.75-.75a.141.141 0 00-.199 0l-1.922 1.921c-1.06-.54-2.251-.811-3.574-.811-3.378 0-5.9 1.76-7.562 5.279a1.06 1.06 0 000 .905c.664 1.4 1.464 2.52 2.4 3.364l-1.86 1.86a.14.14 0 000 .199l.75.75a.14.14 0 00.198 0L15.445 3.11a.139.139 0 00.041-.1.14.14 0 00-.041-.1zM2.625 9C4.088 5.972 6.164 4.535 9 4.535c.959 0 1.83.164 2.621.499L10.385 6.27A3.094 3.094 0 006.2 10.456l-1.467 1.467c-.811-.717-1.51-1.687-2.109-2.923zM6.96 9a1.97 1.97 0 012.57-1.876L7.054 9.602A1.968 1.968 0 016.961 9z" fill="currentColor" /><path d="M8.93 10.969a2.13 2.13 0 01-.18-.008l-.93.928a3.095 3.095 0 003.998-3.997l-.928.928a1.952 1.952 0 01-.141.934 1.97 1.97 0 01-1.82 1.215z" fill="currentColor" /></symbol><symbol fill="none" viewBox="0 0 60 60" id="filter"><path d="M48.75 60h-37.5C5.036 60 0 54.964 0 48.75v-37.5C0 5.036 5.036 0 11.25 0h37.5C54.964 0 60 5.036 60 11.25v37.5C60 54.964 54.964 60 48.75 60z" fill="#436FFD" /><path d="M40.25 18h-20.5A1.75 1.75 0 0018 19.75v2.315c0 .489.205.959.567 1.29l8.028 7.353c.258.237.405.573.405.922v9.62a.753.753 0 00.75.75.744.744 0 00.416-.126l4.054-2.703c.489-.325.78-.87.78-1.456V31.63c0-.349.147-.685.407-.922l8.028-7.354c.36-.33.565-.802.565-1.29V19.75A1.75 1.75 0 0040.25 18z" fill="#fff" /></symbol><symbol fill="none" viewBox="0 0 60 60" id="finance"><path d="M48.75 60h-37.5C5.036 60 0 54.964 0 48.75v-37.5C0 5.036 5.036 0 11.25 0h37.5C54.964 0 60 5.036 60 11.25v37.5C60 54.964 54.964 60 48.75 60z" fill="#F3F6FF" /><path d="M25.3 15.2h-3.1c-.4 0-.7.2-.9.6-.1.4-.1.8.2 1l.8.8-1.2 1.2-1.6-.9c-.3-.2-.8-.2-1.1.1l-3.1 3.2c-.4.4-.4 1 0 1.3.2.2.4.3.7.3.3 0 .5-.1.7-.3l2.6-2.6 1.6.9c.2.2.7.1 1-.2l1.8-1.6 1 1c.2.2.4.3.7.3.1 0 .2 0 .4-.1.2-.2.5-.5.5-.9v-3.1c0-.5-.5-1-1-1z" fill="#D64933" /><path d="M36.2 19c4.9 0 8.8-1.1 8.8-2.5S41.1 14 36.2 14s-8.8 1.1-8.8 2.5c.1 1.4 4 2.5 8.8 2.5zm0 5.6c-4.8 0-8.8-1.1-8.8-2.5v-2.8c2.8 1.5 7.5 1.6 8.8 1.6 1.3 0 6-.1 8.8-1.6v2.8c0 1.4-3.9 2.5-8.8 2.5zm-3.1 13v3.7c1 .1 2 .2 3.1.2 4.8 0 8.8-1.1 8.8-2.5v-2.8c-2.8 1.5-7.5 1.6-8.8 1.6-.5 0-1.7-.1-3.1-.2zm-.1-5.7c0 .1.1.2.1.4h.1v3.4c1 .1 2 .2 3.1.2 4.8 0 8.8-1.1 8.8-2.5v-2.8c-2.8 1.5-7.5 1.6-8.8 1.6-.6-.1-1.9-.1-3.3-.3zm3.2-5.4c1.3 0 6-.1 8.8-1.6v2.8c0 1.4-3.9 2.5-8.8 2.5-4.8 0-8.8-1.1-8.8-2.5v-2.8c2.9 1.5 7.6 1.6 8.8 1.6zm-13.1 8.7c4.5 0 8.1-1.1 8.1-2.5s-3.6-2.5-8.1-2.5-8.1 1.1-8.1 2.5 3.6 2.5 8.1 2.5zm0 4.4c-4.5 0-8.1-1.1-8.1-2.5v-1.6c2.6 1.5 7 1.6 8.1 1.6 1.2 0 5.6-.1 8.1-1.6v1.6c.1 1.4-3.6 2.5-8.1 2.5zm0 1.9c1.2 0 5.6-.1 8.1-1.6v1.6c0 1.4-3.6 2.5-8.1 2.5S15 42.9 15 41.5v-1.6c2.6 1.5 7 1.6 8.1 1.6z" fill="#436FFD" /></symbol><symbol fill="none" viewBox="0 0 60 60" id="frame"><path d="M48.75 60h-37.5C5.036 60 0 54.964 0 48.75v-37.5C0 5.036 5.036 0 11.25 0h37.5C54.964 0 60 5.036 60 11.25v37.5C60 54.964 54.964 60 48.75 60z" fill="#436FFD" /><path d="M27.25 18h-7.5A1.75 1.75 0 0018 19.75v4.5c0 .965.784 1.75 1.75 1.75h7.5c.965 0 1.75-.784 1.75-1.75v-4.5A1.753 1.753 0 0027.25 18z" fill="#DDE7FF" /><path d="M27.25 28h-7.5A1.75 1.75 0 0018 29.749v10.5c0 .965.784 1.75 1.75 1.75h7.5c.965 0 1.75-.785 1.75-1.75v-10.5a1.753 1.753 0 00-1.75-1.75z" fill="#fff" /><path d="M40.248 34h-7.5c-.964 0-1.75.784-1.75 1.75v4.5c0 .964.784 1.75 1.75 1.75h7.5a1.753 1.753 0 001.75-1.752v-4.5A1.75 1.75 0 0040.248 34z" fill="#DDE7FF" /><path d="M40.248 18h-7.5c-.964 0-1.75.784-1.75 1.75v10.5c0 .964.784 1.75 1.75 1.75h7.5c.965 0 1.75-.784 1.75-1.75v-10.5a1.75 1.75 0 00-1.75-1.75z" fill="#fff" /></symbol><symbol fill="none" viewBox="0 0 88 34" id="logo"><g fill="currentColor"><path d="M66.26 18.224a4.995 4.995 0 011.056 3.314 4.935 4.935 0 01-1.033 3.267 3.378 3.378 0 01-2.721 1.238h-2.418a.082.082 0 00-.07.023.084.084 0 00-.024.07v7.124a.209.209 0 01-.235.236H59.62a.207.207 0 01-.235-.236V17.198a.21.21 0 01.14-.227.206.206 0 01.095-.009h3.872a3.43 3.43 0 012.77 1.262zm-1.267 5.602a3.606 3.606 0 00.657-2.264 3.66 3.66 0 00-.657-2.276 2.064 2.064 0 00-1.713-.861h-2.136a.082.082 0 00-.09.056.084.084 0 00-.004.038v6.061a.084.084 0 00.094.095h2.136a2.062 2.062 0 001.713-.85zm11.077 9.509l-2.395-7.288a.092.092 0 00-.093-.07h-2.043a.082.082 0 00-.09.056.084.084 0 00-.003.038v7.217a.209.209 0 01-.235.236h-1.197a.206.206 0 01-.176-.059.209.209 0 01-.059-.177V17.25a.21.21 0 01.14-.227.207.207 0 01.095-.009h3.873a3.427 3.427 0 012.769 1.262 4.955 4.955 0 011.056 3.29 5.09 5.09 0 01-.657 2.641 3.573 3.573 0 01-1.784 1.557.085.085 0 00-.064.041.088.088 0 00-.007.077l2.558 7.383.024.094c0 .11-.07.165-.212.165h-1.219a.272.272 0 01-.282-.189zm-4.624-14.764v5.967a.084.084 0 00.023.07.083.083 0 00.07.024h2.112a2.096 2.096 0 001.737-.837 3.512 3.512 0 00.657-2.229c.039-.8-.193-1.59-.657-2.24a2.093 2.093 0 00-1.737-.85H71.54a.082.082 0 00-.09.057.084.084 0 00-.003.038zm9.446 14.009a4.076 4.076 0 01-1.114-2.995v-8.632a4.092 4.092 0 011.114-2.995 3.923 3.923 0 012.922-1.133 3.854 3.854 0 012.965 1.141 3.893 3.893 0 011.118 2.987v8.632a4.075 4.075 0 01-1.127 2.984 3.97 3.97 0 01-2.956 1.144 3.913 3.913 0 01-2.922-1.132zm4.67-1.05c.456-.505.696-1.17.669-1.85v-8.798a2.646 2.646 0 00-.669-1.875 2.284 2.284 0 00-1.748-.72 2.208 2.208 0 00-1.713.72 2.673 2.673 0 00-.657 1.875v8.797c-.028.68.208 1.343.657 1.852a2.214 2.214 0 001.713.72 2.272 2.272 0 001.748-.72zM8.801 17.014H7.628a.205.205 0 00-.176.059.209.209 0 00-.059.176v12.147c0 .04-.01.069-.039.079-.039.01-.059-.01-.078-.06L2.68 17.2a.259.259 0 00-.254-.186H1.057a.205.205 0 00-.176.059.209.209 0 00-.059.176v16.039a.21.21 0 00.14.227c.03.01.063.013.095.009H2.26a.207.207 0 00.226-.14.21.21 0 00.008-.096L2.465 21.16c0-.05.02-.07.049-.079.03-.01.059.01.068.06L7.16 33.326a.271.271 0 00.264.197H8.8a.207.207 0 00.226-.14.21.21 0 00.009-.096V17.249a.21.21 0 00-.14-.227.205.205 0 00-.095-.008zm7.656.179a.23.23 0 00-.264-.206h-1.408a.236.236 0 00-.254.206l-3.52 16.038a.197.197 0 00.039.187.215.215 0 00.176.079h1.193a.222.222 0 00.254-.216l.176-.855.42-2.113.304-1.504.45-2.24.684-3.342.743-3.695c.01-.049.03-.069.04-.069.019 0 .038.02.048.07l1.183 5.846.695 3.42.312 1.504c.02.01.02.03.02.05l.381 1.925.206 1.003a.247.247 0 00.254.216h1.222a.194.194 0 00.205-.13.197.197 0 00.01-.086v-.05l-3.569-16.038z" /><path d="M15.515 31.134c.586 0 1.061-.478 1.061-1.067 0-.59-.475-1.067-1.061-1.067-.587 0-1.062.477-1.062 1.067 0 .589.476 1.067 1.062 1.067z" /><path fill="#CCC" d="M50.693 6.105h-4.85a.278.278 0 00-.278.279v22.438c0 .154.125.279.278.279h4.85a.278.278 0 00.277-.279V6.384a.278.278 0 00-.277-.279zm-11.087 8.24h-4.85a.278.278 0 00-.278.278v11.882c0 .154.125.278.278.278h4.85a.278.278 0 00.277-.278V14.623a.278.278 0 00-.277-.278z" /><path d="M42.488.626V6.29h-10.81a.277.277 0 00-.277.278v5.663h-7.348a.276.276 0 00-.278.279v20.708a.28.28 0 00.172.258c.033.014.07.02.106.02h31.103a.276.276 0 00.277-.278V.626a.28.28 0 00-.17-.257.276.276 0 00-.107-.021h-12.39a.275.275 0 00-.256.172.279.279 0 00-.022.106zM31.401 31.63h-3.95V18.008a.278.278 0 00-.277-.279h-1.54v-3.63H31.4v17.53zm11.087 0H33.26V8.157h9.23V31.63zm11.087 0h-9.228V2.215h9.228V31.63z" /><path d="M47.754 8.932h-1.219a.278.278 0 00-.277.279v1.31c0 .154.124.279.277.279h1.219a.278.278 0 00.277-.279v-1.31a.278.278 0 00-.277-.279zm0 3.523h-1.219a.278.278 0 00-.277.279v1.31c0 .154.124.279.277.279h1.219a.278.278 0 00.277-.279v-1.31a.278.278 0 00-.277-.279zm0 3.524h-1.219a.278.278 0 00-.277.278v1.31c0 .155.124.28.277.28h1.219a.278.278 0 00.277-.28v-1.31a.278.278 0 00-.277-.278zm0 3.523h-1.219a.278.278 0 00-.277.279v1.31c0 .154.124.278.277.278h1.219a.278.278 0 00.277-.278v-1.31a.278.278 0 00-.277-.279zm0 3.523h-1.219a.278.278 0 00-.277.279v1.31c0 .154.124.278.277.278h1.219a.278.278 0 00.277-.278v-1.31a.278.278 0 00-.277-.28zm0 3.523h-1.219a.278.278 0 00-.277.279v1.31c0 .154.124.279.277.279h1.219a.278.278 0 00.277-.279v-1.31a.278.278 0 00-.277-.279zm0-21.12h-1.219a.278.278 0 00-.277.279v1.31c0 .154.124.279.277.279h1.219a.278.278 0 00.277-.279v-1.31a.278.278 0 00-.277-.279zm3.632 3.504h-1.218a.278.278 0 00-.277.279v1.31c0 .154.124.279.277.279h1.218a.278.278 0 00.277-.279v-1.31a.278.278 0 00-.277-.279zm0 3.523h-1.218a.278.278 0 00-.277.279v1.31c0 .154.124.279.277.279h1.218a.278.278 0 00.277-.279v-1.31a.278.278 0 00-.277-.279zm0 3.524h-1.218a.278.278 0 00-.277.278v1.31c0 .155.124.28.277.28h1.218a.278.278 0 00.277-.28v-1.31a.278.278 0 00-.277-.278zm0 3.523h-1.218a.278.278 0 00-.277.279v1.31c0 .154.124.278.277.278h1.218a.278.278 0 00.277-.278v-1.31a.278.278 0 00-.277-.279zm0 3.523h-1.218a.278.278 0 00-.277.279v1.31c0 .154.124.278.277.278h1.218a.278.278 0 00.277-.278v-1.31a.278.278 0 00-.277-.28zm0 3.523h-1.218a.278.278 0 00-.277.279v1.31c0 .154.124.279.277.279h1.218a.278.278 0 00.277-.279v-1.31a.278.278 0 00-.277-.279zm0-21.12h-1.218a.278.278 0 00-.277.279v1.31c0 .154.124.279.277.279h1.218a.278.278 0 00.277-.279v-1.31a.278.278 0 00-.277-.279zm-14.719 8.237H35.45a.278.278 0 00-.277.278v1.31c0 .154.124.28.277.28h1.218a.278.278 0 00.278-.28v-1.31a.278.278 0 00-.278-.278zm0 3.523H35.45a.278.278 0 00-.277.279v1.31c0 .154.124.279.277.279h1.218a.278.278 0 00.278-.279v-1.31a.278.278 0 00-.278-.279zm0 3.523H35.45a.278.278 0 00-.277.279v1.31c0 .154.124.279.277.279h1.218a.278.278 0 00.278-.279v-1.31a.278.278 0 00-.278-.279zm0 3.523H35.45a.278.278 0 00-.277.279v1.31c0 .154.124.279.277.279h1.218a.278.278 0 00.278-.279v-1.31a.278.278 0 00-.278-.279zM40.3 13.665h-1.22a.278.278 0 00-.276.278v1.31c0 .154.124.28.277.28h1.218a.278.278 0 00.278-.28v-1.31a.278.278 0 00-.278-.278zm0 3.523h-1.22a.278.278 0 00-.276.279v1.31c0 .154.124.279.277.279h1.218a.278.278 0 00.278-.279v-1.31a.278.278 0 00-.278-.279zm0 3.523h-1.22a.278.278 0 00-.276.279v1.31c0 .154.124.279.277.279h1.218a.278.278 0 00.278-.279v-1.31a.278.278 0 00-.278-.279zm0 3.523h-1.22a.278.278 0 00-.276.279v1.31c0 .154.124.279.277.279h1.218a.278.278 0 00.278-.279v-1.31a.278.278 0 00-.278-.279z" /></g></symbol><symbol fill="none" viewBox="0 0 32 32" id="mail"><path d="M26 32H6a6 6 0 01-6-6V6a6 6 0 016-6h20a6 6 0 016 6v20a6 6 0 01-6 6z" fill="currentColor" /><path d="M22.332 11H9.667C8.747 11 8 11.747 8 12.666v7.332c0 .92.748 1.667 1.667 1.667h12.666A1.67 1.67 0 0024 19.998v-7.332A1.67 1.67 0 0022.332 11zm.334 3.606l-5.74 3a2.043 2.043 0 01-.926.227c-.32 0-.633-.08-.927-.227l-5.74-3v-1.507l6.352 3.32c.194.1.434.1.627 0l6.353-3.32v1.507h.001z" fill="#436FFD" /></symbol><symbol fill="none" viewBox="0 0 32 32" id="phone"><path d="M26 32H6a6 6 0 01-6-6V6a6 6 0 016-6h20a6 6 0 016 6v20a6 6 0 01-6 6z" fill="currentColor" /><path d="M23.942 19.842c-.11-.632-.65-1.135-1.315-1.224l-3.686-.493a1.55 1.55 0 00-1.608.86c-.07.152-.13.31-.178.473a8.524 8.524 0 01-2.759-1.852 8.508 8.508 0 01-1.852-2.759c.163-.048.321-.107.473-.178.596-.277.95-.938.86-1.607l-.494-3.686c-.089-.665-.592-1.206-1.235-1.317a3.686 3.686 0 00-.614-.057c-1.21 0-2.355.64-2.987 1.669-.684 1.115-.589 2.541-.43 3.659.36 2.532 1.661 5.078 3.57 6.986a12.444 12.444 0 005.067 3.073c.966.302 2.175.617 3.34.617.871 0 1.717-.176 2.416-.667A3.514 3.514 0 0024 20.467c0-.185-.018-.381-.058-.625z" fill="#436FFD" /></symbol><symbol fill="none" viewBox="0 0 32 32" id="pin"><path d="M26 32H6a6 6 0 01-6-6V6a6 6 0 016-6h20a6 6 0 016 6v20a6 6 0 01-6 6z" fill="currentColor" /><path d="M16.153 8C12.76 8 10 10.795 10 14.23c0 4.741 5.326 9.353 5.553 9.549a.918.918 0 001.2 0c.227-.194 5.553-4.806 5.553-9.549 0-3.435-2.762-6.23-6.153-6.23zm0 8.616a2.464 2.464 0 01-2.46-2.461 2.464 2.464 0 012.46-2.463 2.462 2.462 0 010 4.924z" fill="#436FFD" /></symbol><symbol fill="none" viewBox="0 0 60 60" id="publication"><path d="M48.75 60h-37.5C5.036 60 0 54.964 0 48.75v-37.5C0 5.036 5.036 0 11.25 0h37.5C54.964 0 60 5.036 60 11.25v37.5C60 54.964 54.964 60 48.75 60z" fill="#436FFD" /><path d="M36.538 29.988a6.67 6.67 0 11-13.342 0 6.67 6.67 0 0113.342 0z" fill="#fff" /><path d="M29.865 46c-.348 0-.694-.012-1.037-.034a1.335 1.335 0 01-1.245-1.417A1.313 1.313 0 0129 43.302c1.2.078 2.44-.01 3.621-.256a1.333 1.333 0 11.546 2.612c-1.08.228-2.191.342-3.302.342zm-6.701-1.613c-.204 0-.412-.046-.609-.148a16.116 16.116 0 01-3.564-2.496 1.333 1.333 0 111.811-1.958 13.391 13.391 0 002.973 2.08 1.336 1.336 0 01-.611 2.522zm15.19-1.087a1.333 1.333 0 01-.773-2.422 13.501 13.501 0 002.648-2.484 1.335 1.335 0 112.072 1.684 16.169 16.169 0 01-3.175 2.974 1.323 1.323 0 01-.772.248zm-21.921-6.053c-.513 0-1-.296-1.221-.794a15.847 15.847 0 01-1.199-4.185 1.334 1.334 0 112.642-.376 13.21 13.21 0 00.995 3.484 1.332 1.332 0 01-1.217 1.871zm27.573-1.971a1.337 1.337 0 01-1.287-1.693c.324-1.165.489-2.374.489-3.595A13.192 13.192 0 0043.06 28a1.334 1.334 0 011.123-1.517 1.32 1.32 0 011.517 1.121 15.8 15.8 0 01.175 2.386c0 1.459-.199 2.91-.589 4.31a1.33 1.33 0 01-1.281.976zM15.7 27.462a1.336 1.336 0 01-1.288-1.685 15.942 15.942 0 011.706-4.008 1.334 1.334 0 112.288 1.373 13.252 13.252 0 00-1.42 3.335c-.161.594-.7.985-1.286.985zm26.615-3.915c-.446 0-.879-.222-1.133-.627a13.327 13.327 0 00-2.322-2.786 1.335 1.335 0 011.802-1.971 16.093 16.093 0 012.785 3.342 1.335 1.335 0 01-1.132 2.042zM21.3 19.402a1.335 1.335 0 01-.78-2.418 15.866 15.866 0 013.846-2.04 1.334 1.334 0 11.915 2.508 13.293 13.293 0 00-3.203 1.697c-.236.17-.508.253-.779.253zm13.334-1.964c-.144 0-.29-.024-.434-.072a13.28 13.28 0 00-3.557-.699 1.334 1.334 0 01.154-2.665c1.46.084 2.896.366 4.27.838.698.24 1.068.999.828 1.695-.19.555-.707.903-1.261.903z" fill="#DDE7FF" /></symbol><symbol fill="none" viewBox="0 0 60 60" id="reload"><path d="M48.75 60h-37.5C5.036 60 0 54.964 0 48.75v-37.5C0 5.036 5.036 0 11.25 0h37.5C54.964 0 60 5.036 60 11.25v37.5C60 54.964 54.964 60 48.75 60z" fill="#F3F6FF" /><path d="M42.17 24.53l-1.243-8.7a.88.88 0 00-1.492-.497l-1.81 1.81A14.843 14.843 0 0029.937 15C21.765 15 15.204 21.396 15 29.561a.88.88 0 00.755.893l3.512.502a.88.88 0 001.003-.883c-.072-5.388 4.28-9.8 9.667-9.8a9.67 9.67 0 013.785.773l-1.744 1.745a.88.88 0 00.496 1.491l8.701 1.243a.88.88 0 00.995-.994z" fill="#D64933" /><path d="M44.245 29.614l-3.51-.501c-.453-.058-1.003.33-1.003.946 0 5.33-4.337 9.668-9.668 9.668a9.68 9.68 0 01-3.768-.765l1.69-1.69a.88.88 0 00-.498-1.491l-8.7-1.244a.881.881 0 00-.995.995l1.243 8.7a.88.88 0 001.492.498l1.854-1.853A14.878 14.878 0 0030.064 45C38.197 45 44.757 38.636 45 30.511a.88.88 0 00-.755-.897z" fill="#436FFD" /></symbol><symbol fill="none" viewBox="0 0 60 60" id="robot"><path d="M48.75 60h-37.5C5.036 60 0 54.964 0 48.75v-37.5C0 5.036 5.036 0 11.25 0h37.5C54.964 0 60 5.036 60 11.25v37.5C60 54.964 54.964 60 48.75 60z" fill="#F3F6FF" /><path fill-rule="evenodd" clip-rule="evenodd" d="M42.75 30.125a1.125 1.125 0 012.25 0v5.25a1.125 1.125 0 01-2.25 0v-1.5H42v4.5a4.128 4.128 0 01-4.125 4.125h-15.75A4.128 4.128 0 0118 38.375v-4.5h-.75v1.5a1.125 1.125 0 01-2.25 0v-5.25a1.125 1.125 0 012.25 0v1.5H18v-4.5A4.128 4.128 0 0122.125 23h6.75v-3.218c.347.14.727.218 1.125.218a2.99 2.99 0 001.125-.218V23h6.75A4.128 4.128 0 0142 27.125v4.5h.75v-1.5zM25.5 27.5c-1.654 0-3 1.346-3 3s1.346 3 3 3 3-1.346 3-3-1.346-3-3-3zm0 9.375c0 .621.504 1.125 1.125 1.125h6.75a1.125 1.125 0 000-2.25h-6.75c-.621 0-1.125.504-1.125 1.125zm6-6.375c0 1.654 1.346 3 3 3s3-1.346 3-3-1.346-3-3-3-3 1.346-3 3z" fill="#436FFD" /><circle cx="30" cy="17" r="2" fill="#D64933" /></symbol><symbol fill="none" viewBox="0 0 61 60" id="settings"><path d="M48.86 60h-37.5C5.145 60 .11 54.964.11 48.75v-37.5C.11 5.036 5.145 0 11.36 0h37.5c6.213 0 11.25 5.036 11.25 11.25v37.5c0 6.214-5.037 11.25-11.25 11.25z" fill="#436FFD" /><g clip-path="url(#settings_clip0)"><path d="M32.513 27.87v-3.35H30.43a7.099 7.099 0 00-.902-2.171l1.475-1.475-2.37-2.37-1.474 1.475a7.1 7.1 0 00-2.17-.898v-2.088h-3.354v2.087a7.098 7.098 0 00-2.17.897l-1.474-1.474-2.37 2.37 1.476 1.474a7.085 7.085 0 00-.902 2.172H14.11v3.35h2.085a7.06 7.06 0 00.902 2.171l-1.475 1.475 2.369 2.37 1.475-1.475a7.089 7.089 0 002.17.899v2.088h3.354v-2.086a7.092 7.092 0 002.169-.9l1.475 1.475 2.369-2.37-1.475-1.474a7.09 7.09 0 00.902-2.172h2.084zm-9.202 2.442a4.115 4.115 0 11.005 0h-.005z" fill="#fff" /><path d="M46.108 36.496v-2.898h-1.802a6.137 6.137 0 00-.78-1.878l1.275-1.276-2.049-2.05-1.275 1.276a6.132 6.132 0 00-1.878-.778v-1.805h-2.902v1.805a6.131 6.131 0 00-1.876.778l-1.276-1.276-2.05 2.05 1.276 1.276a6.135 6.135 0 00-.78 1.878h-1.805v2.898h1.803c.154.665.418 1.3.78 1.878l-1.275 1.276 2.05 2.05 1.276-1.276a6.14 6.14 0 001.876.778v1.805H39.6v-1.805a6.141 6.141 0 001.877-.778l1.276 1.276 2.05-2.05-1.276-1.276a6.134 6.134 0 00.78-1.878h1.803zm-7.96 1.94a3.389 3.389 0 113.388-3.39 3.387 3.387 0 01-3.386 3.39h-.002z" fill="#DDE7FF" /></g><defs></defs></symbol><clipPath id="settings_clip0"><path fill="#fff" transform="translate(14.11 14)" d="M0 0h32v32H0z" /></clipPath><symbol fill="none" viewBox="0 0 60 60" id="statistics"><path d="M48.75 60h-37.5C5.036 60 0 54.964 0 48.75v-37.5C0 5.036 5.036 0 11.25 0h37.5C54.964 0 60 5.036 60 11.25v37.5C60 54.964 54.964 60 48.75 60z" fill="#F3F6FF" /><path d="M42.8 17H17.2C16 17 15 18 15 19.2v15.6c0 1.2 1 2.2 2.2 2.2h10.3v2.5H25c-.7 0-1.3.6-1.3 1.3 0 .7.6 1.2 1.3 1.2h10c.7 0 1.3-.6 1.3-1.3 0-.7-.6-1.3-1.3-1.3h-2.5V37h10.3c1.2 0 2.2-1 2.2-2.2V19.2c0-1.2-1-2.2-2.2-2.2zM17.5 34.5v-15h25v15h-25z" fill="#436FFD" /><path d="M35.3 22h-3.1c-.4 0-.7.2-.9.6-.1.4-.1.8.2 1l.9.9-1.6 1.6-1.2-.8c-.4-.2-.8-.2-1.1.1l-4.4 3.8c-.4.2-.5.8-.1 1.2.2.2.4.3.7.3.2 0 .4-.1.6-.2l3.8-3.3 1.3.9c.4.2.9.2 1.2-.1l2.1-2.1.9.9c.2.2.4.3.7.3.1 0 .2 0 .4-.1.4-.1.6-.5.6-.9v-3.2c0-.5-.5-.9-1-.9z" fill="#D64933" /></symbol><symbol fill="none" viewBox="0 0 32 32" id="user"><path d="M26 32H6a6 6 0 01-6-6V6a6 6 0 016-6h20a6 6 0 016 6v20a6 6 0 01-6 6z" fill="currentColor" /><path d="M15.857 15.618a3.81 3.81 0 100-7.618 3.81 3.81 0 000 7.618zm3.238 1.525h-6.477A3.624 3.624 0 009 20.763v2.666c0 .315.256.571.571.571h12.572a.572.572 0 00.571-.571v-2.667a3.624 3.624 0 00-3.62-3.62z" fill="#436FFD" /></symbol></defs><use id="automatization-usage" xlink:href="#automatization" class="sprite-symbol-usage" /><use id="browser-grid-usage" xlink:href="#browser-grid" class="sprite-symbol-usage" /><use id="business-usage" xlink:href="#business" class="sprite-symbol-usage" /><use id="cross-usage" xlink:href="#cross" class="sprite-symbol-usage" /><use id="documents-usage" xlink:href="#documents" class="sprite-symbol-usage" /><use id="eye-usage" xlink:href="#eye" class="sprite-symbol-usage" /><use id="eye-crossed-usage" xlink:href="#eye-crossed" class="sprite-symbol-usage" /><use id="filter-usage" xlink:href="#filter" class="sprite-symbol-usage" /><use id="finance-usage" xlink:href="#finance" class="sprite-symbol-usage" /><use id="frame-usage" xlink:href="#frame" class="sprite-symbol-usage" /><use id="logo-usage" xlink:href="#logo" class="sprite-symbol-usage" /><use id="mail-usage" xlink:href="#mail" class="sprite-symbol-usage" /><use id="phone-usage" xlink:href="#phone" class="sprite-symbol-usage" /><use id="pin-usage" xlink:href="#pin" class="sprite-symbol-usage" /><use id="publication-usage" xlink:href="#publication" class="sprite-symbol-usage" /><use id="reload-usage" xlink:href="#reload" class="sprite-symbol-usage" /><use id="robot-usage" xlink:href="#robot" class="sprite-symbol-usage" /><use id="settings-usage" xlink:href="#settings" class="sprite-symbol-usage" /><use id="statistics-usage" xlink:href="#statistics" class="sprite-symbol-usage" /><use id="user-usage" xlink:href="#user" class="sprite-symbol-usage" /></svg>