<svg width="275" height="251" fill="none" xmlns="http://www.w3.org/2000/svg">
    <g clip-path="url(#clip0)">
        <circle cx="141" cy="133.003" r="117" fill="#F3F6FF"/>
        <g clip-path="url(#clip1)">
            <path d="M79.526 40.846l137.83 15.177c-.12-.183-.238-.365-.359-.547l-137-15.085c-.157.15-.314.303-.47.455z"
                  fill="#41414B"/>
            <path d="M52.745 97.295l-.045.505c1.91.041 3.817.063 5.72.063 18.838 0 37.268-2.03 54.971-6.063 18.206-4.148 35.692-10.413 51.972-18.622 27.504-13.868 42.292-28.72 42.669-29.1l-.343-.37-.009.007c-.146.15-14.907 15.081-42.564 29.022-23.882 12.04-62.218 25.62-112.371 24.558zM89.746 36.967c9.227 0 22.542-.123 37.693-.642 18.761-.644 43.134-2.004 66.095-4.867l-.623-.43c-22.776 2.814-46.889 4.156-65.486 4.793-18.399.631-34.088.677-43.034.628-.198.166-.396.333-.592.5 1.722.01 3.714.018 5.947.018z"
                  fill="#41414B"/>
            <path d="M221.297 61.231c8.785-8.785 8.785-23.03 0-31.815-8.786-8.786-23.03-8.786-31.816 0-8.786 8.785-8.786 23.03 0 31.815 8.786 8.786 23.03 8.786 31.816 0z"
                  fill="#D64933"/>
            <path d="M176.564 33.036c.064.791-.106 1.45-.381 1.471-.275.023-.55-.6-.613-1.39-.064-.791.106-1.45.381-1.471.273-.022.548.6.613 1.39z"
                  fill="#35353C"/>
            <path d="M177.558 32.955c.064.79-.106 1.449-.381 1.47-.275.023-.55-.6-.613-1.39-.064-.791.106-1.45.381-1.471.275-.022.548.6.613 1.39zM178.552 32.873c.064.79-.106 1.45-.381 1.471-.275.023-.55-.6-.612-1.391-.065-.79.105-1.45.38-1.47.275-.022.548.601.613 1.39z"
                  fill="#35353C"/>
            <path d="M179.545 32.794c.064.79-.106 1.45-.381 1.47-.275.024-.549-.6-.612-1.39-.065-.79.106-1.45.38-1.471.275-.021.549.6.613 1.39z"
                  fill="#35353C"/>
            <path d="M180.158 34.175c.275-.022.445-.68.381-1.471-.065-.79-.339-1.413-.614-1.39-.275.022-.445.68-.381 1.47.064.791.339 1.413.614 1.391zM83.902 36.712c-.003.792-.228 1.433-.503 1.433-.275-.001-.496-.644-.495-1.437.002-.792.229-1.433.504-1.433.276 0 .497.644.494 1.437z"
                  fill="#35353C"/>
            <path d="M84.898 36.715c-.003.792-.228 1.434-.503 1.434-.275-.002-.496-.645-.495-1.437.002-.792.23-1.434.504-1.434.276.002.497.645.494 1.437z"
                  fill="#35353C"/>
            <path d="M85.896 36.718c-.003.792-.228 1.434-.503 1.434-.275-.002-.496-.645-.495-1.437.004-.793.23-1.434.504-1.434.276.001.497.645.494 1.437zM86.894 36.722c-.003.792-.228 1.434-.503 1.434-.275-.002-.496-.645-.495-1.437.004-.792.23-1.434.504-1.434.275 0 .496.643.494 1.437z"
                  fill="#35353C"/>
            <path d="M87.89 36.725c-.003.793-.228 1.434-.503 1.434-.275-.001-.496-.644-.494-1.437.003-.792.228-1.433.503-1.433.276 0 .498.643.495 1.436zM109.441 43.755c-.095.788-.47 1.39-.837 1.343-.367-.044-.586-.718-.489-1.506.095-.787.469-1.39.836-1.345.367.047.587.72.49 1.508z"
                  fill="#35353C"/>
            <path d="M110.768 43.916c-.095.788-.47 1.39-.836 1.345-.367-.044-.587-.718-.49-1.506.096-.787.47-1.39.836-1.345.366.045.585.719.49 1.507zM112.096 44.078c-.095.787-.469 1.39-.836 1.343-.367-.044-.587-.718-.49-1.506.095-.788.47-1.39.837-1.345.367.048.586.722.489 1.508z"
                  fill="#35353C"/>
            <path d="M113.423 44.239c-.095.787-.469 1.389-.836 1.344-.367-.044-.587-.718-.49-1.506.095-.787.47-1.389.837-1.344.365.046.585.72.489 1.506z"
                  fill="#35353C"/>
            <path d="M114.75 44.401c-.096.788-.47 1.39-.837 1.344-.367-.045-.586-.719-.49-1.506.095-.788.47-1.39.837-1.345.367.046.586.72.49 1.507zM121.966 89.476c.256.893-.026 1.759-.631 1.933-.605.173-1.304-.41-1.562-1.304-.256-.894.026-1.76.631-1.933.605-.175 1.305.409 1.562 1.304z"
                  fill="#35353C"/>
            <path d="M124.157 88.847c.256.893-.026 1.759-.631 1.932-.605.174-1.303-.41-1.561-1.303-.257-.894.026-1.76.631-1.933.606-.175 1.305.408 1.561 1.303z"
                  fill="#35353C"/>
            <path d="M126.348 88.217c.257.893-.026 1.76-.631 1.933-.604.173-1.303-.41-1.561-1.304-.256-.893.026-1.76.631-1.933.607-.175 1.305.409 1.561 1.304z"
                  fill="#35353C"/>
            <path d="M128.539 87.588c.256.893-.026 1.759-.631 1.932-.605.174-1.303-.41-1.561-1.303-.257-.894.026-1.76.631-1.933.606-.175 1.305.409 1.561 1.304z"
                  fill="#35353C"/>
            <path d="M130.099 88.883c.605-.174.888-1.04.631-1.933-.257-.894-.956-1.478-1.561-1.304-.606.174-.889 1.04-.632 1.933.257.894.956 1.478 1.562 1.304z"
                  fill="#35353C"/>
            <path d="M105.606 68.363a.252.252 0 00-.252.252v9.764h-3.238v-5.223a.252.252 0 10-.503 0v17.939H53.516a87.831 87.831 0 00-.45 3.186H63.33v19.523H52.805c.102 1.066.224 2.128.365 3.186h10.16v20.704h-4.826c.417 1.07.855 2.133 1.312 3.186h3.514v7.195a89.86 89.86 0 004.247 7.021V140.88h12.73v20.88h-7.818a89.527 89.527 0 002.709 3.186h5.11v5.284a89.118 89.118 0 004.247 3.798v-9.082h17.058v20.331a89.674 89.674 0 004.246 2.01V68.617a.253.253 0 00-.253-.254zm-25.3 69.331h-12.73V116.99h12.73v20.704zm0-23.89h-12.73V94.281h12.73v19.523zm21.305 47.956H84.553v-20.88h17.058v20.88zm0-24.066H84.553V116.99h17.058v20.704zm0-23.89H84.553V94.281h17.058v19.523zM225.355 127.565v-1.599a.251.251 0 00-.503 0v1.599h-.757v-3.869a.252.252 0 00-.504 0v3.869h-.684v16.763h-15.396v-16.763h-.684v-3.869a.252.252 0 00-.504 0v3.869h-.757v-3.869a.251.251 0 10-.503 0v3.869h-.685v16.763h-2.416v-28.491h-.685v-3.869a.253.253 0 00-.252-.252.254.254 0 00-.252.252v3.869h-.757v-7.317a.251.251 0 10-.503 0v7.317h-.685v28.491h-6.924v-16.763h-.724v-7.316a.252.252 0 00-.504 0v7.316h-.757v-3.869a.251.251 0 10-.503 0v3.869h-.644v97.206h3.135v-60.458h6.924v15.414h-6.924v2.352h6.924v42.692h3.135v-42.692h2.417v42.692h3.135v-42.692h15.395v42.692h3.135v-97.206h-.693zm-2.451 19.115v15.283h-15.396V146.68h15.396zm-18.531 0v15.283h-2.416V146.68h2.416zm-12.475 15.283V146.68h6.924v15.283h-6.924zm10.059 17.764v-15.414h2.416v15.414h-2.416zm5.551 0v-15.414h15.396v15.414h-15.396z"
                  fill="#DDE7FF"/>
            <path d="M236.89 112.179a.25.25 0 00-.129-.22l-10.249-5.722c.253-.253.411-.604.411-.99a.253.253 0 00-.252-.252.254.254 0 00-.252.252.892.892 0 01-.376.729l-.399-.222a.253.253 0 00-.232-.008l-.437.211a.892.892 0 01-.35-.71.9.9 0 01.898-.898c.14 0 .252-.113.252-.252v-1.177h.898l1.331-6.543h-1.079v-8.631h1.86c.579 0 1.047-.469 1.047-1.047v-.022c0-.579-.468-1.047-1.047-1.047h-7.111c-.579 0-1.047.468-1.047 1.047v.022c0 .578.468 1.047 1.047 1.047h1.918v8.63h-1.135l1.331 6.544h1.482v.947c-.653.12-1.15.692-1.15 1.38 0 .364.139.694.368.944l-11.979 5.761a.25.25 0 00-.143.227h-2.189v2.352h28.084v-2.352h-1.371zm-12.796-24.433h2.322v8.63h-2.322v-8.63zm.856 18.782a1.39 1.39 0 001.084.021l10.087 5.628h-22.923l11.752-5.649z"
                  fill="#595959"/>
            <path d="M229.193 81.028a1.196 1.196 0 100-2.392 1.196 1.196 0 000 2.392z" fill="#D64933"/>
            <path d="M222.793 179.727h-15.286v2.352h15.286v-2.352zM222.903 144.577v80.194h3.135v-87.42a88.868 88.868 0 01-3.135 7.226zM204.372 169.965v54.806h3.135v-57.96a87.153 87.153 0 01-3.135 3.154zM198.821 174.861v49.91h3.135v-52.576a88.059 88.059 0 01-3.135 2.666zM188.762 181.938v42.833h3.135V179.95a90.48 90.48 0 01-3.135 1.988zM209.782 164.314h13.011v-2.352h-11.02a87.94 87.94 0 01-1.991 2.352z"
                  fill="#DDE7FF"/>
            <path d="M225.537 71.7l-36.239 7.885c-.008.001-.014.004-.02.006-.009.003-.018.004-.026.009-.008.003-.014.008-.021.01l-17.527 8.093c-.004.001-.009.006-.013.007a.105.105 0 00-.026.016.11.11 0 00-.019.015c-.006.006-.014.01-.018.017a.288.288 0 00-.031.038c-.005.006-.008.014-.011.02l-.011.025-.006.021c-.003.008-.004.017-.006.025-.001.01-.001.018-.003.026l-.001.019v.004c0 .01.001.018.003.028l.003.023.006.02.009.027c0 .002 0 .003.002.003l.009.016a.29.29 0 00.014.024.07.07 0 00.017.02.069.069 0 00.015.017c.006.006.014.01.02.017l.018.014.023.012.02.01.026.007.02.006.033.003.013.002H230.399c-.032-.17-.066-.336-.1-.505h-4.8l1.458-2.879h2.719l-.12-.505h-2.342l1.552-3.063c-.066-.24-.134-.479-.203-.717l-1.916 3.782h-3.095l-2.106-4.215h6.993a48.19 48.19 0 00-.149-.505h-36.592l34.026-7.404a68.038 68.038 0 00-.187-.475zm-36.296 8.463l2.096 4.136h-11.054l8.958-4.136zm-10.358 7.518h-5.926l5.926-2.736v2.736zm.505 0v-2.878h12.205l1.459 2.878h-13.664zm14.071-.311l-1.301-2.566h2.566l-1.265 2.566zm.408.311l1.419-2.878h4.274l1.38 2.878h-7.073zm6.253-2.878h2.524l-1.297 2.559-1.227-2.56zm1.632 2.878l1.458-2.878h4.274l1.341 2.878h-7.073zm6.288-2.878h2.401l-1.217 2.539-1.184-2.54zm1.58 2.878l1.38-2.878h4.406l1.499 2.878h-7.285zm6.356-2.878h2.504l-1.173 2.556-1.331-2.556zm10.416 0l-1.302 2.568-1.285-2.568h2.587zm-1.711 2.878h-6.967l1.32-2.878h4.206l1.441 2.878zm-1.691-3.383h-3.723l1.783-3.883 1.94 3.883zm-2.346-4.215l-1.934 4.215h-2.998l-2.194-4.215h7.126zm-5.5 4.215h-3.903l1.872-3.903 2.031 3.903zm-2.441-4.215l-2.021 4.215h-2.877l-1.962-4.215h6.86zm-5.453 4.215h-3.783l1.971-3.89 1.812 3.89zm-2.214-4.215l-2.136 4.215h-3.023l-2.02-4.215h7.179zm-5.717 4.215h-3.783l1.917-3.89 1.866 3.89zm-2.268-4.215l-2.079 4.215h-3.07l-2.136-4.215h7.285z"
                  fill="#595959"/>
            <path d="M140.521 140.11a.252.252 0 01-.251-.252v-6.145a.251.251 0 11.503 0v6.145a.252.252 0 01-.252.252zM142.836 140.11a.252.252 0 01-.252-.252v-12.291a.252.252 0 01.504 0v12.291a.252.252 0 01-.252.252zM197.156 143.975a.251.251 0 01-.252-.251v-6.146a.252.252 0 01.504 0v6.146a.25.25 0 01-.252.251zM199.472 143.976a.252.252 0 01-.252-.252v-5.283a.252.252 0 11.503 0v5.283a.252.252 0 01-.251.252zM175.877 133.962a.251.251 0 01-.252-.251v-7.673a.252.252 0 01.504 0v7.673a.251.251 0 01-.252.251zM171.248 133.963a.252.252 0 01-.252-.252v-6.145a.252.252 0 01.504 0v6.145c0 .14-.112.252-.252.252zM173.563 133.963a.252.252 0 01-.251-.252V121.42a.251.251 0 11.503 0v12.291a.253.253 0 01-.252.252zM119.242 116.434a.252.252 0 01-.252-.252v-7.673a.252.252 0 01.504 0v7.673a.254.254 0 01-.252.252zM114.614 116.434a.252.252 0 01-.252-.252v-12.293a.252.252 0 01.504 0v12.291c0 .14-.112.254-.252.254zM116.927 116.434a.252.252 0 01-.252-.252v-12.293a.252.252 0 11.503 0v12.291a.251.251 0 01-.251.254z"
                  fill="#262626"/>
            <path d="M173.561 137.695h-13.21v10.946h13.21v-10.946z" fill="#436FFD"/>
            <path d="M127.569 152.281h-2.57v72.513h2.57v-72.513z" fill="#262626"/>
            <path d="M145.151 140.11a.252.252 0 01-.252-.252v-7.674a.252.252 0 01.504 0v7.673a.252.252 0 01-.252.253zM201.785 143.975a.251.251 0 01-.252-.251v-7.674a.252.252 0 01.504 0v7.674a.25.25 0 01-.252.251z"
                  fill="#436FFD"/>
            <path d="M145.405 136.008h-2.57v88.787h2.57v-88.787z" fill="#436FFD"/>
            <path d="M142.838 136.008h-2.57v88.787h2.57v-88.787z" fill="#595959"/>
            <path d="M202.04 142.216h-2.57v77.652h2.57v-77.652z" fill="#436FFD"/>
            <path d="M199.471 142.216h-2.57v82.577h2.57v-82.577zM186.195 152.281h-2.57v72.513h2.57v-72.513z"
                  fill="#436FFD"/>
            <path d="M162.303 152.281h-2.57v72.513h2.57v-72.513z" fill="#262626"/>
            <path d="M119.497 113.253h-2.57v111.542h2.57V113.253z" fill="#436FFD"/>
            <path d="M116.928 113.253h-2.57v111.542h2.57V113.253z" fill="#595959"/>
            <path d="M176.132 130.762h-2.57v94.033h2.57v-94.033z" fill="#436FFD"/>
            <path d="M173.563 130.762h-2.57v94.033h2.57v-94.033z" fill="#436FFD"/>
            <path d="M205.021 148.64h-68.394v3.64h68.394v-3.64zM136.625 148.64h-25.801v3.64h25.801v-3.64z"
                  fill="#436FFD"/>
            <path d="M119.497 152.281h-5.139v3.104h5.139v-3.104zM142.838 152.281h-2.57v1.552h2.57v-1.552zM176.132 152.281h-5.139v3.104h5.139v-3.104zM199.471 152.281h-2.57v1.552h2.57v-1.552z"
                  fill="#262626"/>
            <path d="M188.764 182.069v-30.39h-2.569v68.189h13.275v-37.799h-10.706zM162.303 152.28v14.413h-10.708V152.28h-6.19v67.588h19.467V152.28h-2.569z"
                  fill="#436FFD"/>
            <path d="M205.021 148.388h-68.394v.505h68.394v-.505z" fill="#F7F7FA"/>
            <path d="M130.139 217.406V152.28h-2.57v29.843h-10.642v37.745h23.34v-2.462h-10.128zM130.137 132.183h-13.21v16.456h13.21v-16.456zM205.021 219.868h-68.394v4.925h68.394v-4.925z"
                  fill="#436FFD"/>
            <path d="M136.625 219.868h-25.801v4.925h25.801v-4.925z" fill="#262626"/>
            <path d="M78.976 223.083s.588-25.035 0-26.159c-.588-1.124-7.578-7.133-7.578-7.133l.892-.677s7.838 6.821 8.572 5.189c.565-1.256 6.246-38.516 6.78-40.389l.804.659c-2.853 25.753-5.92 40.068-5.992 40.995-.072.927 1.99 29.173 1.99 29.173l-5.468-1.658z"
                  fill="#35353C"/>
            <path d="M98.368 142.523s2.278-2.876 4.769-2.321c6.22 1.384-2.238 11.218-2.238 11.218l-6.265 3.391 3.734-12.288z"
                  fill="#436FFD"/>
            <path d="M75.332 174.207l-.73.286 6.793 17.41.73-.285-6.793-17.411zM64.97 149.591l19.008 33.772-.855.479-18.836-33.869.683-.382z"
                  fill="#35353C"/>
            <path d="M104.993 159.234c-.77-1.763-3.073-.596-3.073-.596s1.535-5.266-.547-6.749c-3.052-2.175-6.136 1.787-6.136 1.787s6.41-10.1 2.78-14.389c-1.899-2.246-5.38-.897-5.38-.897s5.14-6.72 1.826-12.079c-1.716-2.776-4.81-1.032-4.81-1.032s-4.406-13.108-13.037-10.251c-9.372 3.102-3.138 13.867-3.138 13.867s-6.205-2.724-9.022 1.5c-4.933 7.395 7.36 19.115 7.36 19.115s-5.951-3.737-9.146-1.872c-9.002 5.257 7.882 18.825 7.882 18.825s-3.166 1.172-2.777 3.728c.534 3.508 10.099 11.976 20.458 9.391 13.087-3.269 18.491-16.392 16.76-20.348zm-36.334-3.212c-1.592 1.109-5.783-3.944-4.03-5.19 1.752-1.246 5.622 4.083 4.03 5.19zm13.263-26.355c-2.85.576-4.535-7.362-1.81-7.962 2.588-.572 5.252 7.266 1.81 7.962z"
                  fill="#436FFD"/>
            <path d="M92.39 178.114c-11.783 3.849-23.389-14.093-21.108-17.709 1.952-3.092 8.587-.563 8.587-.563s-6.084-8.941-3.567-10.866c2.1-1.605 5.034.05 5.034.05s-8.25-10.926-2.92-13.514c6.728-3.267 10.399 11.655 10.399 11.655s2.101-1.83 3.72-.857c4.054 2.44-2.167 13.21-2.167 13.21s2.119-1.574 3.118.304c.998 1.877-1.64 4.941-1.64 4.941s4.052-2.527 5.299-.423c1.25 2.103-.21 12.288-4.755 13.772z"
                  fill="#DDE7FF"/>
            <path d="M61.893 169.331c.59 1.868 6.108.793 5.46-1.417-.646-2.211-6.045-.435-5.46 1.417z" fill="#436FFD"/>
            <path d="M64.29 164.721c-.28 1.065 3.363 2.841 3.988 1.565.625-1.277-3.706-2.64-3.988-1.565zM102.014 134.679c1.592 1.143-1.147 6.052-3.046 4.749-1.899-1.302 1.469-5.88 3.046-4.749zM97.406 133.003c1 .462.046 4.403-1.335 4.071-1.38-.331.328-4.538 1.335-4.071z"
                  fill="#436FFD"/>
            <path d="M86.73 129.492c1.25.389.23 5.055-1.661 4.717-1.892-.337.02-5.229 1.661-4.717zM76.648 146.571c-.936 1.145-4.016-1.44-3.158-2.421.944-1.082 4.142 1.216 3.158 2.421z"
                  fill="#DDE7FF"/>
            <path d="M13.645 225h103.248s-11.317-16.811-18.068-16.943c-3.575-.07-7.942 2.913-9.267 2.781-1.323-.132-26.052-27.797-32.034-27.799C39.522 183.033 13.644 225 13.644 225z"
                  fill="#F7F7FA"/>
            <path d="M58.996 183.414c-.01-.005-.021-.011-.032-.014l-.943-.296a2.58 2.58 0 00-.497-.065C39.522 183.035 13.643 225 13.643 225c59.634 0 54.405-37.527 45.353-41.586z"
                  fill="#F3F6FF"/>
            <path d="M96.308 220.167c7.48-.993 7.274-8.95 4.663-11.599-.751-.313-1.472-.499-2.148-.512-3.575-.071-7.941 2.912-9.266 2.78.001 0 4.303 4.897 6.751 9.331z"
                  fill="#DDE7FF"/>
            <path d="M60.621 196.3c1.176.948-2.076 5.384-3.723 3.952-1.242-1.078 1.75-5.541 3.723-3.952zM62.55 195.961c1.108-.094 1.828 4.127.62 4.257-1.209.132-2.026-4.137-.62-4.257zM60.343 187.554s-2.83 0-3.386 1.953c-.723 2.544 6.141 8.623 16.652 4.489l-13.266-6.442z"
                  fill="#436FFD"/>
            <path d="M62.052 177.225c-10.398 6.54 6.732 23.412 14.893 14.632 4.311-4.637-6.793-19.727-14.893-14.632zm6.3 8.449c-2.723.036-4.003-7.024-.946-7.021 1.882.002 3.67 6.984.947 7.021z"
                  fill="#DDE7FF"/>
            <path d="M71.397 200.534a.9.9 0 10.001-1.802.9.9 0 000 1.802zM60.26 216.196a1.197 1.197 0 11-2.395 0 1.197 1.197 0 012.394 0zM88.445 222.45a1.197 1.197 0 100-2.395 1.197 1.197 0 000 2.395zM79.49 206.769a.43.43 0 10.86 0 .43.43 0 00-.86 0zM70.966 213.492a.43.43 0 10.86 0 .43.43 0 00-.86 0zM65.981 207.125a.43.43 0 10.861 0 .43.43 0 00-.86 0z"
                  fill="#F3F6FF"/>
            <path d="M157.142 82.773a.234.234 0 01-.11-.026l-11.251-5.454a.252.252 0 01-.142-.228V64.544a.251.251 0 11.503 0v12.363l11.109 5.386a.252.252 0 01-.109.48z"
                  fill="#436FFD"/>
            <path d="M157.141 82.773a.253.253 0 01-.11-.48l11.107-5.386V64.544a.252.252 0 01.504 0v12.521a.252.252 0 01-.143.228l-11.247 5.456a.257.257 0 01-.111.024zM148.075 75.199a1.777 1.777 0 10-.818-3.46 1.777 1.777 0 00.818 3.46z"
                  fill="#436FFD"/>
            <path d="M167.869 74.737a1.778 1.778 0 10-2.516-2.514 1.778 1.778 0 002.516 2.514zM144.414 94.858a.253.253 0 01-.121-.475l12.727-6.9a.252.252 0 01.241.443l-12.727 6.9a.238.238 0 01-.12.032z"
                  fill="#436FFD"/>
            <path d="M168.392 77.067l-11.25 3.353-11.25-3.353v-3.003h22.5v3.003z" fill="#436FFD"/>
            <path d="M145.892 74.064v3.003l11.25 3.353v-6.356h-11.25zM143.109 64.546h28.067l2.042-4.339h-32.151l2.042 4.339z"
                  fill="#436FFD"/>
            <path d="M157.143 60.207h-16.076l2.042 4.339h14.034v-4.339zM166.157 62.768c-.983 0-1.778.795-1.778 1.778h3.555c0-.983-.796-1.778-1.777-1.778z"
                  fill="#436FFD"/>
            <path d="M148.074 66.266a1.778 1.778 0 10-.818-3.46 1.778 1.778 0 00.818 3.46zM167.87 65.804a1.778 1.778 0 10-2.516-2.515 1.778 1.778 0 002.516 2.515zM157.141 88.28a1.777 1.777 0 01-1.775-1.774.252.252 0 01.504 0 1.27 1.27 0 002.539 0c0-.7-.57-1.27-1.27-1.27a.252.252 0 01-.251-.252v-2.462a.251.251 0 11.503 0v2.227c.86.123 1.522.865 1.522 1.757a1.773 1.773 0 01-1.772 1.774z"
                  fill="#436FFD"/>
            <path d="M169.398 94.857a.25.25 0 01-.122-.032l-12.258-6.9a.252.252 0 01.247-.44l12.258 6.9c.121.069.164.222.097.343a.256.256 0 01-.222.13zM143.27 98.637a.252.252 0 01-.251-.252v-2.657c0-.757.615-1.374 1.374-1.374h.023c.756 0 1.374.615 1.374 1.374v1.446a.252.252 0 01-.504 0v-1.446a.87.87 0 00-.869-.87h-.023a.87.87 0 00-.869.87v2.657a.256.256 0 01-.255.252z"
                  fill="#436FFD"/>
            <path d="M168.278 98.637a.252.252 0 01-.252-.252v-2.657c0-.757.616-1.374 1.374-1.374h.023c.757 0 1.374.615 1.374 1.374v1.446a.251.251 0 11-.503 0v-1.446a.87.87 0 00-.869-.87h-.023a.87.87 0 00-.869.87v2.657a.258.258 0 01-.255.252z"
                  fill="#436FFD"/>
            <path d="M172.664 97.172h-28.847v19.009h28.847V97.172z" fill="#436FFD"/>
            <path d="M143.817 97.172h-3.096v19.009h3.096V97.172z" fill="#595959"/>
            <path d="M140.778 47.018a.245.245 0 01-.081-.014L63.452 20.741a.252.252 0 01.16-.477l77.248 26.263a.253.253 0 01-.082.49z"
                  fill="#436FFD"/>
            <path d="M140.209 49.935a1.778 1.778 0 100-3.556 1.778 1.778 0 000 3.556zM199.471 48.41a.208.208 0 01-.053-.005L62.223 18.552a.253.253 0 01.108-.494L199.525 47.91a.253.253 0 01-.054.5zM44.855 51.74a.253.253 0 01-.216-.384l18.677-30.983a.252.252 0 11.433.26L45.072 51.62a.252.252 0 01-.217.121zM30.009 61.468a.252.252 0 01-.205-.4l30.944-42.679a.254.254 0 01.354-.057c.112.082.138.24.056.354L30.213 61.362a.253.253 0 01-.204.105zM59.481 222.32H46.243a.252.252 0 01-.252-.252v-2.684c0-.139.114-.252.252-.252h13.238c.14 0 .252.114.252.252v2.684a.251.251 0 01-.252.252zm-12.986-.506H59.23v-2.178H46.495v2.178z"
                  fill="#436FFD"/>
            <path d="M37.635 221.721h63.426l1.1 3.028H36.534l1.1-3.028z" fill="#436FFD"/>
            <path d="M53.337 221.721H37.635l-1.1 3.028h16.802v-3.028z" fill="#262626"/>
            <path d="M63.54 219.636H45.11v-9.537H63.54c.14 0 .252.114.252.252v9.032a.254.254 0 01-.253.253z"
                  fill="#436FFD"/>
            <path d="M75.589 59.955h-12.05a.252.252 0 00-.252.252v159.175l.002.01.003.027c.001.008.001.016.004.023a.685.685 0 00.017.048l.003.007.005.008c.01.016.018.031.03.043l.008.009a.24.24 0 00.048.039l.014.007c.014.008.029.014.044.019l.015.004a.25.25 0 00.062.008h12.05c.14 0 .252-.113.252-.252V60.207a.255.255 0 00-.255-.252zm-6.766 133.548l1.483-.742v5.883l-1.483-.67v-4.471zm-.505 4.242l-4.191-1.895 4.191-2.095v3.99zm.505-4.807v-6.247l1.483.752v4.755l-1.483.74zm0-11.425l1.483-.702v6.066l-1.483-.752v-4.612zm-.505 4.357l-4.205-2.131 4.205-1.987v4.118zm.505-15.911l1.483-.772v6.11l-1.483-.691v-4.647zm-.505 4.412l-4.208-1.96 4.208-2.191v4.151zm.505-16.203l1.483-.721v5.929l-1.483-.702v-4.506zm-.505 4.268l-4.196-1.982 4.196-2.04v4.022zm.505-16.258l1.483-.752v6.247l-1.483-.742v-4.753zm-.505 4.503l-4.217-2.11 4.217-2.137v4.247zm.505-16.387l1.483-.68v5.929l-1.483-.742v-4.507zm-.505 4.254l-4.196-2.097 4.196-1.925v4.022zm.505-16.161l1.483-.711v6.202l-1.483-.772v-4.719zm-.505 4.456l-4.214-2.193 4.214-2.021v4.214zm.505-15.987l1.483-.753v6.02l-1.483-.691v-4.576zm-.505 4.343l-4.202-1.958 4.202-2.129v4.087zm1.988-5.661l-1.483.753v-6.111l1.483.711v4.647zm.504-4.406l4.208 2.017-4.208 2.133v-4.15zm-.504 11.548v4.435l-1.483.711v-5.837l1.483.691zm.504.235l4.188 1.951-4.188 2.008v-3.959zm-.504 11.531v4.612l-1.483.68v-6.066l1.483.774zm.504.263l4.205 2.189-4.205 1.93v-4.119zm-.504 11.397v4.755l-1.483.752v-6.247l1.483.74zm.504.252l4.217 2.109-4.217 2.137v-4.246zm-.504 11.88v4.648l-1.483.722v-6.11l1.483.74zm.504.253l4.208 2.105-4.208 2.046v-4.151zm-.504 11.443v4.684l-1.483.773v-6.157l1.483.7zm.504.238l4.21 1.99-4.21 2.192v-4.182zm-.504 11.682v4.4l-1.483.702v-5.793l1.483.691zm.504.235l4.185 1.95-4.185 1.977v-3.927zm0 11.609l4.217 2.137-4.217 2.11v-4.247zm0-.565v-6.56l4.526-2.138v10.992l-4.526-2.294zm0-11.601v-6.608l4.526-2.357v11.072l-4.526-2.107zm0-11.918v-6.413l4.526-2.202v10.753l-4.526-2.138zm0-11.688v-6.755l4.526-2.294v11.313l-4.526-2.264zm0-12.131v-6.413l4.526-2.077v10.753l-4.526-2.263zm0-11.654v-6.706l4.526-2.171v11.233l-4.526-2.356zm0-11.782v-6.511l4.526-2.293v10.912l-4.526-2.108zm0-11.786v-6.51l4.526-2.233v10.913l-4.526-2.17zm0-7.074v-4.214l4.214 2.135L70.81 97.5zm-.504.25l-1.483.731v-6.202l1.483.752v4.72zm0 .562v6.02l-1.483-.711v-4.578l1.483-.73zm-1.988 5.066l-4.202-2.014 4.202-2.072v4.086zm0 .561v6.609l-4.526 2.294v-11.072l4.526 2.169zm0 11.816v6.315l-4.526 2.171v-10.593l4.526 2.107zm0 11.657v6.559l-4.526 2.077v-10.992l4.526 2.356zm0 11.702v6.755l-4.526 2.294V136.85l4.526 2.263zm0 12.131v6.609l-4.526 2.202v-11.072l4.526 2.261zm0 11.751v6.657l-4.526 2.356v-11.152l4.526 2.139zm0 11.933v6.266l-4.526 2.138v-10.513l4.526 2.109zm0 11.507v6.755l-4.526 2.263V184.14l4.526 2.295zm0 11.864v6.364l-4.526 2.263v-10.673l4.526 2.046zm0 6.927v4.15l-4.208-2.047 4.208-2.103zm.505-.252l1.483-.741v6.11l-1.483-.722v-4.647zm0-.565v-5.883l1.483.671v4.471l-1.483.741zm1.987-4.983L75 201.32l-4.19 2.096v-3.99zm0-.554v-6.364l4.526-2.263v10.673l-4.526-2.046zm4.527-103.859l-4.526-2.293v-6.657l4.526-2.201v11.151zm-5.03-2.55l-1.484-.752v-4.684l1.483-.721v6.157zm-1.989-1.007l-4.211-2.134 4.211-2.048v4.182zm0 .565v6.706l-4.526 2.232V89.726l4.526 2.295zm-4.526 115.715l4.526 2.202v6.706l-4.526 2.325v-11.233zm4.526 9.476v1.919h-3.735l3.735-1.919zm.505-.26l1.483-.761v2.94h-1.483v-2.179zm0-.566v-6.203l1.483.722v4.719l-1.483.762zm1.987-5.236l4.214 2.05-4.214 2.165v-4.215zm0-.561v-6.61l4.526-2.263v11.073l-4.526-2.2zM75.337 60.46V83.3L70.811 85.5v-.55a.252.252 0 00-.503 0v.796l-1.483.721v-1.516a.252.252 0 00-.504 0v1.76l-4.526 2.202V60.46h11.542zM70.81 219.131v-3.2l4.526-2.326v5.524H70.81v.002zM199.472 48.41h-94.414a.252.252 0 010-.503h94.414a.252.252 0 110 .504z"
                  fill="#436FFD"/>
            <path d="M225.811 60.262l.003-.023.003-.027v-.005l-.002-.019a.107.107 0 00-.003-.026c-.001-.009-.004-.017-.006-.024-.002-.008-.005-.014-.006-.022-.003-.007-.008-.015-.011-.024-.003-.006-.006-.014-.011-.02a.084.084 0 00-.015-.02l-.015-.019a.192.192 0 00-.019-.017c-.006-.004-.01-.01-.018-.015-.008-.006-.017-.01-.026-.015l-.014-.008-10.905-5.034-15.194-7.016a.251.251 0 00-.33.115l-2.479 4.893h-6.706l-2.412-4.89a.254.254 0 00-.226-.14h-.001a.251.251 0 00-.226.142l-2.343 4.888h-6.609l-2.479-4.893a.25.25 0 00-.229-.138.25.25 0 00-.224.146l-2.275 4.885h-6.315l-2.343-4.888a.25.25 0 00-.222-.143h-.005a.256.256 0 00-.224.135l-2.548 4.896h-6.559l-2.246-4.883a.252.252 0 00-.226-.148.247.247 0 00-.23.14l-2.446 4.891h-6.755l-2.479-4.893a.253.253 0 00-.226-.138.25.25 0 00-.224.14l-2.445 4.891h-6.608l-2.378-4.89a.252.252 0 00-.227-.14h-.002a.252.252 0 00-.227.143l-2.309 4.887h-6.657l-2.548-4.896a.256.256 0 00-.229-.135.249.249 0 00-.223.146l-2.275 4.885h-6.265l-2.309-4.887a.253.253 0 00-.324-.126l-17.162 7.02h-.002l-12.299 5.029h-.001c-.012.005-.025.012-.035.018a.257.257 0 00-.061.054l-.016.019a.073.073 0 00-.008.015.323.323 0 00-.03.074v.007a.195.195 0 00-.005.042v.001l.001.014.003.034c.002.01.007.02.01.03l.004.017v.002c.01.022.022.04.036.058l.01.013a.25.25 0 00.048.043l.005.001c.016.01.035.02.055.026l.015.005a.22.22 0 00.065.01h149.976l.015-.002c.011 0 .02-.002.03-.004a.138.138 0 00.021-.006l.025-.007.021-.01.023-.012.017-.014a.177.177 0 00.035-.033l.017-.02.014-.025.009-.015c0-.002 0-.003.002-.003l.009-.028.005-.014zm-137.87-4.834h20.27l2.138 4.526H76.874l11.067-4.526zm20.827 0h3.927l-1.95 4.185-1.977-4.185zm4.484 0h6.608l2.357 4.526h-11.073l2.108-4.526zm.235-.504l.691-1.483h4.649l.772 1.483h-6.112zm6.942.504h4.182l-1.989 4.21-2.193-4.21zm4.74 0h6.412l2.202 4.526H123.03l2.139-4.526zm.239-.504l.702-1.483h4.506l.721 1.483h-5.929zm6.735.504h4.15l-2.105 4.208-2.045-4.208zm4.715 0h6.755l2.294 4.526h-11.313l2.264-4.526zm.252-.504l.741-1.483h4.755l.752 1.483h-6.248zm7.068.504h4.246l-2.109 4.217-2.137-4.217zm4.811 0h6.413l2.077 4.526h-10.753l2.263-4.526zm.252-.504l.742-1.483h4.506l.68 1.483h-5.928zm6.715.504h4.119l-2.189 4.205-1.93-4.205zm4.687 0h6.706l2.171 4.526h-11.233l2.356-4.526zm.263-.504l.772-1.483h4.719l.711 1.483h-6.202zm7.003.504h3.96l-1.951 4.188-2.009-4.188zm4.516 0h6.511l2.293 4.526h-10.912l2.108-4.526zm.235-.504l.69-1.483h4.577l.752 1.483h-6.019zm6.84.504h4.152l-2.018 4.208-2.134-4.208zm4.711 0h6.51l2.233 4.526h-10.913l2.17-4.526zm.242-.504l.711-1.483h4.576l.731 1.483h-6.018zm6.83.504h4.215l-2.136 4.214-2.079-4.214zm4.781 0h18.549l9.804 4.526H193.77l2.294-4.526zm3.517-6.94l13.939 6.436h-17.2l3.261-6.435zm-3.075 4.953l-.752 1.483h-4.719l-.731-1.483h6.202zm-9.085-4.707l2.072 4.202h-4.086l2.014-4.202zm-2.816 4.707l-.711 1.483h-4.648l-.753-1.483h6.112zm-9.062-4.707l2.129 4.202h-4.087l1.958-4.202zm-2.748 4.707l-.691 1.483h-4.436l-.71-1.483h5.837zm-8.661-4.72l2.021 4.215h-4.214l2.193-4.214zm-3.024 4.72l-.772 1.483h-4.612l-.68-1.483h6.064zm-8.777-4.7l1.925 4.195h-4.022l2.097-4.196zm-2.914 4.7l-.741 1.483h-4.755l-.752-1.483h6.248zm-9.207-4.722l2.137 4.217h-4.246l2.109-4.217zm-2.926 4.722l-.741 1.483h-4.649l-.721-1.483h6.111zm-8.956-4.7l2.04 4.195h-4.022l1.982-4.196zm-2.779 4.7l-.702 1.483h-4.684l-.772-1.483h6.158zm-9.179-4.713l2.191 4.208h-4.15l1.959-4.208zm-2.751 4.713l-.691 1.483h-4.4l-.702-1.483h5.793zm-5.648 1.483H89.175l15.752-6.442 3.046 6.442zM78.695 79.61H60.434v5.34h18.261v-5.34z"
                  fill="#436FFD"/>
            <path d="M214.667 60.46a.252.252 0 01-.252-.251v-5.033a.252.252 0 01.504 0v5.031c0 .14-.112.254-.252.254zM87.89 60.46a.252.252 0 01-.251-.251v-5.033a.252.252 0 01.503 0v5.031c0 .14-.112.254-.251.254zM63.785 59.978l-18.736-8.651-.013-.015-.018-.016-.018-.015c-.007-.005-.014-.008-.022-.012a.144.144 0 00-.021-.011l-.025-.008-.023-.007-.023-.004-.026-.002h-.005l-.018.001a.129.129 0 00-.026.003l-.025.006-.021.006a.14.14 0 00-.026.013l-.016.007L30.58 60.03a.25.25 0 00-.093.323 2.311 2.311 0 00-1.018 1.916v119.853h.505V62.269a1.81 1.81 0 011.808-1.809h12.824v121.664h.505V60.46h18.425c.026 0 .05-.005.073-.012a.246.246 0 00.303-.134.255.255 0 00-.126-.336zM45.109 51.91l6.133 2.831h-6.133v-2.83zm17.423 8.045h-9.89v-4.566l9.89 4.566zm-30.752 0c-.045 0-.088.005-.13.006l12.954-8.02v8.014H31.78zm13.329-4.709h7.028v4.709h-7.028v-4.709z"
                  fill="#436FFD"/>
            <path d="M45.11 210.111l3.352 9.525H45.11v-9.525z" fill="#262626"/>
            <path d="M75.83 60.135L63.772 20.429a.252.252 0 00-.493.074v39.705l.002.013.003.027.005.023c.001.008.004.016.007.025l.01.023c.003.008.007.014.012.021l.014.02.015.02c.006.006.01.012.017.017l.018.016c.008.004.014.01.022.015a.048.048 0 01.01.008l.008.003c.012.006.025.01.039.013l.015.005c.017.003.032.006.05.006h.007a.267.267 0 00.118-.03c.004-.004.009-.005.014-.008a.361.361 0 00.047-.037l.006-.008a.202.202 0 00.031-.043l.005-.007 7.352-14.006 4.24 13.961a.254.254 0 00.315.169.258.258 0 00.169-.32zm-12.046-.95v-17.95l7.056 4.51-7.056 13.44zm0-18.55V22.202l6.947 22.876-6.947-4.441zM63.287 219.636l-3.357-9.537h3.357v9.537z"
                  fill="#436FFD"/>
            <path d="M172.664 97.164h-28.847v.505h28.847v-.505z" fill="#F7F7FA"/>
            <path d="M78.695 79.61H60.434v.505h18.261v-.506z" fill="#41414B"/>
            <path d="M45.107 182.123H24.79v37.513h20.317v-37.513z" fill="#DDE7FF"/>
            <path d="M45.107 186.779H24.79v.768h20.317v-.768zM45.107 191.437H24.79v.768h20.317v-.768zM45.107 196.095H24.79v.768h20.317v-.768zM45.107 200.753H24.79v.767h20.317v-.767zM45.107 205.411H24.79v.767h20.317v-.767zM45.107 210.068H24.79v.768h20.317v-.768zM45.107 214.726H24.79v.768h20.317v-.768zM66.993 59.948v19.663h12.678a2.593 2.593 0 002.593-2.593V62.541a2.593 2.593 0 00-2.593-2.593H66.993z"
                  fill="#436FFD"/>
            <path d="M82.263 63.953H70.56v12.034h11.704V63.953z" fill="#41414B"/>
            <path d="M82.263 77.018V62.541a2.593 2.593 0 00-2.593-2.593h-5.043v19.663h5.043a2.595 2.595 0 002.593-2.593z"
                  fill="#436FFD"/>
            <path d="M82.263 63.953h-7.635v12.034h7.635V63.953z" fill="#DDE7FF"/>
            <path d="M63.158 20.954a1.778 1.778 0 10-2.514-2.515 1.778 1.778 0 002.514 2.515zM31.397 63.664a1.778 1.778 0 100-3.555 1.778 1.778 0 000 3.555z"
                  fill="#436FFD"/>
            <path d="M154.249 210.253v.011c-1.836.116-3.5 3.306-3.5 7.237 0 3.93 1.664 7.12 3.5 7.237v.01h60.877v-14.494h-60.877v-.001z"
                  fill="#262626"/>
            <path d="M218.523 217.501c0-4.003-1.521-7.248-3.397-7.248s-3.604 3.245-3.604 7.248c0 4.002 1.728 7.247 3.604 7.247 1.876 0 3.397-3.245 3.397-7.247z"
                  fill="#262626"/>
            <path d="M215.125 224.09c1.706 0 3.089-2.95 3.089-6.589 0-3.639-1.383-6.589-3.089-6.589s-3.089 2.95-3.089 6.589c0 3.639 1.383 6.589 3.089 6.589z"
                  fill="#113A53"/>
            <path d="M145.704 210.253l-9.738.011c-1.836.116-3.5 3.306-3.5 7.237 0 3.93 1.664 7.12 3.5 7.237v.01h70.614v-14.494h-60.876v-.001z"
                  fill="#436FFD"/>
            <path d="M132.679 219.868c.502 2.769 1.839 4.776 3.287 4.868v.011h70.614v-4.879h-73.901z" fill="#262626"/>
            <path d="M209.978 217.501c0-4.003-1.521-7.248-3.397-7.248s-3.603 3.245-3.603 7.248c0 4.002 1.727 7.247 3.603 7.247 1.876 0 3.397-3.245 3.397-7.247z"
                  fill="#262626"/>
            <path d="M206.58 224.09c1.706 0 3.089-2.95 3.089-6.589 0-3.639-1.383-6.589-3.089-6.589s-3.089 2.95-3.089 6.589c0 3.639 1.383 6.589 3.089 6.589z"
                  fill="#113A53"/>
            <path d="M157.88 195.759v.01c-1.836.117-3.5 3.307-3.5 7.237 0 3.931 1.664 7.121 3.5 7.237v.011h51.685V195.76H157.88v-.001z"
                  fill="#436FFD"/>
            <path d="M154.593 205.374c.502 2.769 1.839 4.776 3.287 4.868v.011h51.685v-4.879h-54.972z" fill="#262626"/>
            <path d="M183.858 195.759h-1.145c-1.49 1.053-2.624 3.99-2.624 7.247 0 1.551.253 3.048.732 4.331a.206.206 0 00.266.12.207.207 0 00.121-.266c-.462-1.237-.706-2.685-.706-4.186-.002-3.766 1.593-7.196 3.356-7.246z"
                  fill="#262626"/>
            <path d="M209.566 196.01H157.88a.251.251 0 110-.503h51.686a.252.252 0 110 .503z" fill="#fff"/>
            <path d="M212.964 203.005c0-4.002-1.522-7.248-3.398-7.248-1.876 0-3.603 3.246-3.603 7.248 0 4.002 1.727 7.248 3.603 7.248 1.876 0 3.398-3.246 3.398-7.248z"
                  fill="#262626"/>
            <path d="M209.566 209.594c1.706 0 3.089-2.95 3.089-6.589 0-3.639-1.383-6.589-3.089-6.589s-3.088 2.95-3.088 6.589c0 3.639 1.382 6.589 3.088 6.589z"
                  fill="#113A53"/>
            <path d="M183.233 222.321c-.594-1.28-.97-2.995-.97-4.82 0-3.797 1.62-7.254 3.397-7.254a.206.206 0 000-.412c-2.029 0-3.808 3.582-3.808 7.666 0 1.819.354 3.509.931 4.82h.45zM155.37 222.321c-.594-1.28-.97-2.995-.97-4.82 0-3.797 1.619-7.254 3.397-7.254a.206.206 0 000-.412c-2.029 0-3.809 3.582-3.809 7.666 0 1.819.355 3.509.932 4.82h.45z"
                  fill="#262626"/>
            <path d="M239.618 222.787s-.588-25.035 0-26.158c.588-1.124 14.216-11.749 14.216-11.749l-.892-.677s-14.476 11.437-15.21 9.805c-.564-1.256-6.246-38.516-6.781-40.389l-.803.659c2.853 25.753 5.92 40.068 5.992 40.995.071.927-1.989 29.172-1.989 29.172l5.467-1.658z"
                  fill="#35353C"/>
            <path d="M238.256 174.416l-1.988 18.581.78.084 1.988-18.582-.78-.083z" fill="#35353C"/>
            <path d="M212.855 154.482c-.791 3.498 13.036 4.856 13.76 2.455 1.317-4.371-13.022-5.725-13.76-2.455zM251.826 161.879c1.517 3.678-7.434 10.481-11.59 5.956-4.155-4.525 10.065-9.651 11.59-5.956zM220.602 165.688c-.852.577-2.206 3.256 2.196 4.579 4.401 1.324 6.864 0 6.864 0l-9.06-4.579zM242.899 149.898s2.524-1.179 3.325 0c1.196 1.762-3.016 6.363-3.016 6.363l-3.201.677 2.892-7.04z"
                  fill="#436FFD"/>
            <path d="M226.244 170.143s-4.493-1.231-5.047.8c-.555 2.031 2.771 5.233 2.771 5.233s-5.11-1.969-6.218.8c-1.108 2.771 7.988 10.113 19.717 7.065 11.724-3.045 13.39-13.113 11.066-16.669-1.285-1.965-3.201-1.17-3.201-1.17s7.05-9.219 2.955-12.991c-2.418-2.226-6.772 1.724-6.772 1.724s8.441-12.813 4.31-16.192c-3.048-2.493-7.881 1.601-7.881 1.601s1.508-6.263-3.016-5.941c0 0-.593-9.089-7.111-7.85-5.587 1.063-4.156 16.438-4.156 16.438s-2.194-.376-2.894.616c-1.032 1.461.554 4.37.554 4.37s-4.744-1.225-5.418 1.047c-.924 3.109 5.234 7.635 5.234 7.635s-3.571.646-3.878 3.755c-.353 3.541 8.985 9.729 8.985 9.729zm2.778-35.462c2.591.184 3.38 8.434 0 8.557-3.381.125-2.157-8.711 0-8.557z"
                  fill="#436FFD"/>
            <path d="M237.143 152.929c5.192.879 2.336 14.156 2.336 16.571 4.244-5.046 8.363 1.747 4.067 8.24-9.247 13.973-24.375 3.761-14.406-6.895-3.249-10.036 1.607-11.448 3.376-9.437-.36-3.554.994-9.095 4.627-8.479z"
                  fill="#DDE7FF"/>
            <path d="M230.371 157.769c-2.14 1.385-4.701-5.726-2.71-6.649 2.094-.97 4.747 5.331 2.71 6.649zM232.386 152.135c-.97-.094-.877-4.483.554-4.478 1.634.003.878 4.618-.554 4.478z"
                  fill="#DDE7FF"/>
            <path d="M257.532 175.935s-.78-1.931-2.062-1.351c-1.893.859-1.053 7.521-1.053 7.521l3.115-6.17z"
                  fill="#436FFD"/>
            <path d="M262.386 187.965c-.276 1.219-5.895 3.263-10.749-2.241-3.026-3.431-.062-9.124 2.02-8.339.894.337 1.529 1.966 1.529 1.966s5.393-10.683 8.011-9.163c2.618 1.519-1.802 7.12-1.802 7.12s4.043-.737 4.842 1.583c.996 2.892-7.204 5.722-7.204 5.722s3.839 1.208 3.353 3.352zM214.242 142.982c-.814 1.782 4.003 4.679 5.004 2.605 1-2.076-4.198-4.372-5.004-2.605zM219.655 137.641c-.921.603.595 4.363 1.913 3.833 1.319-.528-.982-4.441-1.913-3.833z"
                  fill="#436FFD"/>
            <path d="M262.528 184.303c-.098 1.096 3.791 2.243 4.194.879.404-1.363-4.092-1.985-4.194-.879z"
                  fill="#DDE7FF"/>
            <path d="M261.779 216.97c5.648-7.829.513-18.355-12.047-7.788l.464 9.637s2.326 7.143 6.916 0c.056-.086.108-.172.158-.258l-.69 3.431 7.823 2.754c5.977-5.721 1.291-10.356-2.624-7.776z"
                  fill="#262626"/>
            <path d="M186.174 209.551c-1.756 2.292 4.206 8.041 6.326 5.391 2.121-2.649-4.587-7.662-6.326-5.391z"
                  fill="#DDE7FF"/>
            <path d="M193.763 208.544c-1.521.562-.585 6.462 1.483 6.136 2.068-.325.053-6.703-1.483-6.136zM239.353 198.198c-1.501-.614-4.799 4.366-3.055 5.525 1.744 1.158 4.57-4.905 3.055-5.525zM232.018 199.885c2.799-.206 2.779-10.516-.76-9.752-3.62.782-2.063 9.959.76 9.752z"
                  fill="#DDE7FF"/>
            <path d="M258.635 221.624c4.042-6.962-1.285-9.557-6.014-6.095 7.468-17.492-6.653-22.272-15.16-6.818-7.752-9.98-18.274-9.98-17.93 7.816-2.897-.074-6.325-12.049-13.954-11.751-7.627.298-8.658 12.892-9.623 13.856-2.586-2.105-9.768-1.717-9.272 6.115H264.403c1.698-2.58-.828-5.467-5.768-3.123zm-17.058-4.808c-3.06-1.017.268-10.075 3.265-9.057 3.583 1.216.654 10.36-3.265 9.057z"
                  fill="#DDE7FF"/>
            <path d="M146.914 224.748s18.114-2.776 27.561-2.298c6.956.351 11.216 1.684 16.879 1.716 1.758.009 14.37-2.814 20.695-3.052 7.624-.286 11.152 1.844 14.299 1.907 4.674.095 7.681-3.817 12.404-3.052 4.195.68 11.95 5.167 12.697 4.777l-104.535.002zM8.3 225H.251a.252.252 0 010-.504h8.046a.252.252 0 01.001.504z"
                  fill="#436FFD"/>
            <path d="M272.689 224.793c1.443-3.019.007-4.956-.98-4.959-2.132-.005-4.073 3.158-3.919 4.959h4.899z"
                  fill="#DDE7FF"/>
            <path d="M259.243 192.525h-1.119v27.38h1.119v-27.38z" fill="#41414B"/>
            <path d="M259.243 200.705h-1.119v1.517h1.119v-1.517zM259.243 212.134h-1.119v1.517h1.119v-1.517z"
                  fill="#262626"/>
            <path d="M259.909 219.868h-2.453v4.879h2.453v-4.879z" fill="#35353C"/>
            <path d="M259.589 192.117h-1.809v.408h1.809v-.408z" fill="#41414B"/>
            <path d="M259.557 188.517h-1.746l-.388 3.234h2.522l-.388-3.234z" fill="#595959"/>
            <path d="M260.161 191.752h-2.951v.365h2.951v-.365z" fill="#41414B"/>
            <path d="M259.556 188.517l.389 3.234h-.992v-3.234h.603z" fill="#595959"/>
            <path d="M225.03 192.525h-1.119v27.38h1.119v-27.38z" fill="#35353C"/>
            <path d="M266.109 204.644h-49.064v7.491h49.064v-7.491zM266.109 193.214h-49.064v7.491h49.064v-7.491z"
                  fill="#fff"/>
            <path d="M225.03 200.705h-1.119v1.517h1.119v-1.517zM225.03 212.134h-1.119v1.517h1.119v-1.517z"
                  fill="#262626"/>
            <path d="M225.696 219.868h-2.453v4.879h2.453v-4.879z" fill="#35353C"/>
            <path d="M225.377 192.117h-1.809v.408h1.809v-.408z" fill="#41414B"/>
            <path d="M225.344 188.517h-1.747l-.387 3.234h2.522l-.388-3.234z" fill="#595959"/>
            <path d="M225.948 191.752h-2.951v.365h2.951v-.365z" fill="#41414B"/>
            <path d="M225.344 188.517l.388 3.234h-.992v-3.234h.604z" fill="#595959"/>
            <path d="M224.992 188.517h-.505v3.233h.505v-3.233zM259.205 188.517h-.505v3.233h.505v-3.233z"
                  fill="#35353C"/>
            <path d="M217.045 193.271v5.129l5.206-5.186h-5.149l-.057.057zM220.071 200.705h5.149l7.518-7.491h-5.149l-7.518 7.491zM230.561 200.705h5.149l7.516-7.491h-5.149l-7.516 7.491zM241.047 200.705h5.149l7.518-7.491h-5.149l-7.518 7.491zM251.534 200.705h5.149l7.518-7.491h-5.149l-7.518 7.491zM266.11 200.705v-4.075l-4.089 4.075h4.089zM221.311 204.644h-4.266v4.25l4.266-4.25zM224.283 212.135l7.516-7.491h-5.149l-7.518 7.491h5.151zM234.769 212.135l7.518-7.491h-5.149l-7.518 7.491h5.149zM245.256 212.135l7.518-7.491h-5.15l-7.518 7.491h5.15zM255.744 212.135l7.518-7.491h-5.149l-7.518 7.491h5.149zM266.109 212.135v-5.01l-5.028 5.01h5.028z"
                  fill="#D64933"/>
            <path d="M151.172 192.525h-1.119v27.38h1.119v-27.38z" fill="#595959"/>
            <path d="M151.172 200.705h-1.119v1.517h1.119v-1.517zM151.172 212.134h-1.119v1.517h1.119v-1.517z"
                  fill="#262626"/>
            <path d="M151.839 219.868h-2.453v4.879h2.453v-4.879z" fill="#595959"/>
            <path d="M151.517 192.117h-1.808v.408h1.808v-.408z" fill="#262626"/>
            <path d="M151.487 188.517h-1.748l-.386 3.234h2.52l-.386-3.234z" fill="#35353C"/>
            <path d="M152.089 191.752h-2.95v.365h2.95v-.365z" fill="#262626"/>
            <path d="M151.486 188.517l.387 3.234h-.992v-3.234h.605zM116.959 192.525h-1.119v27.38h1.119v-27.38z"
                  fill="#35353C"/>
            <path d="M158.039 204.644h-49.064v7.491h49.064v-7.491zM158.039 193.214h-49.064v7.491h49.064v-7.491z"
                  fill="#D64933"/>
            <path d="M116.959 200.705h-1.119v1.517h1.119v-1.517zM116.959 212.134h-1.119v1.517h1.119v-1.517z"
                  fill="#262626"/>
            <path d="M117.626 219.868h-2.453v4.879h2.453v-4.879z" fill="#595959"/>
            <path d="M117.305 192.117h-1.809v.408h1.809v-.408z" fill="#262626"/>
            <path d="M117.274 188.517h-1.747l-.387 3.234h2.521l-.387-3.234z" fill="#35353C"/>
            <path d="M117.876 191.752h-2.95v.365h2.95v-.365z" fill="#262626"/>
            <path d="M117.275 188.517l.387 3.234h-.992v-3.234h.605z" fill="#35353C"/>
            <path d="M116.922 188.517h-.505v3.233h.505v-3.233zM151.135 188.517h-.505v3.233h.505v-3.233z"
                  fill="#D64933"/>
            <path d="M108.975 193.271v5.129l5.206-5.186h-5.15l-.056.057zM112.001 200.705h5.149l7.518-7.491h-5.149l-7.518 7.491zM122.488 200.705h5.149l7.518-7.491h-5.149l-7.518 7.491zM132.975 200.705h5.149l7.518-7.491h-5.149l-7.518 7.491zM143.463 200.705h5.149l7.516-7.491h-5.149l-7.516 7.491zM158.04 200.705v-4.075l-4.089 4.075h4.089zM113.241 204.644h-4.266v4.25l4.266-4.25zM116.211 212.135l7.518-7.491h-5.149l-7.518 7.491h5.149zM126.697 212.135l7.518-7.491h-5.149l-7.518 7.491h5.149zM137.185 212.135l7.518-7.491h-5.149l-7.518 7.491h5.149zM147.674 212.135l7.518-7.491h-5.15l-7.518 7.491h5.15zM158.039 212.135v-5.01l-5.028 5.01h5.028z"
                  fill="#fff"/>
            <path d="M274.592 224.999H10.224a.251.251 0 110-.503h264.37c.139 0 .252.113.252.252a.253.253 0 01-.254.251z"
                  fill="#262626"/>
            <path d="M237.793 222.307a.902.902 0 11-1.804-.002.902.902 0 011.804.002zM217.044 223.204a.43.43 0 100-.86.43.43 0 000 .86zM205.534 223.639a.43.43 0 00.86 0 .43.43 0 00-.86 0z"
                  fill="#F3F6FF"/>
            <path d="M252.774 122.435a6.254 6.254 0 10-.001-12.507 6.254 6.254 0 00.001 12.507z" fill="#D64933"/>
            <path d="M225.996 177.439a2.128 2.128 0 10-.977-4.142 2.128 2.128 0 00.977 4.142zM24.68 53.957a5.033 5.033 0 100-10.065 5.033 5.033 0 000 10.065zM175.33 3.553a1.776 1.776 0 100-3.553 1.776 1.776 0 000 3.553z"
                  fill="#DDE7FF"/>
            <path d="M158.507 29.309a1.231 1.231 0 100-2.462 1.231 1.231 0 000 2.462zM117.796 74.935a1.231 1.231 0 10-1.74-1.741 1.231 1.231 0 001.74 1.741zM110.99 22.805a3.652 3.652 0 10-7.108-1.679 3.652 3.652 0 007.108 1.68zM190.92 107.97a3.653 3.653 0 10-.002-7.306 3.653 3.653 0 00.002 7.306z"
                  fill="#D64933"/>
            <path d="M5.63 147.496a2.863 2.863 0 100-5.726 2.863 2.863 0 000 5.726z" fill="#DDE7FF"/>
        </g>
    </g>
    <defs>
        <clipPath id="clip0">
            <path fill="#fff" d="M0 0h274.846v250.003H0z"/>
        </clipPath>
        <clipPath id="clip1">
            <path fill="#fff" d="M0 0h274.846v225H0z"/>
        </clipPath>
    </defs>
</svg>
