<svg width="273" height="250" fill="none" xmlns="http://www.w3.org/2000/svg">
    <g clip-path="url(#clip0)">
        <circle cx="140" cy="133" r="117" fill="#F3F6FF"/>
        <path d="M120.863 10.726a2.863 2.863 0 100-5.725 2.863 2.863 0 000 5.725zM246.032 67.065a5.033 5.033 0 100-10.065 5.033 5.033 0 000 10.065zM257 161c8.837 0 16-7.163 16-16s-7.163-16-16-16-16 7.163-16 16 7.163 16 16 16z"
              fill="#DDE7FF"/>
        <path d="M29.253 105.506a6.253 6.253 0 100-12.507 6.253 6.253 0 000 12.507zM229.723 51.723c8.786-8.785 8.786-23.03 0-31.815-8.785-8.786-23.03-8.786-31.815 0-8.786 8.785-8.786 23.03 0 31.815 8.785 8.786 23.03 8.786 31.815 0z"
              fill="#D64933"/>
        <path d="M125.455 224.356c-3.001-3.594-8.176-22.717-18.987-22.711-10.535.007-18.75 13.454-21.966 13.126-3.216-.329-6.076-3.899-9.934-3.757-3.243.12-16.76 9.481-10.995 13.343h61.882v-.001z"
              fill="#F7F7FA"/>
        <path d="M79.01 203.68s1.08-45.912 0-47.972c-1.08-2.061-13.907-13.081-13.907-13.081l1.636-1.241s14.383 12.508 15.73 9.516c1.038-2.304 11.464-70.634 12.447-74.068l1.473 1.208c-5.237 47.229-10.865 73.482-10.997 75.182-.13 1.7 3.652 53.499 3.652 53.499L79.01 203.68z"
              fill="#35353C"/>
        <path d="M114.598 55.944s4.821-6.152 8.753-4.255c10.531 5.08-5.042 18.888-5.042 18.888l-6.969 2.507 3.258-17.14z"
              fill="#436FFD"/>
        <path d="M72.326 114.044l-1.34.522 12.467 31.928 1.34-.522-12.467-31.928zM53.306 68.906l34.88 61.934-1.567.877-34.57-62.11 1.257-.701z"
              fill="#35353C"/>
        <path d="M73.765 98.366c-.442-15.134 5.531-28.538 5.591-28.671l1.148.518c-.059.132-5.914 13.282-5.482 28.118l-1.257.035z"
              fill="#D64933"/>
        <path d="M126.755 86.59c-1.414-3.232-5.64-1.091-5.64-1.091s2.818-9.655-1.004-12.377c-5.602-3.99-11.263 3.277-11.263 3.277s11.762-18.523 5.101-26.391c-3.486-4.117-9.875-1.645-9.875-1.645s9.433-12.324 3.353-22.152c-3.15-5.091-8.828-1.89-8.828-1.89S90.515.28 74.674 5.517c-17.2 5.687-5.76 25.429-5.76 25.429s-11.389-4.994-16.558 2.752C43.304 47.26 65.865 68.754 65.865 68.754s-10.922-6.853-16.784-3.432c-16.523 9.64 14.465 34.524 14.465 34.524s-5.81 2.148-5.096 6.836c.98 6.434 18.533 21.963 37.546 17.221 24.018-5.991 33.936-30.056 30.759-37.313zm-66.68-5.889c-2.922 2.032-10.615-7.233-7.397-9.518 3.216-2.285 10.317 7.486 7.396 9.518zm24.341-48.334c-5.233 1.057-8.322-13.499-3.321-14.602 4.749-1.047 9.638 13.327 3.321 14.602z"
              fill="#436FFD"/>
        <path d="M103.628 121.215C82.004 128.272 60.703 95.369 64.89 88.74c3.582-5.671 15.76-1.036 15.76-1.036s-11.166-16.397-6.545-19.926c3.852-2.944 9.238.092 9.238.092s-15.14-20.039-5.358-24.786c12.346-5.99 19.084 21.375 19.084 21.375s3.856-3.356 6.827-1.57c7.442 4.476-3.975 24.224-3.975 24.224s3.89-2.886 5.722.556c1.832 3.444-3.013 9.062-3.013 9.062s7.437-4.634 9.726-.777c2.29 3.86-.389 22.54-8.728 25.261z"
              fill="#DDE7FF"/>
        <path d="M47.658 105.109c1.083 3.427 11.21 1.455 10.022-2.599-1.187-4.054-11.094-.797-10.022 2.599z"
              fill="#436FFD"/>
        <path d="M52.057 96.652c-.513 1.952 6.174 5.213 7.32 2.87 1.146-2.34-6.8-4.84-7.32-2.87zM121.289 41.562c2.922 2.093-2.104 11.098-5.59 8.71-3.485-2.39 2.695-10.786 5.59-8.71zM112.836 38.486c1.833.848.085 8.076-2.451 7.466-2.534-.608.601-8.321 2.451-7.466z"
              fill="#436FFD"/>
        <path d="M93.242 32.045c2.293.714.423 9.272-3.048 8.653-3.472-.618.037-9.59 3.048-8.653zM74.737 63.368c-1.718 2.1-7.37-2.64-5.795-4.44 1.733-1.984 7.603 2.232 5.795 4.44z"
              fill="#DDE7FF"/>
        <path d="M44.814 138.527s-5.195 0-6.212 3.58c-1.328 4.666 11.268 15.813 30.56 8.233l-24.348-11.813zM49.809 154.567c2.159 1.737-3.808 9.873-6.833 7.248-2.279-1.977 3.213-10.162 6.833-7.248zM53.345 153.946c2.034-.172 3.357 7.569 1.14 7.808-2.219.24-3.717-7.592-1.14-7.808z"
              fill="#436FFD"/>
        <path d="M47.952 119.586c-19.082 11.995 12.355 42.935 27.334 26.834 7.912-8.505-12.468-36.179-27.334-26.834zm11.563 15.492c-5 .067-7.346-12.88-1.736-12.877 3.454.003 6.735 12.81 1.736 12.877zM66.537 177.863h35.658l-7.923 29.693h-20.71l-7.025-29.693z"
              fill="#DDE7FF"/>
        <path d="M66.677 184.523l-1.575-6.66h38.528l-1.776 6.66H66.677z" fill="#DDE7FF"/>
        <path d="M100.418 184.523H68.111l.482 2.032 30.172 4.161 1.653-6.193z" fill="#41414B"/>
        <path d="M70.653 177.863l5.809 3.329v-3.329h-5.809z" fill="#113A53"/>
        <path d="M70.53 194.743l3.03 12.814h20.71l3.42-12.814H70.53zM59.087 190.16H55.13v17.281h3.957V190.16zM52.578 217.674a.9.9 0 01-.859-.632l-13.213-42.425h-5.572a.898.898 0 110-1.797h6.234a.9.9 0 01.86.632l13.408 43.057a.9.9 0 01-.858 1.165z"
              fill="#41414B"/>
        <path d="M52.58 217.674a.9.9 0 01-.86-.632l-.837-2.689a.9.9 0 011.717-.535l.837 2.689a.9.9 0 01-.857 1.167z"
              fill="#113A53"/>
        <path d="M51.248 212.652h11.209v2.965H51.248c-.81 0-1.468-.656-1.468-1.466v-.03c0-.811.657-1.469 1.468-1.469z"
              fill="#41414B"/>
        <path d="M73.045 217.893a7.141 7.141 0 00-6.433-7.786 7.143 7.143 0 00-7.792 6.429 7.142 7.142 0 006.434 7.786 7.144 7.144 0 007.791-6.429z"
              fill="#35353C"/>
        <path d="M69.553 218.15a3.737 3.737 0 00-7.233-1.878 3.737 3.737 0 007.233 1.878z" fill="#fff"/>
        <path d="M66.37 217.216a.442.442 0 10-.885 0 .442.442 0 00.885 0z" fill="#5E1212"/>
        <path d="M52.266 214.136a.441.441 0 10-.883-.001.441.441 0 00.883.001z" fill="#fff"/>
        <path d="M114.517 207.441H57.872v2.635h56.645v-2.635z" fill="#35353C"/>
        <path d="M117.394 202.858H53.916v4.583h63.478v-4.583zM117.394 196.509H53.916v4.582h63.478v-4.582zM117.394 190.16H53.916v4.583h63.478v-4.583z"
              fill="#D64933"/>
        <path d="M57.55 193.679a.441.441 0 10-.884-.001.441.441 0 00.883.001zM57.55 191.238a.441.441 0 10-.883 0 .441.441 0 00.882 0zM57.55 200.022a.441.441 0 10-.884-.001.441.441 0 00.883.001zM57.55 197.581a.441.441 0 10-.884-.001.441.441 0 00.883.001zM57.55 206.371a.442.442 0 10-.885 0 .442.442 0 00.884 0zM57.55 203.93a.442.442 0 10-.885 0 .442.442 0 00.884 0z"
              fill="#5E1212"/>
        <path d="M59.087 194.743H55.13v.682h3.957v-.682zM59.087 201.092H55.13v.682h3.957v-.682z" fill="#35353C"/>
        <path d="M37.103 175.066h-5.754a1.348 1.348 0 110-2.694h5.756a1.347 1.347 0 11-.002 2.694z" fill="#41414B"/>
        <path d="M156.741 40.04L87.402 94.16v130.201h138.675v-130.2l-69.336-54.123z" fill="#DDE7FF"/>
        <path d="M202.079 67.927L156.71 35.854l-45.37 32.073v156.435h90.739V67.927z" fill="#fff"/>
        <path d="M163.175 48.279l62.902 49.098V94.16L156.741 40.04 87.402 94.161v13.262l75.773-59.144z" fill="#35353C"/>
        <path d="M111.34 88.739l51.836-40.46 38.903 30.365v-3.216L156.742 40.04 111.34 75.48v13.26zM226.076 90.102H87.401v.575h138.675v-.575zM226.076 103.33H87.401v.575h138.675v-.575z"
              fill="#35353C"/>
        <path d="M226.076 116.556H87.401v.575h138.675v-.575zM226.076 129.783H87.401v.575h138.675v-.575zM226.076 143.01H87.401v.575h138.675v-.575zM226.076 156.24H87.401v.575h138.675v-.575zM226.076 169.466H87.401v.575h138.675v-.575zM226.076 182.693H87.401v.575h138.675v-.575zM226.076 195.922H87.401v.575h138.675v-.575zM226.076 209.15H87.401v.575h138.675v-.575z"
              fill="#436FFD"/>
        <path d="M167.766 50.995h-20.259a.287.287 0 110-.574h20.259a.287.287 0 110 .574zM186.168 64.222h-52.239a.286.286 0 110-.573h52.239a.287.287 0 110 .573zM201.545 77.449h-85.598a.287.287 0 010-.574h85.598a.287.287 0 010 .574zM202.076 90.102h-90.739v.575h90.739v-.575zM202.076 103.33h-90.739v.575h90.739v-.575z"
              fill="#35353C"/>
        <path d="M202.076 116.557h-90.739v.575h90.739v-.575zM202.076 129.785h-90.739v.575h90.739v-.575zM202.076 143.011h-90.739v.575h90.739v-.575zM202.076 156.24h-90.739v.575h90.739v-.575zM202.076 169.467h-90.739v.575h90.739v-.575zM202.076 182.695h-90.739v.575h90.739v-.575zM202.076 195.922h-90.739v.575h90.739v-.575zM202.076 209.15h-90.739v.575h90.739v-.575z"
              fill="#436FFD"/>
        <path d="M130.819 146.694H111.34v46.017h19.479v-46.017z" fill="#436FFD"/>
        <path d="M128.002 147.592h-15.764v43.203h15.764v-43.203z" fill="#113A53"/>
        <path d="M111.34 146.694v45h17.562v-45H111.34zm15.764 1.797v19.616h-13.966v-19.616h13.966zm-13.966 41.406v-19.991h13.966v19.991h-13.966z"
              fill="#F7F7FA"/>
        <path d="M204.057 146.694h-19.479v46.017h19.479v-46.017z" fill="#436FFD"/>
        <path d="M201.242 147.592h-15.764v43.203h15.764v-43.203z" fill="#113A53"/>
        <path d="M184.578 146.694v45h17.562v-45h-17.562zm15.764 1.797v19.616h-13.966v-19.616h13.966zm-13.966 41.406v-19.991h13.966v19.991h-13.966z"
              fill="#F7F7FA"/>
        <path d="M180.61 143.012h-47.741v81.351h47.741v-81.351z" fill="#fff"/>
        <path d="M176.279 147.339h-39.08v77.024h39.08v-77.024z" fill="#DDE7FF"/>
        <path d="M169.356 154.629h-25.232v28.751h25.232v-28.751z" fill="#113A53"/>
        <path d="M169.356 168.106h-11.717v-13.477h-1.798v13.477h-11.717v1.797h11.717v13.477h1.798v-13.477h11.717v-1.797z"
              fill="#DDE7FF"/>
        <path d="M140.437 149.016h35.842v-1.677h-39.08v77.022h3.238v-75.345z" fill="#35353C"/>
        <path d="M182.528 143.012h-1.917v81.351h1.917v-81.351z" fill="#436FFD"/>
        <path d="M171.287 193.432a1.873 1.873 0 10.002-3.746 1.873 1.873 0 00-.002 3.746z" fill="#fff"/>
        <path d="M164.172 195.44h-14.863v1.537h14.863v-1.537z" fill="#113A53"/>
        <path d="M176.281 147.339h-.399l4.322-4.327h.407v.405l-4.33 4.324v-.402zM137.2 147.746l-4.331-4.327v-.407h.407l4.326 4.328h-.402v.406z"
              fill="#436FFD"/>
        <path d="M232.399 99.087L156.74 40.031 81.082 99.087l-5.834-7.461 81.492-63.609 81.491 63.609-5.832 7.461z"
              fill="#fff"/>
        <path d="M156.739 40.328a.287.287 0 01-.287-.287V28.019a.287.287 0 01.574 0v12.022a.288.288 0 01-.287.287z"
              fill="#436FFD"/>
        <path d="M156.739 40.371a.288.288 0 01-.227-.465l5.832-7.46a.288.288 0 01.454.353l-5.832 7.46a.286.286 0 01-.227.112z"
              fill="#436FFD"/>
        <path d="M156.709 40.371a.29.29 0 01-.227-.11l-5.832-7.46a.288.288 0 01.454-.353l5.831 7.46a.286.286 0 01-.226.463zM204.057 146.694h-1.916v46.017h1.916v-46.017z"
              fill="#436FFD"/>
        <path d="M71.855 95.305a3.684 3.684 0 01-3.681-3.68.287.287 0 01.574 0 3.108 3.108 0 003.106 3.105 3.108 3.108 0 003.106-3.104.287.287 0 01.574 0 3.68 3.68 0 01-3.679 3.679zM87.404 112.125H83.25v.575h4.154v-.575zM87.404 138.93H83.25v.575h4.154v-.575z"
              fill="#fff"/>
        <path d="M71.857 96.098c.64 0 1.248-.135 1.798-.377v2.096c0 .57.254 1.103.694 1.463l6.906 5.646a5.463 5.463 0 012.014 4.246v44.392h-3.597V109.17c0-.57-.253-1.104-.694-1.464l-6.906-5.646a5.462 5.462 0 01-2.013-4.245v-2.096c.55.244 1.157.379 1.798.379z"
              fill="#fff"/>
        <path d="M173.59 131.811c-2.898 0-6.259-1.205-6.873-1.435-.696.208-5.016 1.435-10.082 1.435a.287.287 0 010-.574c5.419 0 9.958-1.423 10.003-1.437a.281.281 0 01.192.007c.037.015 3.734 1.432 6.76 1.432 3.037 0 7.51-1.422 7.555-1.437a.323.323 0 01.088-.013h39.06a.287.287 0 110 .573h-39.017c-.498.155-4.687 1.449-7.686 1.449z"
              fill="#436FFD"/>
        <path d="M219.779 131.565a.287.287 0 01-.287-.286v-2.416a.287.287 0 01.574 0v2.416a.286.286 0 01-.287.286z"
              fill="#5E1212"/>
        <path d="M156.61 144.691h.05a2.471 2.471 0 002.472-2.471v-6.897h-4.994v6.897a2.472 2.472 0 002.472 2.471z"
              fill="#41414B"/>
        <path d="M162.162 134.901l-1.536-3.379h-3.418v-2.642a.567.567 0 00-.566-.565h-.012a.566.566 0 00-.565.565v2.642h-3.418l-1.536 3.379h-1.12v.845h1.345l1.401 10.48h2.402v1.114h2.996v-1.114h2.402l1.401-10.48h1.345v-.845h-1.121zm-9.065 10.327l-1.267-9.483h4.517v9.483h-3.25zm7.077 0h-3.252v-9.483h4.518l-1.266 9.483z"
              fill="#D64933"/>
        <path d="M206.931 131.565a.286.286 0 01-.286-.286v-2.416a.286.286 0 11.573 0v2.416a.285.285 0 01-.287.286zM194.08 131.565a.286.286 0 01-.287-.286v-2.416a.287.287 0 01.574 0v2.416a.285.285 0 01-.287.286zM181.229 131.565a.287.287 0 01-.287-.286v-2.416a.287.287 0 01.574 0v2.416a.284.284 0 01-.287.286zM166.727 131.565a.287.287 0 01-.287-.286v-2.416a.287.287 0 01.574 0v2.416a.286.286 0 01-.287.286z"
              fill="#5E1212"/>
        <path d="M173.433 78.903h-33.207v45h33.207v-45zM217.089 223.781a.229.229 0 01-.229-.228c.005-10.909-.193-19.238-.533-22.286a.23.23 0 01.201-.253.23.23 0 01.254.202c.342 3.062.542 11.412.537 22.335a.23.23 0 01-.23.23z"
              fill="#35353C"/>
        <path d="M94.725 205.256h22.797l-5.067 18.983h-13.24l-4.49-18.983z" fill="#436FFD"/>
        <path d="M97.721 187.287c3.043-.85 9.39 16.886 6.921 17.729-2.105.719-10.062-16.852-6.921-17.729zM108.143 191.119c.709 1.516 17.323-4.254 14.839-7.847-1.885-2.725-15.813 5.766-14.839 7.847z"
              fill="#436FFD"/>
        <path d="M104.643 207.766l-.027-.001a.287.287 0 01-.26-.312l1.087-12.037a.281.281 0 01.035-.113l2.413-4.323a.28.28 0 01.136-.123c.121-.052 11.986-5.179 13.694-6.944a.289.289 0 01.414.4c-1.727 1.783-12.598 6.517-13.789 7.032l-2.335 4.184-1.083 11.977a.285.285 0 01-.285.26z"
              fill="#41414B"/>
        <path d="M104.879 205.142a.29.29 0 01-.232-.116c-1.111-1.507-6.33-15.196-6.44-16.086a.288.288 0 11.572-.072c.125.999 5.386 14.531 6.334 15.818a.287.287 0 01-.234.456z"
              fill="#DDE7FF"/>
        <path d="M86.684 185.875c-3.096 3.423 17.083 13.544 18.701 11.999 1.619-1.542-16.184-14.781-18.701-11.999z"
              fill="#41414B"/>
        <path d="M89.892 193.276c2.663-2.457 15.614 13.297 14.475 14.645-1.139 1.347-17.28-12.055-14.475-14.645z"
              fill="#DDE7FF"/>
        <path d="M104.847 206.843c1.276 1.519 17.581-7.578 16.163-10.273-1.418-2.696-18.403 7.608-16.163 10.273zM105.483 200.487c1.223 1.504 14.321-6.971 12.957-9.787-1.365-2.815-14.762 7.565-12.957 9.787z"
              fill="#41414B"/>
        <path d="M94.815 209.512l-1.007-4.256h24.632l-1.137 4.256H94.815z" fill="#436FFD"/>
        <path d="M115.116 214.271l1.258-4.716H95.742l.499 2.114 18.875 2.602zM105.733 195.73a.286.286 0 01-.287-.287l-.002-2.358c-.006-10.179-.011-16.903.299-19.675a.284.284 0 01.318-.254c.159.019.272.16.254.319-.305 2.739-.302 9.451-.295 19.61l.001 2.358a.289.289 0 01-.288.287z"
              fill="#41414B"/>
        <path d="M106.067 174.216c.894-.642-5.394-8.906-7.225-7.398-1.702 1.402 5.315 8.77 7.225 7.398z"
              fill="#DDE7FF"/>
        <path d="M106.155 174.385c.958.875 8.631-5.688 6.75-7.388-1.88-1.7-8.261 6.009-6.75 7.388z" fill="#DDE7FF"/>
        <path d="M98.248 180.032c1.822 1.432 8.835-4.656 7.402-6.199-1.612-1.736-9.907 4.229-7.402 6.199z"
              fill="#DDE7FF"/>
        <path d="M216.51 202.019c-.894-.642 5.393-8.907 7.225-7.398 1.7 1.402-5.315 8.77-7.225 7.398z" fill="#35353C"/>
        <path d="M216.424 202.187c-.957.875-8.631-5.688-6.749-7.388 1.88-1.701 8.26 6.009 6.749 7.388z" fill="#35353C"/>
        <path d="M224.33 207.834c-1.821 1.432-8.834-4.656-7.401-6.2 1.61-1.735 9.907 4.229 7.401 6.2z" fill="#35353C"/>
        <path d="M200.15 69.215h-16.693v45.001h16.693v-45z" fill="#DDE7FF"/>
        <path d="M178.932 69.516h-31.41v43.204h31.41V69.516z" fill="#113A53"/>
        <path d="M146.623 68.618V113.62h33.208v-45h-33.208zm31.41 21.602h-13.908V70.415h13.908V90.22zm-29.612-19.805h13.906V90.22h-13.906V70.415zm0 21.602h13.906v19.805h-13.906V92.017zm15.706 19.805V92.017h13.907v19.805h-13.907z"
              fill="#fff"/>
        <path d="M143.697 68.618h-12.312v45.001h12.312v-45z" fill="#DDE7FF"/>
        <path d="M143.697 69.228v-.61h-.327l-5.541 10.342V68.618h-.576V78.96l-5.543-10.342h-.325v.61l5.868 10.95v9.795l-5.868-10.95v1.217l5.675 10.592h-5.675v.575h5.675l-5.675 10.59v1.218l5.868-10.95v9.795l-5.868 10.95v.609h.325l5.543-10.342v10.342h.576v-10.342l5.541 10.342h.327v-.609l-5.868-10.95v-9.795l5.868 10.95v-1.218l-5.676-10.59h5.676v-.575h-5.676l5.676-10.592v-1.217l-5.868 10.95v-9.795l5.868-10.95z"
              fill="#436FFD"/>
        <path d="M184.282 104.347h-2.231v-6.203a.286.286 0 10-.574 0v1.237h-2.23v4.986h2.23v5.818a.287.287 0 00.574 0v-.851h2.231v-4.987zM147.537 79.554h-2.23v-5.9a.287.287 0 00-.574 0v.914h-1.57v4.986h1.57v6.14a.287.287 0 10.574 0V84.54h2.23v-4.986zM147.537 99.381h-2.23v-1.033a.287.287 0 00-.574 0v6.019h-1.57v4.986h1.57v1.033a.287.287 0 00.574 0v-6.019h2.23v-4.986zM184.282 74.547h-2.231v-.893a.286.286 0 10-.574 0v5.9h-2.23v4.985h2.23v1.153a.287.287 0 00.574 0v-6.159h2.231v-4.986z"
              fill="#113A53"/>
        <path d="M131.385 68.618h-1.482v45.001h1.482v-45z" fill="#35353C"/>
        <path d="M156.717 72.004c.362-.178 1.101-1.073 1.248-1.587l-1.682.002.434 1.585z" fill="#D64933"/>
        <path d="M148.024 38.678l-5.957 1.187c-.01.163-.217 4.324.172 8.966l7.815-2.008.008-.22.044-.777.058-.772.075-.765c.057-.508.119-1.013.197-1.508.077-.497.188-1.09.188-1.09l.147-.117.437-.34-3.184-2.556z"
              fill="#fff"/>
        <path d="M200.152 69.705v-.49h-.355l-7.704 10.602V69.215h-.575v10.602l-7.704-10.602h-.357v.49l8.061 11.09V90.83l-8.061-11.091v.978l7.784 10.712h-7.784v.575h7.784l-7.784 10.71v.978l8.061-11.091v10.035l-8.061 11.09v.49h.357l7.704-10.602v10.602h.575v-10.602l7.704 10.602h.355v-.49l-8.059-11.09V92.601l8.059 11.091v-.978l-7.782-10.71h7.782v-.575h-7.782l7.782-10.712v-.978l-8.059 11.091V80.795l8.059-11.09z"
              fill="#436FFD"/>
        <path d="M150.55 224.503c-2.838 0-5.775-.01-8.738-.037-22.834-.202-36.047-1.189-39.272-2.937a.898.898 0 11.858-1.58c1.668.903 8.879 2.458 38.431 2.718 16.885.149 33.066-.201 33.227-.205a.898.898 0 11.041 1.797c-.137.005-11.189.244-24.547.244z"
              fill="#35353C"/>
        <path d="M208.119 210.287c-.227-.333-.417-1.528-.292-2.048l1.436.886-1.144 1.162z" fill="#D64933"/>
        <path d="M173.036 224.269c-7.015 0-13.212-2.609-17.336-7.39-3.902-4.522-5.283-10.328-3.79-15.927a16.774 16.774 0 015.65-8.752c2.541-2.065 5.705-3.395 8.915-3.747 2.791-.305 5.505.125 7.854 1.244 2.54 1.211 4.594 3.218 5.938 5.807 2.699 5.193 2.296 10.23-1.107 13.821-2.99 3.154-7.784 4.382-11.154 2.857-3.673-1.66-4.964-4.778-4.949-7.14.015-2.27 1.133-4.164 2.916-4.942 1.488-.648 2.934-.552 3.968.267.843.666 1.291 1.747 1.12 2.69-.13.717-.593 1.252-1.266 1.467a.897.897 0 11-.549-1.71l.021-.009c.045-.053.077-.4-.198-.771-.222-.3-.896-.931-2.379-.284-1.123.49-1.827 1.757-1.837 3.307-.011 1.799 1.005 4.184 3.892 5.491 2.706 1.224 6.619.167 9.107-2.457 2.844-3 3.141-7.284.817-11.757-2.282-4.389-6.768-6.666-12.001-6.092-5.149.565-11.173 4.239-13.023 11.175-1.338 5.016-.093 10.225 3.415 14.29 4.369 5.065 11.325 7.465 19.082 6.59 7.813-.884 14.548-5.356 20.488-9.302 4.969-3.3 9.262-6.151 13.148-6.151a.899.899 0 110 1.797c-3.343 0-7.425 2.712-12.152 5.851-6.111 4.059-13.037 8.658-21.282 9.59a29.772 29.772 0 01-3.308.187z"
              fill="#35353C"/>
        <path d="M163.24 218.105c.961-.522 4.309 2.99 4.309 2.99s-.698-1.083.136-1.425c.833-.342 1.465 1.512 1.465 1.512s.954-3.537 2.546-2.656c.625.347-.964 2.831.405 3.963 0 0 .556-1.972 1.56-1.942.982.028.367.608 1.616 1.633 0 0 1.12-1.753 2.294-1.857.704-.061.757 1.151 1.62 1.026.862-.125.252-1.612 1.187-2.344.563-.439 1.894 1.158 1.894 1.158.692-.195-2.347-2.943-1.171-3.365 1.176-.422 4.102 1.407 4.102 1.407s1.329-3.639 2.318-3.719c.99-.082 1.765.875 2.149.863 0 0 .704-3.264 1.865-3.39 1.161-.127.831 2.438.831 2.438s3.448-5.36 5.319-5.134c1.442.175 1.053 3.334 1.053 3.334-4.993 4.836-23.311 16.168-35.425 8.496 0 0-1.034-2.467-.073-2.988zM157.108 201.539c-.756-1.619-2.823 3.419-4.533 2.772l1.338 9.466s3.628.211 3.663-.865c.037-1.073-1.453-2.81-3.947-3.9-.13-.415 2.976.748 2.903-.13-.073-.879-2.162-1.312-2.162-1.312s3.492-4.413 2.738-6.031zM173.709 190.822c-4.607-2.637-11.095-2.024-15.875 2.332 0 0-.836 2.645.206 3.094 1.043.448 3.836-4.474 3.836-4.474s-.618 1.185.275 1.458c.892.274 1.369-1.7 1.369-1.7s1.321 3.566 2.883 2.502c.614-.418-1.263-2.834.043-4.132 0 0 .759 1.983 1.795 1.858 1.013-.123.322-.663 1.517-1.84 0 0 1.01 3.214 2.233 3.209.734-.003 1.675-1.2 1.718-1.189v-1.118zM201.794 210.287s-2.159-2.126-.599-3.144c1.558-1.018 3.957 1.552 3.957 1.552l-3.358 1.592zM129.894 222.513a.39.39 0 01-.267.105s.352-2.528-.584-2.52c-.935.008-3.786 2.284-4.912 2.074-1.126-.21 1.231-2.949.323-3.141-.907-.193-5.259 2.917-5.259 2.917-1.12-1.807.418-3.629-.134-4.039-.552-.408-3.945 3.077-3.945 3.077-1.221-1.99 5.01-5.47 2.704-6.102-2.305-.632-7.406 4.491-7.406 4.491s-1.021-2.496-2.201-2.423c-1.179.074 1.026 3.686.449 3.603-2.797-2.947-4.597-4.388-6.012-4.144-1.416.243-.559 4.597-.559 4.597 6.256 1.904 17.909 2.619 27.807 2.862v-1.357h-.004zM154.005 220.251c-1.044-.29-5.773 2.844-5.773 2.844-.734-1.088 3.995-3.13 2.498-3.464-1.496-.333-5.451 2.702-5.451 2.702-.482-.148 1.93-4.689.666-5.007-1.265-.318-4.391 5.011-4.391 5.011s-.175-4.093-1.815-4.066c-1.48.025-2.119 3.586-2.923 4.244v1.357c9.457.233 17.309.037 17.309.037s.924-3.368-.12-3.658z"
              fill="#35353C"/>
        <path d="M264.62 224.504H.252a.252.252 0 010-.504H264.62a.252.252 0 11-.001.504z" fill="#262626"/>
    </g>
    <defs>
        <clipPath id="clip0">
            <path fill="#fff" d="M0 0h273v250H0z"/>
        </clipPath>
    </defs>
</svg>
