<svg width="285" height="250" fill="none" xmlns="http://www.w3.org/2000/svg">
    <g clip-path="url(#clip0)">
        <circle cx="156" cy="133" r="117" fill="#F3F6FF"/>
        <path d="M170.863 5.726a2.863 2.863 0 100-5.725 2.863 2.863 0 000 5.725zM274.406 217.922c4.234-6.864-1.347-9.422-6.3-6.009 7.823-17.245-6.971-21.956-15.882-6.721-8.121-9.84-16.557-3.88-19.699-.001-3.035-.073-5.711-4.172-13.703-3.879-7.99.294-9.071 12.709-10.081 13.66-2.71-2.075-10.234-1.692-9.714 6.028h81.421c1.779-2.543-.867-5.39-6.042-3.078z"
              fill="#DDE7FF"/>
        <path d="M259.657 222.906c2.788-4.667-.887-6.406-4.149-4.085.992-5.821-7.008-9.321-10.459-4.571-5.348-6.691-10.903-2.638-12.972 0-1.999-.05-3.761-2.837-9.024-2.638-5.262.2-5.974 8.642-6.639 9.288-1.785-1.411-6.739-1.15-6.397 4.1h53.619c1.171-1.729-.571-3.665-3.979-2.094z"
              fill="#436FFD"/>
        <path d="M129.451 27h-16.586v4.853h16.586V27zM158.753 27h-16.585v4.853h16.585V27zM194.94 27h-16.586v4.853h16.586V27z"
              fill="#DDE7FF"/>
        <path d="M210.936 33.886H104.999v182.588h105.937V33.886z" fill="#fff"/>
        <path d="M215 216.474H101V225h114v-8.526z" fill="#35353C"/>
        <path d="M188.253 222.18h-60.572V225h60.572v-2.82zM183.796 219.359h-51.592v2.821h51.592v-2.821zM178.223 216.474H137.71v2.82h40.513v-2.82z"
              fill="#fff"/>
        <path d="M178.223 218.769H137.71v.591h40.513v-.591zM183.796 221.59h-51.592v.59h51.592v-.59z" fill="#41414B"/>
        <path d="M211.002 157.185h-44.315v29.186h44.315v-29.186z" fill="#D64933"/>
        <path d="M167.67 157.185h-.983v29.186h.983v-29.186z" fill="#41414B"/>
        <path d="M163.343 195.421h-10.751v21.053h10.751v-21.053z" fill="#35353C"/>
        <path d="M195.399 164.072h-18.487v22.299h18.487v-22.299z" fill="#fff"/>
        <path d="M194.416 165.318h-7.735v19.938h7.735v-19.938zM185.567 165.318h-7.736v19.938h7.736v-19.938z"
              fill="#35353C"/>
        <path d="M211.001 190.634l-106.002 1.967v-2.426h106.002v.459zM166.686 159.546l-61.687 1.968v-2.427h61.687v.459zM211.002 160.005l-44.315 2.624v-3.542h44.315v.918z"
              fill="#41414B"/>
        <path d="M172.98 181.845h-1.705v4.526h1.705v-4.526zM192.384 181.845h-1.704v4.526h1.704v-4.526zM211.854 181.845h-1.705v4.526h1.705v-4.526zM202.152 181.845h-1.705v4.526h1.705v-4.526zM182.682 181.845h-1.704v4.526h1.704v-4.526z"
              fill="#fff"/>
        <path d="M172.98 181.845h-1.705v.919h1.705v-.919zM192.384 181.845h-1.704v.919h1.704v-.919zM211.854 181.845h-1.705v.919h1.705v-.919zM202.152 181.845h-1.705v.919h1.705v-.919zM182.682 181.845h-1.704v.919h1.704v-.919z"
              fill="#41414B"/>
        <path d="M213.755 186.371H102.312v3.804h111.443v-3.804z" fill="#436FFD"/>
        <path d="M213.689 180.993h-47.002v.852h47.002v-.852z" fill="#fff"/>
        <path d="M144.462 190.175h-5.244v26.365h5.244v-26.365zM176.847 190.175h-5.244v26.365h5.244v-26.365z"
              fill="#D64933"/>
        <path d="M144.462 190.175h-5.244v1.246h5.244v-1.246zM176.847 190.175h-5.244v1.246h5.244v-1.246z"
              fill="#41414B"/>
        <path d="M115.291 201.062h-3.277v11.608h3.277v-11.608zM115.291 196.077h-3.277v3.935h3.277v-3.935zM126.895 201.062h-10.948v11.608h10.948v-11.608zM126.895 196.077h-10.948v3.935h10.948v-3.935zM130.893 201.062h-3.278v11.608h3.278v-11.608zM130.893 196.077h-3.278v3.935h3.278v-3.935z"
              fill="#35353C"/>
        <path d="M111.161 195.421h-.524v18.823h21.043v-.524h-20.519v-18.299z" fill="#41414B"/>
        <path d="M115.291 170.171h-3.277v11.609h3.277v-11.609zM115.291 165.187h-3.277v3.935h3.277v-3.935zM126.895 170.171h-10.948v11.609h10.948v-11.609zM126.895 165.187h-10.948v3.935h10.948v-3.935zM130.893 170.171h-3.278v11.609h3.278v-11.609zM130.893 165.187h-3.278v3.935h3.278v-3.935z"
              fill="#35353C"/>
        <path d="M111.161 164.531h-.524v18.823h21.043v-.591h-20.519v-18.232z" fill="#41414B"/>
        <path d="M211.002 126.099h-44.315v29.185h44.315v-29.185z" fill="#D64933"/>
        <path d="M167.67 126.099h-.983v29.185h.983v-29.185z" fill="#41414B"/>
        <path d="M213.755 124.196H102.312V128h111.443v-3.804z" fill="#436FFD"/>
        <path d="M195.399 132.985h-18.487v22.299h18.487v-22.299z" fill="#fff"/>
        <path d="M194.416 134.231h-7.735v19.938h7.735v-19.938zM185.567 134.231h-7.736v19.938h7.736v-19.938z"
              fill="#35353C"/>
        <path d="M166.686 128.459l-61.687 1.968V128h61.687v.459zM211.002 128.853l-44.315 2.689V128h44.315v.853z"
              fill="#41414B"/>
        <path d="M172.98 150.758h-1.705v4.525h1.705v-4.525zM192.384 150.758h-1.704v4.525h1.704v-4.525zM211.854 150.758h-1.705v4.525h1.705v-4.525zM202.152 150.758h-1.705v4.525h1.705v-4.525zM182.682 150.758h-1.704v4.525h1.704v-4.525z"
              fill="#fff"/>
        <path d="M172.98 150.758h-1.705v.918h1.705v-.918zM192.384 150.758h-1.704v.918h1.704v-.918zM211.854 150.758h-1.705v.918h1.705v-.918zM202.152 150.758h-1.705v.918h1.705v-.918zM182.682 150.758h-1.704v.918h1.704v-.918z"
              fill="#41414B"/>
        <path d="M213.689 149.905h-47.002v.853h47.002v-.853z" fill="#fff"/>
        <path d="M115.291 139.084h-3.277v11.609h3.277v-11.609zM115.291 134.1h-3.277v3.935h3.277V134.1zM126.895 139.084h-10.948v11.609h10.948v-11.609zM126.895 134.1h-10.948v3.935h10.948V134.1zM130.893 139.084h-3.278v11.609h3.278v-11.609zM130.893 134.1h-3.278v3.935h3.278V134.1z"
              fill="#35353C"/>
        <path d="M111.161 133.444h-.524v18.823h21.043v-.591h-20.519v-18.232z" fill="#41414B"/>
        <path d="M211.002 95.011h-44.315v29.185h44.315V95.011z" fill="#D64933"/>
        <path d="M167.67 95.011h-.983v29.185h.983V95.011z" fill="#41414B"/>
        <path d="M213.755 93.11H102.312v3.803h111.443V93.11z" fill="#436FFD"/>
        <path d="M195.399 101.898h-18.487v22.298h18.487v-22.298z" fill="#fff"/>
        <path d="M194.416 103.144h-7.735v19.938h7.735v-19.938zM185.567 103.144h-7.736v19.938h7.736v-19.938z"
              fill="#35353C"/>
        <path d="M166.686 97.372l-61.687 1.968v-2.427h61.687v.46zM211.002 97.766l-44.315 2.689v-3.542h44.315v.853z"
              fill="#41414B"/>
        <path d="M172.98 119.671h-1.705v4.525h1.705v-4.525zM192.384 119.671h-1.704v4.525h1.704v-4.525zM211.854 119.671h-1.705v4.525h1.705v-4.525zM202.152 119.671h-1.705v4.525h1.705v-4.525zM182.682 119.671h-1.704v4.525h1.704v-4.525z"
              fill="#fff"/>
        <path d="M172.98 119.671h-1.705v.918h1.705v-.918zM192.384 119.671h-1.704v.918h1.704v-.918zM211.854 119.671h-1.705v.918h1.705v-.918zM202.152 119.671h-1.705v.918h1.705v-.918zM182.682 119.671h-1.704v.918h1.704v-.918z"
              fill="#41414B"/>
        <path d="M213.689 118.818h-47.002v.853h47.002v-.853z" fill="#fff"/>
        <path d="M115.291 107.997h-3.277v11.608h3.277v-11.608zM115.291 103.012h-3.277v3.936h3.277v-3.936zM126.895 107.997h-10.948v11.608h10.948v-11.608zM126.895 103.012h-10.948v3.936h10.948v-3.936zM130.893 107.997h-3.278v11.608h3.278v-11.608zM130.893 103.012h-3.278v3.936h3.278v-3.936z"
              fill="#35353C"/>
        <path d="M111.161 102.357h-.524v18.822h21.043v-.59h-20.519v-18.232z" fill="#41414B"/>
        <path d="M144.267 170.171h-3.278v11.609h3.278v-11.609zM144.267 165.187h-3.278v3.935h3.278v-3.935zM155.936 170.171h-10.948v11.609h10.948v-11.609zM155.936 165.187h-10.948v3.935h10.948v-3.935zM159.869 170.171h-3.278v11.609h3.278v-11.609zM159.869 165.187h-3.278v3.935h3.278v-3.935z"
              fill="#35353C"/>
        <path d="M140.202 164.531h-.524v18.823h20.977v-.591h-20.453v-18.232z" fill="#41414B"/>
        <path d="M144.267 139.084h-3.278v11.609h3.278v-11.609zM144.267 134.1h-3.278v3.935h3.278V134.1zM155.936 139.084h-10.948v11.609h10.948v-11.609zM155.936 134.1h-10.948v3.935h10.948V134.1zM159.869 139.084h-3.278v11.609h3.278v-11.609zM159.869 134.1h-3.278v3.935h3.278V134.1z"
              fill="#35353C"/>
        <path d="M140.202 133.444h-.524v18.823h20.977v-.591h-20.453v-18.232z" fill="#41414B"/>
        <path d="M144.267 107.997h-3.278v11.608h3.278v-11.608zM144.267 103.012h-3.278v3.936h3.278v-3.936zM155.936 107.997h-10.948v11.608h10.948v-11.608zM155.936 103.012h-10.948v3.936h10.948v-3.936zM159.869 107.997h-3.278v11.608h3.278v-11.608zM159.869 103.012h-3.278v3.936h3.278v-3.936z"
              fill="#35353C"/>
        <path d="M140.202 102.357h-.524v18.822h20.977v-.59h-20.453v-18.232z" fill="#41414B"/>
        <path d="M211.002 63.924h-44.315V93.11h44.315V63.924z" fill="#D64933"/>
        <path d="M167.67 63.924h-.983V93.11h.983V63.924z" fill="#41414B"/>
        <path d="M213.755 62.022H102.312v3.804h111.443v-3.804z" fill="#436FFD"/>
        <path d="M195.399 70.81h-18.487v22.3h18.487v-22.3z" fill="#fff"/>
        <path d="M194.416 72.057h-7.735v19.937h7.735V72.057zM185.567 72.057h-7.736v19.937h7.736V72.057z"
              fill="#35353C"/>
        <path d="M166.686 66.285l-61.687 1.968v-2.427h61.687v.46zM211.002 66.679l-44.315 2.689v-3.542h44.315v.853z"
              fill="#41414B"/>
        <path d="M172.98 88.584h-1.705v4.525h1.705v-4.525zM192.384 88.584h-1.704v4.525h1.704v-4.525zM211.854 88.584h-1.705v4.525h1.705v-4.525zM202.152 88.584h-1.705v4.525h1.705v-4.525zM182.682 88.584h-1.704v4.525h1.704v-4.525z"
              fill="#fff"/>
        <path d="M172.98 88.584h-1.705v.918h1.705v-.918zM192.384 88.584h-1.704v.918h1.704v-.918zM211.854 88.584h-1.705v.918h1.705v-.918zM202.152 88.584h-1.705v.918h1.705v-.918zM182.682 88.584h-1.704v.918h1.704v-.918z"
              fill="#41414B"/>
        <path d="M213.689 87.731h-47.002v.853h47.002v-.853z" fill="#fff"/>
        <path d="M115.291 76.91h-3.277v11.609h3.277V76.91zM115.291 71.925h-3.277v3.936h3.277v-3.936zM126.895 76.91h-10.948v11.609h10.948V76.91zM126.895 71.925h-10.948v3.936h10.948v-3.936zM130.893 76.91h-3.278v11.609h3.278V76.91zM130.893 71.925h-3.278v3.936h3.278v-3.936z"
              fill="#35353C"/>
        <path d="M111.161 71.27h-.524v18.822h21.043v-.59h-20.519V71.27z" fill="#41414B"/>
        <path d="M144.267 76.91h-3.278v11.609h3.278V76.91zM144.267 71.925h-3.278v3.936h3.278v-3.936zM155.936 76.91h-10.948v11.609h10.948V76.91zM155.936 71.925h-10.948v3.936h10.948v-3.936zM159.869 76.91h-3.278v11.609h3.278V76.91zM159.869 71.925h-3.278v3.936h3.278v-3.936z"
              fill="#35353C"/>
        <path d="M140.202 71.27h-.524v18.822h20.977v-.59h-20.453V71.27z" fill="#41414B"/>
        <path d="M211.002 32.837h-44.315v29.185h44.315V32.837z" fill="#D64933"/>
        <path d="M167.67 32.837h-.983v29.185h.983V32.837z" fill="#41414B"/>
        <path d="M213.755 30.935H102.312v3.804h111.443v-3.804z" fill="#436FFD"/>
        <path d="M195.399 39.723h-18.487v22.299h18.487V39.723z" fill="#fff"/>
        <path d="M194.416 40.97h-7.735v19.937h7.735V40.97zM185.567 40.97h-7.736v19.937h7.736V40.97z" fill="#35353C"/>
        <path d="M166.686 35.198l-61.687 1.968v-2.493h61.687v.525zM211.002 35.592l-44.315 2.689v-3.608h44.315v.919z"
              fill="#41414B"/>
        <path d="M172.98 57.431h-1.705v4.526h1.705V57.43zM192.384 57.431h-1.704v4.526h1.704V57.43zM211.854 57.431h-1.705v4.526h1.705V57.43zM202.152 57.431h-1.705v4.526h1.705V57.43zM182.682 57.431h-1.704v4.526h1.704V57.43z"
              fill="#fff"/>
        <path d="M172.98 57.431h-1.705v.918h1.705v-.918zM192.384 57.431h-1.704v.918h1.704v-.918zM211.854 57.431h-1.705v.918h1.705v-.918zM202.152 57.431h-1.705v.918h1.705v-.918zM182.682 57.431h-1.704v.918h1.704v-.918z"
              fill="#41414B"/>
        <path d="M213.689 56.644h-47.002v.853h47.002v-.853z" fill="#fff"/>
        <path d="M115.291 45.757h-3.277v11.609h3.277V45.757zM115.291 40.838h-3.277v3.935h3.277v-3.935zM126.895 45.757h-10.948v11.609h10.948V45.757zM126.895 40.838h-10.948v3.935h10.948v-3.935zM130.893 45.757h-3.278v11.609h3.278V45.757zM130.893 40.838h-3.278v3.935h3.278v-3.935z"
              fill="#35353C"/>
        <path d="M111.161 40.183h-.524v18.822h21.043v-.59h-20.519V40.183z" fill="#41414B"/>
        <path d="M144.267 45.757h-3.278v11.609h3.278V45.757zM144.267 40.838h-3.278v3.935h3.278v-3.935zM155.936 45.757h-10.948v11.609h10.948V45.757zM155.936 40.838h-10.948v3.935h10.948v-3.935zM159.869 45.757h-3.278v11.609h3.278V45.757zM159.869 40.838h-3.278v3.935h3.278v-3.935z"
              fill="#35353C"/>
        <path d="M140.202 40.183h-.524v18.822h20.977v-.59h-20.453V40.183z" fill="#41414B"/>
        <path d="M187.139 201.062h-3.868v11.608h3.868v-11.608zM187.139 196.077h-3.868v3.935h3.868v-3.935zM200.84 201.062h-12.914v11.608h12.914v-11.608zM200.84 196.077h-12.914v3.935h12.914v-3.935zM205.56 201.062h-3.868v11.608h3.868v-11.608zM205.56 196.077h-3.868v3.935h3.868v-3.935z"
              fill="#35353C"/>
        <path d="M182.288 195.421h-.59v18.823h24.78v-.524h-24.19v-18.299zM151.805 195.421h-.327v21.053h.327v-21.053zM164.457 195.421h-.328v21.053h.328v-21.053z"
              fill="#41414B"/>
        <path d="M165.506 193.847h-15.012v1.574h15.012v-1.574z" fill="#D64933"/>
        <path d="M213.755 155.284H102.312v3.804h111.443v-3.804z" fill="#436FFD"/>
        <path d="M114.055 225.101H8s11.625-17.267 18.559-17.403c3.673-.072 8.158 2.992 9.518 2.856 1.36-.136 26.761-28.552 32.905-28.554 18.492-.006 45.073 43.101 45.073 43.101z"
              fill="#F7F7FA"/>
        <path d="M29.144 220.415c-7.683-1.02-7.472-9.194-4.79-11.914.772-.322 1.513-.513 2.207-.527 3.672-.072 8.157 2.992 9.518 2.856-.002 0-4.42 5.031-6.935 9.585z"
              fill="#DDE7FF"/>
        <path d="M46.947 223.409s-.604-25.715 0-26.87c.604-1.154 7.783-7.326 7.783-7.326l-.916-.696s-8.05 7.007-8.804 5.33c-.58-1.29-6.416-39.562-6.965-41.486l-.825.676c2.93 26.454 6.08 41.157 6.155 42.11.074.952-2.044 29.965-2.044 29.965l5.616-1.703z"
              fill="#35353C"/>
        <path d="M27.027 140.66s-2.34-2.953-4.9-2.384c-6.388 1.422 2.3 11.523 2.3 11.523l6.435 3.483-3.835-12.622z"
              fill="#436FFD"/>
        <path d="M50.689 173.205l.75.293-6.977 17.884-.751-.293 6.978-17.884zM61.332 147.92l-19.524 34.69.879.492 19.347-34.789-.702-.393z"
              fill="#35353C"/>
        <path d="M20.223 157.825c.792-1.81 3.157-.612 3.157-.612s-1.577-5.409.561-6.932c3.135-2.234 6.303 1.836 6.303 1.836s-6.583-10.375-2.855-14.781c1.95-2.307 5.527-.921 5.527-.921s-5.28-6.902-1.877-12.408c1.763-2.851 4.94-1.059 4.94-1.059s4.527-13.464 13.392-10.53c9.628 3.186 3.224 14.243 3.224 14.243s6.374-2.797 9.267 1.541c5.067 7.596-7.56 19.635-7.56 19.635s6.113-3.838 9.394-1.922c9.248 5.399-8.096 19.336-8.096 19.336s3.252 1.203 2.853 3.829c-.549 3.603-10.373 12.302-21.015 9.646-13.441-3.357-18.992-16.837-17.215-20.901zm37.322-3.299c1.635 1.139 5.94-4.051 4.14-5.331-1.8-1.279-5.776 4.194-4.14 5.331zM43.92 127.455c2.929.591 4.659-7.562 1.86-8.178-2.66-.589-5.395 7.463-1.86 8.178z"
              fill="#436FFD"/>
        <path d="M33.167 177.219c12.103 3.953 24.025-14.477 21.681-18.19-2.004-3.176-8.82-.579-8.82-.579s6.25-9.184 3.664-11.162c-2.156-1.648-5.171.052-5.171.052s8.475-11.223 3-13.882c-6.91-3.356-10.681 11.972-10.681 11.972s-2.16-1.879-3.821-.879c-4.165 2.505 2.225 13.568 2.225 13.568s-2.176-1.617-3.203.312c-1.025 1.928 1.686 5.076 1.686 5.076s-4.163-2.596-5.444-.435c-1.284 2.16.216 12.622 4.884 14.147z"
              fill="#DDE7FF"/>
        <path d="M64.493 168.196c-.606 1.919-6.275.816-5.61-1.455.664-2.271 6.21-.447 5.61 1.455z" fill="#436FFD"/>
        <path d="M62.033 163.461c.287 1.094-3.455 2.919-4.097 1.608-.642-1.312 3.807-2.712 4.097-1.608zM23.283 132.603c-1.635 1.173 1.178 6.217 3.129 4.878 1.95-1.338-1.51-6.04-3.129-4.878zM28.014 130.881c-1.027.475-.047 4.523 1.372 4.182 1.418-.34-.338-4.661-1.372-4.182z"
              fill="#436FFD"/>
        <path d="M38.982 127.275c-1.284.4-.237 5.192 1.706 4.846 1.943-.347-.02-5.372-1.706-4.846zM49.336 144.819c.962 1.176 4.126-1.48 3.244-2.487-.97-1.112-4.255 1.249-3.244 2.487z"
              fill="#DDE7FF"/>
        <path d="M67.47 182.662c.011-.004.022-.011.033-.014l.969-.304c.18-.037.356-.066.51-.066 18.492-.005 45.075 43.101 45.075 43.101-61.256 0-55.885-38.547-46.587-42.717z"
              fill="#F3F6FF"/>
        <path d="M65.801 195.899c-1.208.973 2.132 5.531 3.824 4.059 1.276-1.107-1.797-5.691-3.824-4.059zM63.821 195.551c-1.138-.096-1.878 4.239-.637 4.373 1.241.136 2.08-4.25.637-4.373zM66.087 186.916s2.906 0 3.477 2.006c.742 2.613-6.308 8.858-17.104 4.611l13.627-6.617z"
              fill="#436FFD"/>
        <path d="M64.33 176.305c10.68 6.718-6.915 24.049-15.298 15.03-4.428-4.764 6.978-20.264 15.298-15.03zm-6.472 8.678c2.798.038 4.113-7.214.973-7.211-1.933.001-3.77 7.173-.973 7.211z"
              fill="#DDE7FF"/>
        <path d="M54.733 200.249a.926.926 0 110-1.852.926.926 0 010 1.852zM66.172 216.335a1.23 1.23 0 102.458.001 1.23 1.23 0 00-2.458-.001zM37.223 222.759a1.23 1.23 0 110-2.46 1.23 1.23 0 010 2.46zM46.419 206.653a.442.442 0 11-.884 0 .442.442 0 01.884 0zM55.175 213.558a.442.442 0 11-.883-.001.442.442 0 01.883.001zM60.294 207.018a.442.442 0 11-.884 0 .442.442 0 01.884 0z"
              fill="#F3F6FF"/>
        <path d="M124.331 212.642c6.403-4.642 13.618-1.163 8.143 8.171 6.691-3.143 10.111.729 7.811 4.187H35.033c-.671-10.5 9.054-11.02 12.558-8.198 1.305-1.293 2.702-18.178 13.031-18.577 10.331-.399 14.974 15.656 18.897 15.755-.466-23.861 13.784-23.861 24.281-10.48 11.52-20.719 30.643-14.311 20.531 9.142z"
              fill="#436FFD"/>
        <path d="M60 92a4 4 0 100-8 4 4 0 000 8zM87 141a8 8 0 100-16 8 8 0 000 16z" fill="#D64933"/>
        <path d="M44.032 66.065a5.033 5.033 0 100-10.065 5.033 5.033 0 000 10.065zM261.499 98c12.979 0 23.5-10.521 23.5-23.5S274.478 51 261.499 51s-23.5 10.521-23.5 23.5S248.52 98 261.499 98zM106.979 221.236c4.042-6.962-1.285-9.556-6.014-6.095 7.467-17.492-6.654-22.271-15.16-6.818-7.752-9.98-18.274-9.98-17.93 7.816-2.897-.073-6.325-12.048-13.954-11.75-7.627.298-8.659 12.891-9.623 13.855-2.587-2.105-10.793-1.075-10.297 6.756h78.5c1.698-2.579-.582-6.108-5.522-3.764zm-17.058-4.808c-3.06-1.016.268-10.074 3.265-9.056 3.583 1.216.654 10.359-3.265 9.056z"
              fill="#DDE7FF"/>
        <path d="M265.248 225H.88a.252.252 0 010-.504h264.369a.252.252 0 11-.001.504z" fill="#262626"/>
        <path d="M231.5 224.5s-1.293-27.185-.705-28.309c.588-1.123 14.217-11.749 14.217-11.749l-.892-.677s-14.476 11.438-15.21 9.806c-.565-1.256-6.247-38.516-6.781-40.389l-.803.659c2.853 25.753 5.92 40.068 5.992 40.995.071.927-2.318 29.664-2.318 29.664h6.5z"
              fill="#35353C"/>
        <path d="M229.434 173.978l-1.989 18.582.78.084 1.989-18.582-.78-.084z" fill="#35353C"/>
        <path d="M204.033 154.045c-.791 3.497 13.035 4.856 13.76 2.455 1.317-4.371-13.022-5.725-13.76-2.455zM243.003 161.442c1.517 3.678-7.433 10.481-11.589 5.956-4.156-4.526 10.065-9.652 11.589-5.956zM211.78 165.251c-.852.577-2.206 3.256 2.195 4.579 4.402 1.323 6.864 0 6.864 0l-9.059-4.579zM234.077 149.461s2.524-1.179 3.325 0c1.196 1.762-3.016 6.363-3.016 6.363l-3.201.677 2.892-7.04z"
              fill="#436FFD"/>
        <path d="M217.422 169.706s-4.493-1.231-5.048.8c-.554 2.031 2.771 5.233 2.771 5.233s-5.109-1.969-6.217.8c-1.109 2.771 7.988 10.113 19.717 7.065 11.724-3.046 13.39-13.114 11.066-16.669-1.285-1.965-3.201-1.17-3.201-1.17s7.049-9.219 2.955-12.991c-2.418-2.226-6.772 1.724-6.772 1.724s8.441-12.813 4.309-16.192c-3.047-2.493-7.88 1.601-7.88 1.601s1.508-6.264-3.017-5.941c0 0-.592-9.089-7.111-7.85-5.586 1.062-4.156 16.438-4.156 16.438s-2.193-.376-2.894.615c-1.031 1.462.555 4.371.555 4.371s-4.744-1.225-5.418 1.047c-.924 3.109 5.233 7.635 5.233 7.635s-3.57.646-3.878 3.755c-.353 3.54 8.986 9.729 8.986 9.729zm2.777-35.462c2.592.184 3.381 8.434 0 8.557-3.38.124-2.157-8.711 0-8.557z"
              fill="#436FFD"/>
        <path d="M228.32 152.491c5.193.88 2.337 14.157 2.337 16.572 4.243-5.047 8.362 1.747 4.067 8.239-9.247 13.974-24.375 3.762-14.407-6.894-3.248-10.036 1.608-11.449 3.376-9.437-.359-3.555.995-9.095 4.627-8.48z"
              fill="#DDE7FF"/>
        <path d="M221.549 157.332c-2.141 1.385-4.701-5.726-2.71-6.649 2.094-.97 4.747 5.33 2.71 6.649zM223.564 151.698c-.971-.094-.877-4.483.554-4.479 1.633.003.878 4.618-.554 4.479z"
              fill="#DDE7FF"/>
        <path d="M248.71 175.498s-.78-1.931-2.062-1.351c-1.893.858-1.053 7.521-1.053 7.521l3.115-6.17z" fill="#436FFD"/>
        <path d="M253.564 187.528c-.276 1.219-5.895 3.263-10.75-2.241-3.026-3.431-.061-9.124 2.021-8.34.893.338 1.529 1.967 1.529 1.967s5.393-10.684 8.011-9.164c2.617 1.52-1.803 7.121-1.803 7.121s4.044-.737 4.843 1.583c.996 2.892-7.204 5.721-7.204 5.721s3.838 1.209 3.353 3.353zM205.419 142.544c-.813 1.783 4.004 4.68 5.005 2.606 1-2.076-4.199-4.373-5.005-2.606zM210.833 137.203c-.921.604.594 4.363 1.913 3.834 1.319-.528-.982-4.442-1.913-3.834z"
              fill="#436FFD"/>
        <path d="M253.706 183.865c-.098 1.097 3.79 2.243 4.194.88.404-1.363-4.093-1.985-4.194-.88z" fill="#436FFD"/>
    </g>
    <defs>
        <clipPath id="clip0">
            <path fill="#fff" transform="translate(.628)" d="M0 0h284.371v250H0z"/>
        </clipPath>
    </defs>
</svg>
