<?xml version="1.0" encoding="utf-8"?><svg width="12" height="14" fill="none" xmlns="http://www.w3.org/2000/svg" viewBox="0 0 12 14"><path d="M8.599 9.034c.378-.203.81-.319 1.271-.319h.002a.05.05 0 00.034-.088A5.807 5.807 0 008.286 7.6l-.019-.007A3.876 3.876 0 009.87 4.449 3.87 3.87 0 006.002.574 3.87 3.87 0 002.136 4.45c0 1.293.631 2.438 1.603 3.143l-.019.007a5.822 5.822 0 00-1.864 1.26A5.835 5.835 0 00.6 10.726a5.837 5.837 0 00-.46 2.158.125.125 0 00.126.128h.936a.126.126 0 00.125-.122 4.662 4.662 0 011.368-3.192 4.639 4.639 0 013.308-1.374c.886 0 1.736.246 2.469.705a.126.126 0 00.127.005zM6.003 7.137c-.715 0-1.389-.28-1.897-.788a2.675 2.675 0 01-.786-1.9c0-.717.28-1.392.786-1.9a2.66 2.66 0 011.897-.787c.717 0 1.39.28 1.897.787a2.675 2.675 0 01.786 1.9c0 .718-.28 1.393-.786 1.9a2.666 2.666 0 01-1.897.788zm5.747 3.719h-1.312V9.543a.125.125 0 00-.125-.125h-.875a.125.125 0 00-.125.125v1.313H8a.125.125 0 00-.125.125v.875c0 .068.056.125.125.125h1.313v1.312c0 .069.056.125.125.125h.875a.125.125 0 00.125-.125v-1.312h1.312a.125.125 0 00.125-.125v-.875a.125.125 0 00-.125-.125z" fill="#000" fill-opacity=".85"/></svg>