<?xml version="1.0" encoding="utf-8"?><svg width="14" height="14" xmlns="http://www.w3.org/2000/svg" viewBox="0 0 14 14"><path d="M13.714 12H1.428V.859a.143.143 0 00-.143-.143h-1a.143.143 0 00-.142.143v12.285c0 .079.064.143.142.143h13.429a.143.143 0 00.143-.143v-1a.143.143 0 00-.143-.143zM3 10.573h1a.143.143 0 00.143-.143V7.858A.143.143 0 004 7.715H3a.143.143 0 00-.143.143v2.571c0 .079.064.143.143.143zm2.714 0h1a.143.143 0 00.143-.143V4.715a.143.143 0 00-.143-.143h-1a.143.143 0 00-.143.143v5.714c0 .079.064.143.143.143zm2.714 0h1a.143.143 0 00.143-.143V6.108a.143.143 0 00-.143-.143h-1a.143.143 0 00-.143.143v4.321c0 .079.065.143.143.143zm2.715 0h1a.143.143 0 00.142-.143V3.286a.143.143 0 00-.142-.143h-1a.143.143 0 00-.143.143v7.143c0 .079.064.143.143.143z"/></svg>