<?xml version="1.0" encoding="utf-8"?><svg width="16" height="16" fill="none" xmlns="http://www.w3.org/2000/svg" viewBox="0 0 16 16"><path d="M.91 2.595l1.008.787A7.482 7.482 0 017.825.5a7.495 7.495 0 017.498 7.491A7.498 7.498 0 01.78 10.57a.143.143 0 01.087-.184l1.013-.348a.143.143 0 01.18.085 6.11 6.11 0 001.421 2.22 6.102 6.102 0 004.341 1.8 6.095 6.095 0 004.342-1.8 6.112 6.112 0 001.798-4.345 6.112 6.112 0 00-1.798-4.344 6.102 6.102 0 00-4.341-1.8 6.096 6.096 0 00-4.342 1.8 6.156 6.156 0 00-.496.56l1.075.84a.143.143 0 01-.054.251L.87 6.073a.143.143 0 01-.177-.137l-.014-3.23a.144.144 0 01.232-.111z" fill="#000" fill-opacity=".45"/><path d="M11.224 5.568l-.919-.918a.698.698 0 00-.99 0l-.989.989a.698.698 0 000 .99l.723.723c-.169.373-.404.712-.694 1.002-.29.29-.63.527-1.002.697l-.723-.723a.698.698 0 00-.99 0l-.99.988a.698.698 0 000 .99l.917.918a1.134 1.134 0 00.983.316c1.163-.192 2.317-.81 3.248-1.74.93-.93 1.549-2.083 1.743-3.25a1.136 1.136 0 00-.317-.982z" fill="#000" fill-opacity=".45"/></svg>