<?xml version="1.0" encoding="utf-8"?><svg width="16" height="16" xmlns="http://www.w3.org/2000/svg" viewBox="0 0 16 16"><path d="M14.52 3.122l-1.902-1.9a1.228 1.228 0 00-1.743 0L8.827 3.266a1.232 1.232 0 000 1.747l1.6 1.602a7.24 7.24 0 01-1.543 2.273 7.253 7.253 0 01-2.271 1.546l-1.6-1.601a1.228 1.228 0 00-1.743 0l-2.05 2.044a1.232 1.232 0 000 1.747l1.9 1.9a2.138 2.138 0 001.846.594c2.365-.389 4.711-1.648 6.606-3.54 1.893-1.897 3.15-4.244 3.543-6.61a2.129 2.129 0 00-.595-1.846zm-.671 1.634c-.349 2.105-1.48 4.205-3.186 5.91-1.706 1.706-3.804 2.838-5.91 3.186a.84.84 0 01-.728-.236L2.16 11.75l1.979-1.98 2.14 2.143.015.016.386-.143a8.594 8.594 0 005.102-5.103l.143-.386L9.766 4.14l1.979-1.98 1.866 1.866a.836.836 0 01.237.729z"/></svg>