<?xml version="1.0" encoding="utf-8"?><svg width="14" height="14" fill="none" xmlns="http://www.w3.org/2000/svg" viewBox="0 0 14 14"><path d="M6.902 9.325a.125.125 0 00.196 0l1.75-2.214a.125.125 0 00-.098-.201H7.592V1.622a.125.125 0 00-.125-.125H6.53a.125.125 0 00-.125.125v5.286H5.25a.125.125 0 00-.098.202l1.75 2.215zm5.817-.547h-.938a.125.125 0 00-.125.125v2.407H2.344V8.903a.125.125 0 00-.125-.125H1.28a.125.125 0 00-.125.125v3.094a.5.5 0 00.5.5h10.688a.5.5 0 00.5-.5V8.903a.125.125 0 00-.125-.125z" fill="#000" fill-opacity=".85"/></svg>