<?xml version="1.0" encoding="utf-8"?><svg width="12" height="12" fill="none" xmlns="http://www.w3.org/2000/svg" viewBox="0 0 12 12"><path d="M2.594 9.213a.542.542 0 00.08-.007l2.253-.395a.131.131 0 00.071-.037l5.677-5.677a.133.133 0 000-.19L8.45.68a.133.133 0 00-.096-.038.133.133 0 00-.095.038L2.582 6.358a.136.136 0 00-.037.07L2.15 8.682a.449.449 0 00.125.4c.089.085.2.132.32.132zm.903-2.336l4.857-4.856.982.982L4.48 7.859l-1.191.21.209-1.192zm7.431 3.461H1.072a.428.428 0 00-.428.429v.482c0 .059.048.107.107.107h10.5a.107.107 0 00.107-.107v-.482a.428.428 0 00-.428-.429z" fill="#000" fill-opacity=".85"/></svg>