<?xml version="1.0" encoding="utf-8"?><svg width="4" height="7" fill="none" xmlns="http://www.w3.org/2000/svg" viewBox="0 0 4 7"><path d="M3.308.711A1.976 1.976 0 002 .234c-.492 0-.956.17-1.308.477-.365.32-.567.75-.567 1.21v.09c0 .051.042.094.094.094H.78a.094.094 0 00.094-.094v-.09c0-.516.505-.937 1.125-.937s1.125.421 1.125.938c0 .364-.258.698-.657.852a1.31 1.31 0 00-.844 1.24v.252c0 .051.042.093.094.093h.562a.094.094 0 00.094-.093V4a.566.566 0 01.362-.525c.691-.266 1.138-.876 1.138-1.553.001-.46-.2-.89-.566-1.21zM1.53 5.578a.469.469 0 10.938 0 .469.469 0 00-.938 0z" fill="#000" fill-opacity=".45"/></svg>