<?xml version="1.0" encoding="utf-8"?><svg width="12" height="12" fill="none" xmlns="http://www.w3.org/2000/svg" viewBox="0 0 12 12"><path d="M10.929 11.355H1.072a.428.428 0 01-.429-.428V1.07c0-.237.192-.429.429-.429h4.821C5.952.641 6 .69 6 .748v.75a.107.107 0 01-.107.108H1.607v8.785h8.786V6.106c0-.06.048-.108.107-.108h.75c.06 0 .107.049.107.108v4.821a.428.428 0 01-.428.428zM9.467 1.808l-.699-.699a.107.107 0 01.063-.182l2.403-.281a.107.107 0 01.119.119l-.281 2.403a.107.107 0 01-.182.063l-.702-.702L6.757 5.96a.108.108 0 01-.152 0l-.568-.568a.108.108 0 010-.151l3.43-3.433z" fill="#000" fill-opacity=".65"/></svg>