<?xml version="1.0" encoding="utf-8"?><svg width="12" height="12" fill="none" xmlns="http://www.w3.org/2000/svg" viewBox="0 0 12 12"><path d="M10.93 11.355H1.073a.428.428 0 01-.428-.428V1.07c0-.237.191-.429.428-.429h4.822c.058 0 .107.048.107.107v.75a.107.107 0 01-.107.107H1.609v8.786h8.786V6.105c0-.058.048-.107.107-.107h.75c.059 0 .107.049.107.107v4.822a.428.428 0 01-.429.428zM9.47 1.808l-.7-.699a.107.107 0 01.064-.182l2.402-.281a.107.107 0 01.12.119l-.282 2.402a.107.107 0 01-.182.063l-.702-.701-3.431 3.43a.108.108 0 01-.151 0l-.568-.567a.108.108 0 010-.151l3.43-3.433z" fill="#436FFD"/></svg>