<?xml version="1.0" encoding="utf-8"?><svg width="14" height="16" fill="none" xmlns="http://www.w3.org/2000/svg" viewBox="0 0 14 16"><path d="M12.715 0H1.287a.57.57 0 00-.572.571V15.43a.57.57 0 00.572.571h11.428a.57.57 0 00.572-.571V.57A.57.57 0 0012.715 0zm-.714 14.714h-10V1.286h10v13.428z" fill="#000" fill-opacity=".65"/><path d="M10.43 5.643H3.573A.143.143 0 013.43 5.5v-.857c0-.079.064-.143.143-.143h6.857c.078 0 .143.064.143.143V5.5a.143.143 0 01-.143.143zM10.43 8.663H3.573a.143.143 0 01-.143-.143v-.857c0-.079.064-.143.143-.143h6.857c.078 0 .143.064.143.143v.857a.143.143 0 01-.143.143zM10.43 11.663H3.573a.143.143 0 01-.143-.143v-.857c0-.079.064-.143.143-.143h6.857c.078 0 .143.064.143.143v.857a.143.143 0 01-.143.143z" fill="#000" fill-opacity=".65"/></svg>