<?xml version="1.0" encoding="utf-8"?><svg width="16" height="14" fill="none" xmlns="http://www.w3.org/2000/svg" viewBox="0 0 16 14"><path d="M9.857 5.75H1.285a.143.143 0 01-.142-.142v-1c0-.079.064-.143.142-.143h8.572c.078 0 .143.064.143.143v1a.143.143 0 01-.143.143zM10 9.394a.143.143 0 01-.143.143H1.285a.143.143 0 01-.142-.143v-1c0-.078.064-.142.142-.142h8.572c.078 0 .143.064.143.142v1zM1 .715h14c.078 0 .143.064.143.143v1A.143.143 0 0115 2H1a.143.143 0 01-.143-.143v-1C.857.779.92.715 1 .715zM1 12h14c.078 0 .143.064.143.142v1a.143.143 0 01-.143.143H1a.143.143 0 01-.143-.143v-1c0-.078.064-.142.143-.142zm14.082-4.877L12.29 9.322a.159.159 0 01-.257-.123V4.802c0-.132.151-.205.257-.123l2.79 2.198a.157.157 0 01.045.192.157.157 0 01-.044.055z" fill="#000"/></svg>