<?xml version="1.0" encoding="utf-8"?><svg width="16" height="14" fill="none" xmlns="http://www.w3.org/2000/svg" viewBox="0 0 16 14"><path d="M15 .711H1a.143.143 0 00-.143.143v1.143c0 .078.064.143.143.143h14a.143.143 0 00.143-.143V.854A.143.143 0 0015 .71zm0 11.143H1a.143.143 0 00-.143.143v1.143c0 .078.064.143.143.143h14a.143.143 0 00.143-.143v-1.143a.143.143 0 00-.143-.143zm0-5.572H1a.143.143 0 00-.143.143v1.143c0 .079.064.143.143.143h14a.143.143 0 00.143-.143V6.425A.143.143 0 0015 6.282z" fill="#000" fill-opacity=".85"/></svg>