<?xml version="1.0" encoding="utf-8"?><svg width="14" height="14" fill="none" xmlns="http://www.w3.org/2000/svg" viewBox="0 0 14 14"><path d="M13.205 2.27l-.882.69A6.547 6.547 0 007.155.438 6.558 6.558 0 00.594 6.992 6.561 6.561 0 0013.32 9.25a.125.125 0 00-.076-.161l-.886-.305a.125.125 0 00-.158.075 5.346 5.346 0 01-1.244 1.942 5.34 5.34 0 01-3.798 1.575A5.334 5.334 0 013.359 10.8 5.346 5.346 0 011.786 7a5.347 5.347 0 011.573-3.802 5.34 5.34 0 013.798-1.575 5.334 5.334 0 013.8 1.575c.154.155.3.319.434.49l-.941.735a.125.125 0 00.047.22l2.744.672a.125.125 0 00.154-.12l.013-2.827a.126.126 0 00-.203-.096z" fill="#436FFD"/></svg>