<?xml version="1.0" encoding="utf-8"?><svg xmlns="http://www.w3.org/2000/svg" width="18" height="18" viewBox="0 0 18 18"><path d="M15.875 9.117H8.883V2.125a.157.157 0 00-.156-.156h-.508a7.782 7.782 0 00-5.524 2.287 7.777 7.777 0 00-1.673 2.482 7.766 7.766 0 00-.616 3.043 7.782 7.782 0 002.287 5.524 7.777 7.777 0 002.483 1.674 7.765 7.765 0 003.043.615 7.783 7.783 0 005.523-2.287 7.777 7.777 0 001.674-2.483 7.767 7.767 0 00.615-3.043v-.508a.157.157 0 00-.156-.156zm-3.092 5.27a6.476 6.476 0 01-4.595 1.879 6.442 6.442 0 01-4.555-1.899 6.443 6.443 0 01-1.899-4.586c0-1.732.674-3.361 1.899-4.586A6.428 6.428 0 017.555 3.33v7.115h7.115a6.432 6.432 0 01-1.887 3.942zm4.81-6.356l-.05-.55a7.77 7.77 0 00-2.25-4.778 7.801 7.801 0 00-4.79-2.246l-.552-.05a.155.155 0 00-.17.154v7.501c0 .086.07.157.157.157l7.5-.02a.156.156 0 00.156-.168zm-6.488-1.136V1.883a6.49 6.49 0 013.25 1.754 6.448 6.448 0 011.758 3.244l-5.008.014z"/></svg>