<?xml version="1.0" encoding="utf-8"?><svg width="12" height="12" fill="none" xmlns="http://www.w3.org/2000/svg" viewBox="0 0 12 12"><path d="M7 .752v10.873c0 .07.056.126.125.126h.937a.125.125 0 00.125-.125V2.168l2.86 2.255a.126.126 0 00.203-.099V3.193a.25.25 0 00-.095-.197L7.809.358A.5.5 0 007 .752zM3.312.375v9.457L.453 7.577a.126.126 0 00-.203.098v1.133a.25.25 0 00.095.197l3.345 2.638a.5.5 0 00.81-.393V.376A.125.125 0 004.375.25h-.938a.125.125 0 00-.125.125z" fill="#000" fill-opacity=".85"/></svg>