<?xml version="1.0" encoding="utf-8"?><svg width="16" height="14" xmlns="http://www.w3.org/2000/svg" viewBox="0 0 16 14"><path d="M15.429 1.854H12.57v-1A.143.143 0 0012.43.71h-1a.143.143 0 00-.143.143v1H8.643v-1A.143.143 0 008.5.71h-1a.143.143 0 00-.143.143v1H4.714v-1A.143.143 0 004.571.71h-1a.143.143 0 00-.142.143v1H.57A.57.57 0 000 2.425v10.286a.57.57 0 00.571.572H15.43A.57.57 0 0016 12.71V2.425a.57.57 0 00-.571-.571zm-.715 10.143H1.286V3.14h2.143v1c0 .078.064.142.142.142h1a.143.143 0 00.143-.142v-1h2.643v1c0 .078.064.142.143.142h1a.143.143 0 00.143-.142v-1h2.643v1c0 .078.064.142.143.142h1a.143.143 0 00.142-.142v-1h2.143v8.857zM6.286 6.71H3a.143.143 0 00-.143.143v.857c0 .079.064.143.143.143h3.286a.143.143 0 00.143-.143v-.857a.143.143 0 00-.143-.143zm0 2.429H3a.143.143 0 00-.143.142v.858c0 .078.064.143.143.143h3.286a.143.143 0 00.143-.143v-.858a.143.143 0 00-.143-.142zm5.503-3.168L9.94 8.538l-.943-1.306a.282.282 0 00-.23-.117h-.98c-.116 0-.184.132-.116.226l2.037 2.825a.284.284 0 00.46 0l2.947-4.084a.143.143 0 00-.116-.226h-.98a.28.28 0 00-.229.116z"/></svg>