<?xml version="1.0" encoding="utf-8"?><svg width="12" height="12" fill="none" xmlns="http://www.w3.org/2000/svg" viewBox="0 0 12 12"><path d="M3.964 1.606h-.107a.107.107 0 00.107-.107v.107h4.072v-.107c0 .059.048.107.107.107h-.107v.964H9V1.5a.858.858 0 00-.857-.857H3.857A.858.858 0 003 1.499V2.57h.964v-.964zm6.75.964H1.286A.428.428 0 00.856 3v.428c0 .06.05.107.108.107h.809l.33 7.005c.022.457.4.817.857.817h6.08a.856.856 0 00.856-.817l.33-7.005h.81a.108.108 0 00.107-.107V3a.428.428 0 00-.429-.429zm-1.777 7.822H3.063l-.324-6.858H9.26l-.324 6.858z" fill="#000" fill-opacity=".85"/></svg>