<?xml version="1.0" encoding="utf-8"?><svg width="14" height="16" xmlns="http://www.w3.org/2000/svg" viewBox="0 0 14 16"><path d="M10.143 3.568A.143.143 0 0010 3.425H3.143A.143.143 0 003 3.568v.857c0 .079.065.143.143.143H10a.143.143 0 00.143-.143v-.857zM10 5.997H3.143A.143.143 0 003 6.14v.857c0 .078.065.143.143.143H10a.143.143 0 00.143-.143V6.14A.143.143 0 0010 5.997zM6.43 8.568H3.143A.143.143 0 003 8.711v.857c0 .079.065.143.143.143H6.43a.143.143 0 00.143-.143v-.857a.143.143 0 00-.143-.143zm-.857 5.5h-4V1.497h10V7.64c0 .078.064.142.143.142h1a.143.143 0 00.143-.142V.782a.57.57 0 00-.572-.57H.858a.57.57 0 00-.572.57v14a.57.57 0 00.572.572h4.714a.143.143 0 00.143-.143v-1a.143.143 0 00-.143-.143zm6.371-1.328a2.572 2.572 0 10-3.457 0 3.51 3.51 0 00-1.771 2.894.143.143 0 00.143.149h.858a.144.144 0 00.143-.136 2.362 2.362 0 012.356-2.222c1.255 0 2.285.986 2.355 2.222a.143.143 0 00.143.136h.859a.142.142 0 00.143-.149 3.503 3.503 0 00-1.772-2.894zm-1.728-3.333a1.428 1.428 0 110 2.857 1.428 1.428 0 010-2.857z"/></svg>