<?xml version="1.0" encoding="utf-8"?><!DOCTYPE svg PUBLIC "-//W3C//DTD SVG 1.1//EN" "http://www.w3.org/Graphics/SVG/1.1/DTD/svg11.dtd"><svg viewBox="0 0 612.01 612.01" xmlns="http://www.w3.org/2000/svg" xmlns:xlink="http://www.w3.org/1999/xlink"><style>:root>svg{display:none}:root>svg:target{display:block}</style><svg fill="none" viewBox="0 0 12 14" id="add-user-mobile" xmlns="http://www.w3.org/2000/svg"><path d="M8.599 9.034c.378-.203.81-.319 1.271-.319h.002a.05.05 0 00.034-.088A5.807 5.807 0 008.286 7.6l-.019-.007A3.876 3.876 0 009.87 4.449 3.87 3.87 0 006.002.574 3.87 3.87 0 002.136 4.45c0 1.293.631 2.438 1.603 3.143l-.019.007a5.822 5.822 0 00-1.864 1.26A5.835 5.835 0 00.6 10.726a5.837 5.837 0 00-.46 2.158.125.125 0 00.126.128h.936a.126.126 0 00.125-.122 4.662 4.662 0 011.368-3.192 4.639 4.639 0 013.308-1.374c.886 0 1.736.246 2.469.705a.126.126 0 00.127.005zM6.003 7.137c-.715 0-1.389-.28-1.897-.788a2.675 2.675 0 01-.786-1.9c0-.717.28-1.392.786-1.9a2.66 2.66 0 011.897-.787c.717 0 1.39.28 1.897.787a2.675 2.675 0 01.786 1.9c0 .718-.28 1.393-.786 1.9a2.666 2.666 0 01-1.897.788zm5.747 3.719h-1.312V9.543a.125.125 0 00-.125-.125h-.875a.125.125 0 00-.125.125v1.313H8a.125.125 0 00-.125.125v.875c0 .068.056.125.125.125h1.313v1.312c0 .069.056.125.125.125h.875a.125.125 0 00.125-.125v-1.312h1.312a.125.125 0 00.125-.125v-.875a.125.125 0 00-.125-.125z" fill="#000" fill-opacity=".85"/></svg><svg fill="none" viewBox="0 0 10 6" id="arrow-filter" xmlns="http://www.w3.org/2000/svg"><path d="M9.152.143h-.837a.18.18 0 00-.144.074L5 4.587 1.83.217a.18.18 0 00-.145-.074H.848a.09.09 0 00-.072.142L4.71 5.71a.356.356 0 00.577 0L9.223.285a.089.089 0 00-.071-.142z" fill="#436FFD"/></svg><svg fill="none" viewBox="0 0 7 12" id="arrow-left" xmlns="http://www.w3.org/2000/svg"><path d="M6.898 1.984V.927a.11.11 0 00-.176-.086L.559 5.655a.436.436 0 000 .688l6.163 4.814a.109.109 0 00.176-.086v-1.057a.221.221 0 00-.083-.172L1.893 6l4.922-3.843a.221.221 0 00.083-.173z" fill="#595959"/></svg><svg fill="none" viewBox="0 0 7 12" id="arrow-right" xmlns="http://www.w3.org/2000/svg"><path d="M6.468 5.655L.305.842A.109.109 0 00.13.928v1.057c0 .067.031.13.083.172L5.134 6 .212 9.843a.217.217 0 00-.083.172v1.057a.11.11 0 00.176.086l6.163-4.813a.437.437 0 000-.69z" fill="#595959"/></svg><svg viewBox="0 0 14 14" id="bar-graph" xmlns="http://www.w3.org/2000/svg"><path d="M13.714 12H1.428V.859a.143.143 0 00-.143-.143h-1a.143.143 0 00-.142.143v12.285c0 .079.064.143.142.143h13.429a.143.143 0 00.143-.143v-1a.143.143 0 00-.143-.143zM3 10.573h1a.143.143 0 00.143-.143V7.858A.143.143 0 004 7.715H3a.143.143 0 00-.143.143v2.571c0 .079.064.143.143.143zm2.714 0h1a.143.143 0 00.143-.143V4.715a.143.143 0 00-.143-.143h-1a.143.143 0 00-.143.143v5.714c0 .079.064.143.143.143zm2.714 0h1a.143.143 0 00.143-.143V6.108a.143.143 0 00-.143-.143h-1a.143.143 0 00-.143.143v4.321c0 .079.065.143.143.143zm2.715 0h1a.143.143 0 00.142-.143V3.286a.143.143 0 00-.142-.143h-1a.143.143 0 00-.143.143v7.143c0 .079.064.143.143.143z"/></svg><svg viewBox="0 0 16 12" id="build" xmlns="http://www.w3.org/2000/svg"><path d="M15.214.61H5.57A.57.57 0 005 1.18v4.215H.785a.57.57 0 00-.571.572v4.857a.57.57 0 00.571.571h9.643a.57.57 0 00.572-.571V6.609h4.214a.57.57 0 00.571-.571V1.181a.57.57 0 00-.571-.572zm-9 1.214h3.571v3.571H6.214V1.824zM5 10.18H1.428V6.609H5v3.572zm4.785 0H6.214V6.609h3.571v3.572zm4.786-4.786H11V1.824h3.571v3.571z"/></svg><svg fill="none" viewBox="0 0 14 14" id="calendar" xmlns="http://www.w3.org/2000/svg"><path d="M12.75 1.875h-2.625v-1A.125.125 0 0010 .75h-.875A.125.125 0 009 .875v1H5v-1A.125.125 0 004.875.75H4a.125.125 0 00-.125.125v1H1.25a.5.5 0 00-.5.5V12.75a.5.5 0 00.5.5h11.5a.5.5 0 00.5-.5V2.375a.5.5 0 00-.5-.5zm-.625 10.25H1.875V6.187h10.25v5.938zm-10.25-7V3h2v.75c0 .069.056.125.125.125h.875A.125.125 0 005 3.75V3h4v.75c0 .069.056.125.125.125H10a.125.125 0 00.125-.125V3h2v2.125H1.875z" fill="#000" fill-opacity=".45"/></svg><svg viewBox="0 0 16 16" id="call" xmlns="http://www.w3.org/2000/svg"><path d="M14.52 3.122l-1.902-1.9a1.228 1.228 0 00-1.743 0L8.827 3.266a1.232 1.232 0 000 1.747l1.6 1.602a7.24 7.24 0 01-1.543 2.273 7.253 7.253 0 01-2.271 1.546l-1.6-1.601a1.228 1.228 0 00-1.743 0l-2.05 2.044a1.232 1.232 0 000 1.747l1.9 1.9a2.138 2.138 0 001.846.594c2.365-.389 4.711-1.648 6.606-3.54 1.893-1.897 3.15-4.244 3.543-6.61a2.129 2.129 0 00-.595-1.846zm-.671 1.634c-.349 2.105-1.48 4.205-3.186 5.91-1.706 1.706-3.804 2.838-5.91 3.186a.84.84 0 01-.728-.236L2.16 11.75l1.979-1.98 2.14 2.143.015.016.386-.143a8.594 8.594 0 005.102-5.103l.143-.386L9.766 4.14l1.979-1.98 1.866 1.866a.836.836 0 01.237.729z"/></svg><svg fill="none" viewBox="0 0 16 16" id="callback" xmlns="http://www.w3.org/2000/svg"><path d="M.91 2.595l1.008.787A7.482 7.482 0 017.825.5a7.495 7.495 0 017.498 7.491A7.498 7.498 0 01.78 10.57a.143.143 0 01.087-.184l1.013-.348a.143.143 0 01.18.085 6.11 6.11 0 001.421 2.22 6.102 6.102 0 004.341 1.8 6.095 6.095 0 004.342-1.8 6.112 6.112 0 001.798-4.345 6.112 6.112 0 00-1.798-4.344 6.102 6.102 0 00-4.341-1.8 6.096 6.096 0 00-4.342 1.8 6.156 6.156 0 00-.496.56l1.075.84a.143.143 0 01-.054.251L.87 6.073a.143.143 0 01-.177-.137l-.014-3.23a.144.144 0 01.232-.111z" fill="#000" fill-opacity=".45"/><path d="M11.224 5.568l-.919-.918a.698.698 0 00-.99 0l-.989.989a.698.698 0 000 .99l.723.723c-.169.373-.404.712-.694 1.002-.29.29-.63.527-1.002.697l-.723-.723a.698.698 0 00-.99 0l-.99.988a.698.698 0 000 .99l.917.918a1.134 1.134 0 00.983.316c1.163-.192 2.317-.81 3.248-1.74.93-.93 1.549-2.083 1.743-3.25a1.136 1.136 0 00-.317-.982z" fill="#000" fill-opacity=".45"/></svg><svg fill="none" viewBox="0 0 17 18" id="close" xmlns="http://www.w3.org/2000/svg"><path d="M9.879 8.732L16.91.351A.213.213 0 0016.747 0h-2.138a.436.436 0 00-.33.153L8.482 7.066 2.68.153A.428.428 0 002.352 0H.215A.213.213 0 00.05.35l7.031 8.382-7.03 8.381a.213.213 0 00.163.351h2.137a.436.436 0 00.33-.152l5.799-6.914 5.799 6.914c.08.096.2.152.33.152h2.137a.213.213 0 00.163-.35L9.879 8.731z" fill="#000" fill-opacity=".85"/></svg><svg fill="none" viewBox="0 0 14 14" id="download" xmlns="http://www.w3.org/2000/svg"><path d="M6.902 9.325a.125.125 0 00.196 0l1.75-2.214a.125.125 0 00-.098-.201H7.592V1.622a.125.125 0 00-.125-.125H6.53a.125.125 0 00-.125.125v5.286H5.25a.125.125 0 00-.098.202l1.75 2.215zm5.817-.547h-.938a.125.125 0 00-.125.125v2.407H2.344V8.903a.125.125 0 00-.125-.125H1.28a.125.125 0 00-.125.125v3.094a.5.5 0 00.5.5h10.688a.5.5 0 00.5-.5V8.903a.125.125 0 00-.125-.125z" fill="#000" fill-opacity=".85"/></svg><svg fill="none" viewBox="0 0 12 12" id="edit" xmlns="http://www.w3.org/2000/svg"><path d="M2.594 9.213a.542.542 0 00.08-.007l2.253-.395a.131.131 0 00.071-.037l5.677-5.677a.133.133 0 000-.19L8.45.68a.133.133 0 00-.096-.038.133.133 0 00-.095.038L2.582 6.358a.136.136 0 00-.037.07L2.15 8.682a.449.449 0 00.125.4c.089.085.2.132.32.132zm.903-2.336l4.857-4.856.982.982L4.48 7.859l-1.191.21.209-1.192zm7.431 3.461H1.072a.428.428 0 00-.428.429v.482c0 .059.048.107.107.107h10.5a.107.107 0 00.107-.107v-.482a.428.428 0 00-.428-.429z" fill="#000" fill-opacity=".85"/></svg><svg fill="none" viewBox="0 0 13 12" id="filter" xmlns="http://www.w3.org/2000/svg"><path d="M12.502.408H.999a.5.5 0 00-.43.75l3.634 6.178v3.76c0 .276.222.5.497.5h4.1a.498.498 0 00.497-.5v-3.76l3.636-6.178a.5.5 0 00-.431-.75zM8.178 10.471H5.322V8.033H8.18v2.438h-.002zm.15-3.697l-.148.26H5.32l-.148-.26-3.098-5.24h9.353l-3.099 5.24z" fill="#000" fill-opacity=".85"/></svg><svg fill="none" viewBox="0 0 4 7" id="hint" xmlns="http://www.w3.org/2000/svg"><path d="M3.308.711A1.976 1.976 0 002 .234c-.492 0-.956.17-1.308.477-.365.32-.567.75-.567 1.21v.09c0 .051.042.094.094.094H.78a.094.094 0 00.094-.094v-.09c0-.516.505-.937 1.125-.937s1.125.421 1.125.938c0 .364-.258.698-.657.852a1.31 1.31 0 00-.844 1.24v.252c0 .051.042.093.094.093h.562a.094.094 0 00.094-.093V4a.566.566 0 01.362-.525c.691-.266 1.138-.876 1.138-1.553.001-.46-.2-.89-.566-1.21zM1.53 5.578a.469.469 0 10.938 0 .469.469 0 00-.938 0z" fill="#000" fill-opacity=".45"/></svg><svg fill="none" viewBox="0 0 12 12" id="link" xmlns="http://www.w3.org/2000/svg"><path d="M10.929 11.355H1.072a.428.428 0 01-.429-.428V1.07c0-.237.192-.429.429-.429h4.821C5.952.641 6 .69 6 .748v.75a.107.107 0 01-.107.108H1.607v8.785h8.786V6.106c0-.06.048-.108.107-.108h.75c.06 0 .107.049.107.108v4.821a.428.428 0 01-.428.428zM9.467 1.808l-.699-.699a.107.107 0 01.063-.182l2.403-.281a.107.107 0 01.119.119l-.281 2.403a.107.107 0 01-.182.063l-.702-.702L6.757 5.96a.108.108 0 01-.152 0l-.568-.568a.108.108 0 010-.151l3.43-3.433z" fill="#000" fill-opacity=".65"/></svg><svg fill="none" viewBox="0 0 12 12" id="link-prm" xmlns="http://www.w3.org/2000/svg"><path d="M10.93 11.355H1.073a.428.428 0 01-.428-.428V1.07c0-.237.191-.429.428-.429h4.822c.058 0 .107.048.107.107v.75a.107.107 0 01-.107.107H1.609v8.786h8.786V6.105c0-.058.048-.107.107-.107h.75c.059 0 .107.049.107.107v4.822a.428.428 0 01-.429.428zM9.47 1.808l-.7-.699a.107.107 0 01.064-.182l2.402-.281a.107.107 0 01.12.119l-.282 2.402a.107.107 0 01-.182.063l-.702-.701-3.431 3.43a.108.108 0 01-.151 0l-.568-.567a.108.108 0 010-.151l3.43-3.433z" fill="#436FFD"/></svg><svg fill="none" viewBox="0 0 14 16" id="list" xmlns="http://www.w3.org/2000/svg"><path d="M12.715 0H1.287a.57.57 0 00-.572.571V15.43a.57.57 0 00.572.571h11.428a.57.57 0 00.572-.571V.57A.57.57 0 0012.715 0zm-.714 14.714h-10V1.286h10v13.428z" fill="#000" fill-opacity=".65"/><path d="M10.43 5.643H3.573A.143.143 0 013.43 5.5v-.857c0-.079.064-.143.143-.143h6.857c.078 0 .143.064.143.143V5.5a.143.143 0 01-.143.143zM10.43 8.663H3.573a.143.143 0 01-.143-.143v-.857c0-.079.064-.143.143-.143h6.857c.078 0 .143.064.143.143v.857a.143.143 0 01-.143.143zM10.43 11.663H3.573a.143.143 0 01-.143-.143v-.857c0-.079.064-.143.143-.143h6.857c.078 0 .143.064.143.143v.857a.143.143 0 01-.143.143z" fill="#000" fill-opacity=".65"/></svg><svg viewBox="0 0 512 512" id="loupe" xmlns="http://www.w3.org/2000/svg"><path d="M225.474 0C101.151 0 0 101.151 0 225.474c0 124.33 101.151 225.474 225.474 225.474 124.33 0 225.474-101.144 225.474-225.474C450.948 101.151 349.804 0 225.474 0zm0 409.323c-101.373 0-183.848-82.475-183.848-183.848S124.101 41.626 225.474 41.626s183.848 82.475 183.848 183.848-82.475 183.849-183.848 183.849z"/><path d="M505.902 476.472L386.574 357.144c-8.131-8.131-21.299-8.131-29.43 0-8.131 8.124-8.131 21.306 0 29.43l119.328 119.328A20.74 20.74 0 00491.187 512a20.754 20.754 0 0014.715-6.098c8.131-8.124 8.131-21.306 0-29.43z"/></svg><svg viewBox="0 0 512.005 512.005" id="loupe-input" xmlns="http://www.w3.org/2000/svg"><path d="M505.749 475.587l-145.6-145.6c28.203-34.837 45.184-79.104 45.184-127.317C405.333 90.926 314.41.003 202.666.003S0 90.925 0 202.669s90.923 202.667 202.667 202.667c48.213 0 92.48-16.981 127.317-45.184l145.6 145.6c4.16 4.16 9.621 6.251 15.083 6.251s10.923-2.091 15.083-6.251c8.341-8.341 8.341-21.824-.001-30.165zM202.667 362.669c-88.235 0-160-71.765-160-160s71.765-160 160-160 160 71.765 160 160-71.766 160-160 160z" fill="#262626" data-original="#000000"/></svg><svg fill="none" viewBox="0 0 16 14" id="menu" xmlns="http://www.w3.org/2000/svg"><path d="M15 .711H1a.143.143 0 00-.143.143v1.143c0 .078.064.143.143.143h14a.143.143 0 00.143-.143V.854A.143.143 0 0015 .71zm0 11.143H1a.143.143 0 00-.143.143v1.143c0 .078.064.143.143.143h14a.143.143 0 00.143-.143v-1.143a.143.143 0 00-.143-.143zm0-5.572H1a.143.143 0 00-.143.143v1.143c0 .079.064.143.143.143h14a.143.143 0 00.143-.143V6.425A.143.143 0 0015 6.282z" fill="#000" fill-opacity=".85"/></svg><svg fill="none" viewBox="0 0 16 14" id="menu-close" xmlns="http://www.w3.org/2000/svg"><path d="M9.857 5.75H1.285a.143.143 0 01-.142-.142v-1c0-.079.064-.143.142-.143h8.572c.078 0 .143.064.143.143v1a.143.143 0 01-.143.143zM10 9.394a.143.143 0 01-.143.143H1.285a.143.143 0 01-.142-.143v-1c0-.078.064-.142.142-.142h8.572c.078 0 .143.064.143.142v1zM1 .715h14c.078 0 .143.064.143.143v1A.143.143 0 0115 2H1a.143.143 0 01-.143-.143v-1C.857.779.92.715 1 .715zM1 12h14c.078 0 .143.064.143.142v1a.143.143 0 01-.143.143H1a.143.143 0 01-.143-.143v-1c0-.078.064-.142.143-.142zm14.082-4.877L12.29 9.322a.159.159 0 01-.257-.123V4.802c0-.132.151-.205.257-.123l2.79 2.198a.157.157 0 01.045.192.157.157 0 01-.044.055z" fill="#000"/></svg><svg fill="none" viewBox="0 0 2 13" id="more" xmlns="http://www.w3.org/2000/svg"><path d="M0 1.984a1 1 0 102 0 1 1 0 00-2 0zm0 5a1 1 0 102 0 1 1 0 00-2 0zm0 5a1 1 0 102 0 1 1 0 00-2 0z" fill="#000" fill-opacity=".85"/></svg><svg fill="none" viewBox="0 0 2 13" id="more-hover" xmlns="http://www.w3.org/2000/svg"><path d="M0 1.984a1 1 0 102 0 1 1 0 00-2 0zm0 5a1 1 0 102 0 1 1 0 00-2 0zm0 5a1 1 0 102 0 1 1 0 00-2 0z" fill="#7797FD"/></svg><svg viewBox="0 0 12 16" id="notification" xmlns="http://www.w3.org/2000/svg"><path d="M11.429 12.57H11V6.497A5 5 0 006.714 1.55V.855a.714.714 0 10-1.428 0v.695A5 5 0 001 6.498v6.071H.571a.57.57 0 00-.571.572v.571c0 .079.064.143.143.143H4c0 1.104.896 2 2 2s2-.896 2-2h3.857a.143.143 0 00.143-.143v-.571a.57.57 0 00-.571-.572zM6 14.711a.857.857 0 01-.857-.857h1.714a.857.857 0 01-.857.857zM2.286 12.57V6.498c0-.993.385-1.925 1.087-2.627A3.689 3.689 0 016 2.783c.993 0 1.925.386 2.627 1.088a3.689 3.689 0 011.087 2.627v6.071H2.286z"/></svg><svg fill="none" viewBox="0 0 16 17" id="play-circle" xmlns="http://www.w3.org/2000/svg"><path d="M8 1.5a7 7 0 10.001 14.001A7 7 0 008 1.5zm0 12.813A5.813 5.813 0 018 2.687a5.813 5.813 0 010 11.626z" fill="#436FFD"/><path d="M11.24 8.299l-4.626-3.36a.248.248 0 00-.395.202v6.719c0 .204.23.32.395.201l4.626-3.36a.247.247 0 000-.402zm-4.025 2.093V6.608L9.82 8.5l-2.605 1.892z" fill="#436FFD"/></svg><svg fill="none" viewBox="0 0 22 22" id="question-circle" xmlns="http://www.w3.org/2000/svg"><path fill="#F0F0F0" d="M0 0h22v22H0z"/><path d="M11 1.375c-5.315 0-9.625 4.31-9.625 9.625s4.31 9.625 9.625 9.625 9.625-4.31 9.625-9.625S16.315 1.375 11 1.375zm0 17.617A7.994 7.994 0 013.008 11 7.994 7.994 0 0111 3.008 7.994 7.994 0 0118.992 11 7.994 7.994 0 0111 18.992z" fill="#000"/><path d="M13.398 6.804C12.753 6.24 11.902 5.93 11 5.93c-.902 0-1.753.311-2.398.874-.67.587-1.04 1.375-1.04 2.22v.163c0 .094.078.172.172.172h1.032a.172.172 0 00.171-.172v-.164c0-.947.926-1.718 2.063-1.718 1.136 0 2.063.771 2.063 1.718 0 .669-.473 1.28-1.206 1.562a2.401 2.401 0 00-1.547 2.273v.462c0 .095.078.172.172.172h1.032a.172.172 0 00.171-.172v-.487a1.037 1.037 0 01.664-.963c1.268-.488 2.086-1.605 2.086-2.847.002-.844-.367-1.632-1.037-2.219zm-3.257 8.923a.86.86 0 101.718 0 .86.86 0 00-1.718 0z" fill="#000"/></svg><svg fill="none" viewBox="0 0 14 14" id="reload" xmlns="http://www.w3.org/2000/svg"><path d="M12.75.75H1.25a.5.5 0 00-.5.5v11.5a.5.5 0 00.5.5h11.5a.5.5 0 00.5-.5V1.25a.5.5 0 00-.5-.5zm-.625 11.375H1.875V1.875h10.25v10.25zM3.762 7.187h.793a.106.106 0 00.106-.106V5.848c0-.307.248-.556.555-.556H8.43v.835c0 .089.101.137.17.082l1.705-1.339a.106.106 0 000-.167L8.6 3.364a.105.105 0 00-.17.083v.834H5.214c-.86 0-1.558.7-1.558 1.564v1.233c0 .063.047.11.107.11zm-.065 2.108l1.705 1.34c.068.054.17.004.17-.083v-.835h3.214c.86 0 1.558-.7 1.558-1.564V6.92a.106.106 0 00-.106-.106h-.793a.106.106 0 00-.106.106v1.233a.555.555 0 01-.555.556H5.572v-.834a.105.105 0 00-.17-.083l-1.705 1.34a.103.103 0 000 .163z"/></svg><svg fill="none" viewBox="0 0 14 14" id="reload-prm" xmlns="http://www.w3.org/2000/svg"><path d="M13.205 2.27l-.882.69A6.547 6.547 0 007.155.438 6.558 6.558 0 00.594 6.992 6.561 6.561 0 0013.32 9.25a.125.125 0 00-.076-.161l-.886-.305a.125.125 0 00-.158.075 5.346 5.346 0 01-1.244 1.942 5.34 5.34 0 01-3.798 1.575A5.334 5.334 0 013.359 10.8 5.346 5.346 0 011.786 7a5.347 5.347 0 011.573-3.802 5.34 5.34 0 013.798-1.575 5.334 5.334 0 013.8 1.575c.154.155.3.319.434.49l-.941.735a.125.125 0 00.047.22l2.744.672a.125.125 0 00.154-.12l.013-2.827a.126.126 0 00-.203-.096z" fill="#436FFD"/></svg><svg viewBox="0 0 612.01 612.01" id="search-interface-symbol" xmlns="http://www.w3.org/2000/svg"><path d="M606.209 578.714L448.198 423.228C489.576 378.272 515 318.817 515 253.393 514.98 113.439 399.704 0 257.493 0S.006 113.439.006 253.393s115.276 253.393 257.487 253.393c61.445 0 117.801-21.253 162.068-56.586l158.624 156.099c7.729 7.614 20.277 7.614 28.006 0a19.291 19.291 0 00.018-27.585zM257.493 467.8c-120.326 0-217.869-95.993-217.869-214.407S137.167 38.986 257.493 38.986c120.327 0 217.869 95.993 217.869 214.407S377.82 467.8 257.493 467.8z"/></svg><svg viewBox="0 0 18 18" id="section" xmlns="http://www.w3.org/2000/svg"><path d="M15.875 9.117H8.883V2.125a.157.157 0 00-.156-.156h-.508a7.782 7.782 0 00-5.524 2.287 7.777 7.777 0 00-1.673 2.482 7.766 7.766 0 00-.616 3.043 7.782 7.782 0 002.287 5.524 7.777 7.777 0 002.483 1.674 7.765 7.765 0 003.043.615 7.783 7.783 0 005.523-2.287 7.777 7.777 0 001.674-2.483 7.767 7.767 0 00.615-3.043v-.508a.157.157 0 00-.156-.156zm-3.092 5.27a6.476 6.476 0 01-4.595 1.879 6.442 6.442 0 01-4.555-1.899 6.443 6.443 0 01-1.899-4.586c0-1.732.674-3.361 1.899-4.586A6.428 6.428 0 017.555 3.33v7.115h7.115a6.432 6.432 0 01-1.887 3.942zm4.81-6.356l-.05-.55a7.77 7.77 0 00-2.25-4.778 7.801 7.801 0 00-4.79-2.246l-.552-.05a.155.155 0 00-.17.154v7.501c0 .086.07.157.157.157l7.5-.02a.156.156 0 00.156-.168zm-6.488-1.136V1.883a6.49 6.49 0 013.25 1.754 6.448 6.448 0 011.758 3.244l-5.008.014z"/></svg><svg fill="none" viewBox="0 0 12 12" id="sort" xmlns="http://www.w3.org/2000/svg"><path d="M7 .752v10.873c0 .07.056.126.125.126h.937a.125.125 0 00.125-.125V2.168l2.86 2.255a.126.126 0 00.203-.099V3.193a.25.25 0 00-.095-.197L7.809.358A.5.5 0 007 .752zM3.312.375v9.457L.453 7.577a.126.126 0 00-.203.098v1.133a.25.25 0 00.095.197l3.345 2.638a.5.5 0 00.81-.393V.376A.125.125 0 004.375.25h-.938a.125.125 0 00-.125.125z" fill="#000" fill-opacity=".85"/></svg><svg viewBox="0 0 16 14" id="text" xmlns="http://www.w3.org/2000/svg"><path d="M15.429 1.854H12.57v-1A.143.143 0 0012.43.71h-1a.143.143 0 00-.143.143v1H8.643v-1A.143.143 0 008.5.71h-1a.143.143 0 00-.143.143v1H4.714v-1A.143.143 0 004.571.71h-1a.143.143 0 00-.142.143v1H.57A.57.57 0 000 2.425v10.286a.57.57 0 00.571.572H15.43A.57.57 0 0016 12.71V2.425a.57.57 0 00-.571-.571zm-.715 10.143H1.286V3.14h2.143v1c0 .078.064.142.142.142h1a.143.143 0 00.143-.142v-1h2.643v1c0 .078.064.142.143.142h1a.143.143 0 00.143-.142v-1h2.643v1c0 .078.064.142.143.142h1a.143.143 0 00.142-.142v-1h2.143v8.857zM6.286 6.71H3a.143.143 0 00-.143.143v.857c0 .079.064.143.143.143h3.286a.143.143 0 00.143-.143v-.857a.143.143 0 00-.143-.143zm0 2.429H3a.143.143 0 00-.143.142v.858c0 .078.064.143.143.143h3.286a.143.143 0 00.143-.143v-.858a.143.143 0 00-.143-.142zm5.503-3.168L9.94 8.538l-.943-1.306a.282.282 0 00-.23-.117h-.98c-.116 0-.184.132-.116.226l2.037 2.825a.284.284 0 00.46 0l2.947-4.084a.143.143 0 00-.116-.226h-.98a.28.28 0 00-.229.116z"/></svg><svg fill="none" viewBox="0 0 12 12" id="trash" xmlns="http://www.w3.org/2000/svg"><path d="M3.964 1.606h-.107a.107.107 0 00.107-.107v.107h4.072v-.107c0 .059.048.107.107.107h-.107v.964H9V1.5a.858.858 0 00-.857-.857H3.857A.858.858 0 003 1.499V2.57h.964v-.964zm6.75.964H1.286A.428.428 0 00.856 3v.428c0 .06.05.107.108.107h.809l.33 7.005c.022.457.4.817.857.817h6.08a.856.856 0 00.856-.817l.33-7.005h.81a.108.108 0 00.107-.107V3a.428.428 0 00-.429-.429zm-1.777 7.822H3.063l-.324-6.858H9.26l-.324 6.858z" fill="#000" fill-opacity=".85"/></svg><svg fill="none" viewBox="0 0 9 6" id="triangle" xmlns="http://www.w3.org/2000/svg"><path d="M8.227 4.902L4.699.81a.269.269 0 00-.398 0L.774 4.901c-.131.153-.013.377.198.377h7.056c.212 0 .33-.224.199-.376z" fill="#BFBFBF"/></svg><svg viewBox="0 0 14 16" id="users" xmlns="http://www.w3.org/2000/svg"><path d="M10.143 3.568A.143.143 0 0010 3.425H3.143A.143.143 0 003 3.568v.857c0 .079.065.143.143.143H10a.143.143 0 00.143-.143v-.857zM10 5.997H3.143A.143.143 0 003 6.14v.857c0 .078.065.143.143.143H10a.143.143 0 00.143-.143V6.14A.143.143 0 0010 5.997zM6.43 8.568H3.143A.143.143 0 003 8.711v.857c0 .079.065.143.143.143H6.43a.143.143 0 00.143-.143v-.857a.143.143 0 00-.143-.143zm-.857 5.5h-4V1.497h10V7.64c0 .078.064.142.143.142h1a.143.143 0 00.143-.142V.782a.57.57 0 00-.572-.57H.858a.57.57 0 00-.572.57v14a.57.57 0 00.572.572h4.714a.143.143 0 00.143-.143v-1a.143.143 0 00-.143-.143zm6.371-1.328a2.572 2.572 0 10-3.457 0 3.51 3.51 0 00-1.771 2.894.143.143 0 00.143.149h.858a.144.144 0 00.143-.136 2.362 2.362 0 012.356-2.222c1.255 0 2.285.986 2.355 2.222a.143.143 0 00.143.136h.859a.142.142 0 00.143-.149 3.503 3.503 0 00-1.772-2.894zm-1.728-3.333a1.428 1.428 0 110 2.857 1.428 1.428 0 010-2.857z"/></svg></svg>