<svg width="12" height="14" viewBox="0 0 12 14" fill="none" xmlns="http://www.w3.org/2000/svg">
<path d="M8.5986 9.03372C8.97672 8.83059 9.40954 8.71497 9.87047 8.71497H9.87204C9.91891 8.71497 9.94079 8.65872 9.90641 8.62747C9.42706 8.19728 8.87948 7.84982 8.2861 7.59934C8.27985 7.59622 8.2736 7.59465 8.26735 7.59153C9.23766 6.88684 9.86891 5.74153 9.86891 4.44934C9.86891 2.30872 8.13766 0.574341 6.00172 0.574341C3.86579 0.574341 2.1361 2.30872 2.1361 4.44934C2.1361 5.74153 2.76735 6.88684 3.73922 7.59153C3.73297 7.59465 3.72672 7.59622 3.72047 7.59934C3.02204 7.89465 2.39547 8.31809 1.85641 8.85872C1.32046 9.39369 0.893776 10.0279 0.600161 10.7259C0.311275 11.4094 0.155367 12.1418 0.140786 12.8837C0.140369 12.9004 0.143294 12.917 0.149389 12.9325C0.155484 12.948 0.164625 12.9622 0.176274 12.9741C0.187923 12.9861 0.201845 12.9956 0.217218 13.002C0.232591 13.0085 0.249105 13.0118 0.265786 13.0118H1.20172C1.26891 13.0118 1.32516 12.9572 1.32672 12.89C1.35797 11.6837 1.84079 10.554 2.69547 9.69778C3.57829 8.81184 4.75329 8.32434 6.00329 8.32434C6.88922 8.32434 7.73922 8.56965 8.47204 9.02903C8.49086 9.04086 8.51247 9.04752 8.53469 9.04834C8.55691 9.04916 8.57895 9.04412 8.5986 9.03372ZM6.00329 7.13684C5.28766 7.13684 4.61422 6.85715 4.10641 6.34934C3.85656 6.10014 3.65849 5.80396 3.5236 5.47787C3.38871 5.15178 3.31968 4.80223 3.32047 4.44934C3.32047 3.73215 3.60016 3.05715 4.10641 2.54934C4.61266 2.04153 5.2861 1.76184 6.00329 1.76184C6.72047 1.76184 7.39235 2.04153 7.90016 2.54934C8.15001 2.79854 8.34809 3.09472 8.48298 3.42081C8.61786 3.7469 8.6869 4.09646 8.6861 4.44934C8.6861 5.16653 8.40641 5.84153 7.90016 6.34934C7.39235 6.85715 6.71891 7.13684 6.00329 7.13684ZM11.7502 10.8556H10.4377V9.54309C10.4377 9.47434 10.3814 9.41809 10.3127 9.41809H9.43766C9.36891 9.41809 9.31266 9.47434 9.31266 9.54309V10.8556H8.00016C7.93141 10.8556 7.87516 10.9118 7.87516 10.9806V11.8556C7.87516 11.9243 7.93141 11.9806 8.00016 11.9806H9.31266V13.2931C9.31266 13.3618 9.36891 13.4181 9.43766 13.4181H10.3127C10.3814 13.4181 10.4377 13.3618 10.4377 13.2931V11.9806H11.7502C11.8189 11.9806 11.8752 11.9243 11.8752 11.8556V10.9806C11.8752 10.9118 11.8189 10.8556 11.7502 10.8556Z" fill="black" fill-opacity="0.85"/>
</svg>
