<svg width="7" height="12" viewBox="0 0 7 12" fill="none" xmlns="http://www.w3.org/2000/svg">
<path d="M6.89818 1.9843V0.927467C6.89818 0.835866 6.79291 0.78528 6.72182 0.841334L0.558534 5.6552C0.506168 5.69592 0.463796 5.74807 0.434649 5.80766C0.405502 5.86725 0.39035 5.93271 0.39035 5.99905C0.39035 6.06539 0.405502 6.13085 0.434649 6.19044C0.463796 6.25003 0.506168 6.30217 0.558534 6.3429L6.72182 11.1568C6.79428 11.2128 6.89818 11.1622 6.89818 11.0706V10.0138C6.89818 9.9468 6.86674 9.88254 6.81478 9.84153L1.89291 5.99973L6.81478 2.15657C6.86674 2.11555 6.89818 2.0513 6.89818 1.9843Z" fill="#595959"/>
</svg>
