<svg width="7" height="12" viewBox="0 0 7 12" fill="none" xmlns="http://www.w3.org/2000/svg">
<path d="M6.46848 5.65548L0.305213 0.841609C0.289108 0.82893 0.269754 0.821051 0.249372 0.818876C0.228991 0.8167 0.20841 0.820318 0.189992 0.829313C0.171574 0.838308 0.156067 0.852315 0.145251 0.869726C0.134435 0.887137 0.128749 0.907245 0.128846 0.927742V1.98458C0.128846 2.05157 0.160292 2.11583 0.212245 2.15684L5.13411 6.00001L0.212245 9.84317C0.158925 9.88419 0.128846 9.94845 0.128846 10.0154V11.0723C0.128846 11.1639 0.23412 11.2145 0.305213 11.1584L6.46848 6.34454C6.52086 6.30368 6.56324 6.25141 6.59239 6.19171C6.62153 6.13201 6.63668 6.06644 6.63668 6.00001C6.63668 5.93357 6.62153 5.86801 6.59239 5.80831C6.56324 5.74861 6.52086 5.69634 6.46848 5.65548Z" fill="#595959"/>
</svg>
