<svg width="14" height="14" viewBox="0 0 14 14" xmlns="http://www.w3.org/2000/svg">
<path d="M13.714 12.0005H1.42829V0.85764C1.42829 0.779068 1.36401 0.714783 1.28544 0.714783H0.285435C0.206864 0.714783 0.142578 0.779068 0.142578 0.85764V13.1434C0.142578 13.2219 0.206864 13.2862 0.285435 13.2862H13.714C13.7926 13.2862 13.8569 13.2219 13.8569 13.1434V12.1434C13.8569 12.0648 13.7926 12.0005 13.714 12.0005ZM2.99972 10.5719H3.99972C4.07829 10.5719 4.14258 10.5076 4.14258 10.4291V7.85764C4.14258 7.77907 4.07829 7.71478 3.99972 7.71478H2.99972C2.92115 7.71478 2.85686 7.77907 2.85686 7.85764V10.4291C2.85686 10.5076 2.92115 10.5719 2.99972 10.5719ZM5.71401 10.5719H6.71401C6.79258 10.5719 6.85686 10.5076 6.85686 10.4291V4.71478C6.85686 4.63621 6.79258 4.57193 6.71401 4.57193H5.71401C5.63544 4.57193 5.57115 4.63621 5.57115 4.71478V10.4291C5.57115 10.5076 5.63544 10.5719 5.71401 10.5719ZM8.42829 10.5719H9.42829C9.50686 10.5719 9.57115 10.5076 9.57115 10.4291V6.10764C9.57115 6.02907 9.50686 5.96478 9.42829 5.96478H8.42829C8.34972 5.96478 8.28544 6.02907 8.28544 6.10764V10.4291C8.28544 10.5076 8.34972 10.5719 8.42829 10.5719ZM11.1426 10.5719H12.1426C12.2212 10.5719 12.2854 10.5076 12.2854 10.4291V3.28621C12.2854 3.20764 12.2212 3.14335 12.1426 3.14335H11.1426C11.064 3.14335 10.9997 3.20764 10.9997 3.28621V10.4291C10.9997 10.5076 11.064 10.5719 11.1426 10.5719Z"/>
</svg>
