<svg width="16" height="12" viewBox="0 0 16 12" xmlns="http://www.w3.org/2000/svg">
<path d="M15.2139 0.609375H5.57101C5.25494 0.609375 4.99958 0.864732 4.99958 1.1808V5.39509H0.785296C0.469224 5.39509 0.213867 5.65045 0.213867 5.96652V10.8237C0.213867 11.1397 0.469224 11.3951 0.785296 11.3951H10.4282C10.7442 11.3951 10.9996 11.1397 10.9996 10.8237V6.60938H15.2139C15.5299 6.60938 15.7853 6.35402 15.7853 6.03795V1.1808C15.7853 0.864732 15.5299 0.609375 15.2139 0.609375ZM6.21387 1.82366H9.7853V5.39509H6.21387V1.82366ZM4.99958 10.1808H1.42815V6.60938H4.99958V10.1808ZM9.7853 10.1808H6.21387V6.60938H9.7853V10.1808ZM14.571 5.39509H10.9996V1.82366H14.571V5.39509Z"/>
</svg>
