<svg width="16" height="16" viewBox="0 0 16 16" fill="none" xmlns="http://www.w3.org/2000/svg">
<path d="M0.910849 2.59464L1.91799 3.38214C3.29121 1.62679 5.42692 0.5 7.82513 0.5C11.9662 0.5 15.318 3.84821 15.3234 7.99107C15.3287 12.1375 11.9698 15.5 7.82513 15.5C4.58763 15.5 1.8287 13.4464 0.778705 10.5696C0.75192 10.4946 0.791205 10.4107 0.866205 10.3857L1.87871 10.0375C1.91401 10.0254 1.95264 10.0276 1.98635 10.0436C2.02005 10.0596 2.04615 10.0882 2.05906 10.1232C2.09121 10.2125 2.12692 10.3018 2.16442 10.3893C2.47335 11.1214 2.91621 11.7786 3.48049 12.3429C4.04022 12.9036 4.70294 13.3511 5.43228 13.6607C6.18763 13.9804 6.99299 14.1429 7.82156 14.1429C8.65192 14.1429 9.45549 13.9804 10.2108 13.6607C10.9409 13.3524 11.6038 12.9048 12.1626 12.3429C12.7239 11.7832 13.1709 11.1197 13.4787 10.3893C13.7983 9.63214 13.9609 8.82857 13.9609 7.99822C13.9609 7.16786 13.7983 6.36429 13.4787 5.60714C13.1698 4.875 12.7269 4.21786 12.1626 3.65357C11.5983 3.08929 10.9412 2.64643 10.2108 2.33571C9.45549 2.01607 8.65014 1.85357 7.82156 1.85357C6.99121 1.85357 6.18763 2.01607 5.43228 2.33571C4.70223 2.64401 4.03928 3.09164 3.48049 3.65357C3.30371 3.83036 3.13763 4.01786 2.98406 4.21429L4.05906 5.05357C4.08033 5.07003 4.09653 5.09215 4.10578 5.1174C4.11504 5.14265 4.11698 5.16999 4.11138 5.1963C4.10579 5.2226 4.09288 5.24679 4.07415 5.26608C4.05542 5.28537 4.03162 5.29899 4.00549 5.30536L0.869776 6.07322C0.78049 6.09464 0.692991 6.02679 0.692991 5.93572L0.678705 2.70536C0.680491 2.5875 0.817991 2.52143 0.910849 2.59464Z" fill="black" fill-opacity="0.45"/>
<path d="M11.2241 5.56808L10.305 4.64985C10.2401 4.58473 10.1631 4.53307 10.0782 4.49782C9.99337 4.46257 9.90238 4.44444 9.81049 4.44446C9.62322 4.44446 9.44717 4.51781 9.31514 4.64985L8.32615 5.63885C8.26104 5.70368 8.20937 5.78074 8.17412 5.8656C8.13887 5.95047 8.12074 6.04146 8.12076 6.13335C8.12076 6.32062 8.19412 6.49667 8.32615 6.62871L9.04934 7.3519C8.88006 7.72503 8.6447 8.06447 8.35463 8.35384C8.06529 8.64462 7.72588 8.88084 7.35271 9.05115L6.62952 8.32795C6.56469 8.26283 6.48763 8.21117 6.40277 8.17592C6.31791 8.14067 6.22692 8.12254 6.13503 8.12256C5.94776 8.12256 5.77172 8.19591 5.63968 8.32795L4.64983 9.31609C4.58464 9.38104 4.53293 9.45824 4.49768 9.54326C4.46243 9.62827 4.44434 9.71942 4.44444 9.81145C4.44444 9.99872 4.5178 10.1748 4.64983 10.3068L5.56719 11.2242C5.77776 11.4356 6.06858 11.5556 6.36718 11.5556C6.43017 11.5556 6.49058 11.5504 6.55013 11.54C7.71343 11.3484 8.86725 10.7297 9.79841 9.79937C10.7287 8.86992 11.3466 7.71695 11.5408 6.55018C11.5995 6.19376 11.4812 5.82698 11.2241 5.56808Z" fill="black" fill-opacity="0.45"/>
</svg>
