<svg width="17" height="18" viewBox="0 0 17 18" fill="none" xmlns="http://www.w3.org/2000/svg">
<path d="M9.87879 8.73218L16.91 0.350927C17.0279 0.211642 16.9288 3.43323e-05 16.7466 3.43323e-05H14.6091C14.4833 3.43323e-05 14.3627 0.0562843 14.2797 0.152713L8.48057 7.06611L2.68146 0.152713C2.60111 0.0562843 2.48057 3.43323e-05 2.352 3.43323e-05H0.2145C0.0323576 3.43323e-05 -0.0667497 0.211642 0.0511074 0.350927L7.08236 8.73218L0.0511074 17.1134C0.0247063 17.1445 0.00776902 17.1824 0.00230572 17.2228C-0.00315759 17.2632 0.00308258 17.3043 0.020286 17.3413C0.0374895 17.3782 0.0649336 17.4094 0.0993594 17.4313C0.133785 17.4531 0.173747 17.4645 0.2145 17.4643H2.352C2.47789 17.4643 2.59843 17.4081 2.68146 17.3116L8.48057 10.3982L14.2797 17.3116C14.36 17.4081 14.4806 17.4643 14.6091 17.4643H16.7466C16.9288 17.4643 17.0279 17.2527 16.91 17.1134L9.87879 8.73218Z" fill="black" fill-opacity="0.85"/>
</svg>
