<svg width="4" height="7" viewBox="0 0 4 7" fill="none" xmlns="http://www.w3.org/2000/svg">
<path d="M3.30781 0.711328C2.95625 0.403125 2.49219 0.234375 2 0.234375C1.50781 0.234375 1.04375 0.404297 0.692187 0.711328C0.326562 1.03125 0.125 1.46133 0.125 1.92188V2.01094C0.125 2.0625 0.167188 2.10469 0.21875 2.10469H0.78125C0.832813 2.10469 0.875 2.0625 0.875 2.01094V1.92188C0.875 1.40508 1.38008 0.984375 2 0.984375C2.61992 0.984375 3.125 1.40508 3.125 1.92188C3.125 2.28633 2.86719 2.62031 2.46758 2.77383C2.21914 2.86875 2.0082 3.03516 1.85703 3.25312C1.70352 3.47578 1.62383 3.74297 1.62383 4.01367V4.26562C1.62383 4.31719 1.66602 4.35938 1.71758 4.35938H2.28008C2.33164 4.35938 2.37383 4.31719 2.37383 4.26562V3.99961C2.37443 3.88585 2.40931 3.7749 2.4739 3.68125C2.53849 3.5876 2.62981 3.51559 2.73594 3.47461C3.42734 3.20859 3.87383 2.59922 3.87383 1.92188C3.875 1.46133 3.67344 1.03125 3.30781 0.711328ZM1.53125 5.57812C1.53125 5.70245 1.58064 5.82167 1.66854 5.90958C1.75645 5.99749 1.87568 6.04688 2 6.04688C2.12432 6.04688 2.24355 5.99749 2.33146 5.90958C2.41936 5.82167 2.46875 5.70245 2.46875 5.57812C2.46875 5.4538 2.41936 5.33458 2.33146 5.24667C2.24355 5.15876 2.12432 5.10938 2 5.10938C1.87568 5.10938 1.75645 5.15876 1.66854 5.24667C1.58064 5.33458 1.53125 5.4538 1.53125 5.57812Z" fill="black" fill-opacity="0.45"/>
</svg>
