<svg width="12" height="12" viewBox="0 0 12 12" fill="none" xmlns="http://www.w3.org/2000/svg">
<path d="M10.9288 11.3555H1.07164C0.834584 11.3555 0.643066 11.164 0.643066 10.927V1.06981C0.643066 0.832761 0.834584 0.641243 1.07164 0.641243H5.89307C5.952 0.641243 6.00021 0.689458 6.00021 0.748386V1.49839C6.00021 1.55731 5.952 1.60553 5.89307 1.60553H1.60735V10.3912H10.3931V6.10553C10.3931 6.0466 10.4413 5.99839 10.5002 5.99839H11.2502C11.3091 5.99839 11.3574 6.0466 11.3574 6.10553V10.927C11.3574 11.164 11.1658 11.3555 10.9288 11.3555ZM9.46722 1.80818L8.76811 1.10907C8.75395 1.09484 8.74407 1.07692 8.73959 1.05735C8.7351 1.03777 8.7362 1.01734 8.74276 0.998362C8.74932 0.979385 8.76107 0.96263 8.77668 0.950002C8.79229 0.937373 8.81113 0.929378 8.83106 0.926927L11.2337 0.645677C11.302 0.637641 11.361 0.695231 11.3529 0.764874L11.0717 3.16755C11.061 3.25595 10.9525 3.29344 10.8895 3.2305L10.1878 2.52871L6.75651 5.95996C6.71499 6.00148 6.64668 6.00148 6.60517 5.95996L6.03731 5.39211C5.99579 5.35059 5.99579 5.28228 6.03731 5.24077L9.46722 1.80818Z" fill="black" fill-opacity="0.65"/>
</svg>
