<svg width="12" height="12" viewBox="0 0 12 12" fill="none" xmlns="http://www.w3.org/2000/svg">
<path d="M10.9302 11.3555H1.0731C0.836049 11.3555 0.644531 11.164 0.644531 10.9269V1.06975C0.644531 0.8327 0.836049 0.641182 1.0731 0.641182H5.89453C5.95346 0.641182 6.00167 0.689397 6.00167 0.748325V1.49833C6.00167 1.55725 5.95346 1.60547 5.89453 1.60547H1.60882V10.3912H10.3945V6.10547C10.3945 6.04654 10.4427 5.99833 10.5017 5.99833H11.2517C11.3106 5.99833 11.3588 6.04654 11.3588 6.10547V10.9269C11.3588 11.164 11.1673 11.3555 10.9302 11.3555ZM9.46869 1.80812L8.76958 1.10901C8.75541 1.09478 8.74553 1.07686 8.74105 1.05728C8.73657 1.03771 8.73767 1.01728 8.74423 0.998301C8.75079 0.979324 8.76254 0.962569 8.77815 0.949941C8.79376 0.937312 8.8126 0.929317 8.83252 0.926866L11.2352 0.645616C11.3035 0.63758 11.3624 0.69517 11.3544 0.764812L11.0731 3.16749C11.0624 3.25588 10.954 3.29338 10.891 3.23044L10.1892 2.52865L6.75797 5.9599C6.71645 6.00142 6.64815 6.00142 6.60663 5.9599L6.03877 5.39205C5.99726 5.35053 5.99726 5.28222 6.03877 5.24071L9.46869 1.80812Z" fill="#436FFD"/>
</svg>
