<svg width="14" height="16" viewBox="0 0 14 16" fill="none" xmlns="http://www.w3.org/2000/svg">
<path d="M12.7154 0H1.28679C0.970719 0 0.715363 0.255357 0.715363 0.571429V15.4286C0.715363 15.7446 0.970719 16 1.28679 16H12.7154C13.0314 16 13.2868 15.7446 13.2868 15.4286V0.571429C13.2868 0.255357 13.0314 0 12.7154 0ZM12.0011 14.7143H2.00108C2.00108 9.06294 2.00108 10 2.00108 10V1.28571H12.0011V14.7143Z" fill="black" fill-opacity="0.65"/>
<path d="M10.4297 5.64286H3.57258C3.494 5.64286 3.42972 5.57857 3.42972 5.5V4.64286C3.42972 4.56429 3.494 4.5 3.57258 4.5H10.4297C10.5083 4.5 10.5726 4.56429 10.5726 4.64286V5.5C10.5726 5.57857 10.5083 5.64286 10.4297 5.64286Z" fill="black" fill-opacity="0.65"/>
<path d="M10.4297 8.66278H3.57258C3.494 8.66278 3.42972 8.59849 3.42972 8.51992V7.66278C3.42972 7.58421 3.494 7.51992 3.57258 7.51992H10.4297C10.5083 7.51992 10.5726 7.58421 10.5726 7.66278V8.51992C10.5726 8.59849 10.5083 8.66278 10.4297 8.66278Z" fill="black" fill-opacity="0.65"/>
<path d="M10.4297 11.6628H3.57258C3.494 11.6628 3.42972 11.5985 3.42972 11.5199V10.6628C3.42972 10.5842 3.494 10.5199 3.57258 10.5199H10.4297C10.5083 10.5199 10.5726 10.5842 10.5726 10.6628V11.5199C10.5726 11.5985 10.5083 11.6628 10.4297 11.6628Z" fill="black" fill-opacity="0.65"/>
</svg>
