<svg width="16" height="14" viewBox="0 0 16 14" fill="none" xmlns="http://www.w3.org/2000/svg">
<path d="M14.9998 0.71106H0.999796C0.921225 0.71106 0.856939 0.775345 0.856939 0.853917V1.99677C0.856939 2.07535 0.921225 2.13963 0.999796 2.13963H14.9998C15.0784 2.13963 15.1427 2.07535 15.1427 1.99677V0.853917C15.1427 0.775345 15.0784 0.71106 14.9998 0.71106ZM14.9998 11.8539H0.999796C0.921225 11.8539 0.856939 11.9182 0.856939 11.9968V13.1396C0.856939 13.2182 0.921225 13.2825 0.999796 13.2825H14.9998C15.0784 13.2825 15.1427 13.2182 15.1427 13.1396V11.9968C15.1427 11.9182 15.0784 11.8539 14.9998 11.8539ZM14.9998 6.28249H0.999796C0.921225 6.28249 0.856939 6.34677 0.856939 6.42534V7.5682C0.856939 7.64677 0.921225 7.71106 0.999796 7.71106H14.9998C15.0784 7.71106 15.1427 7.64677 15.1427 7.5682V6.42534C15.1427 6.34677 15.0784 6.28249 14.9998 6.28249Z" fill="black" fill-opacity="0.85"/>
</svg>
