<svg width="16" height="14" viewBox="0 0 16 14" fill="none" xmlns="http://www.w3.org/2000/svg">
<path d="M9.85686 5.75056H1.28543C1.20686 5.75056 1.14258 5.68627 1.14258 5.6077V4.6077C1.14258 4.52913 1.20686 4.46484 1.28543 4.46484H9.85686C9.93543 4.46484 9.99972 4.52913 9.99972 4.6077V5.6077C9.99972 5.68627 9.93543 5.75056 9.85686 5.75056ZM9.99972 9.39341C9.99972 9.47199 9.93543 9.53627 9.85686 9.53627H1.28543C1.20686 9.53627 1.14258 9.47199 1.14258 9.39341V8.39341C1.14258 8.31484 1.20686 8.25056 1.28543 8.25056H9.85686C9.93543 8.25056 9.99972 8.31484 9.99972 8.39341V9.39341ZM0.999719 0.714844H14.9997C15.0783 0.714844 15.1426 0.779129 15.1426 0.857701V1.8577C15.1426 1.93627 15.0783 2.00056 14.9997 2.00056H0.999719C0.921147 2.00056 0.856862 1.93627 0.856862 1.8577V0.857701C0.856862 0.779129 0.921147 0.714844 0.999719 0.714844ZM0.999719 12.0006H14.9997C15.0783 12.0006 15.1426 12.0648 15.1426 12.1434V13.1434C15.1426 13.222 15.0783 13.2863 14.9997 13.2863H0.999719C0.921147 13.2863 0.856862 13.222 0.856862 13.1434V12.1434C0.856862 12.0648 0.921147 12.0006 0.999719 12.0006ZM15.0819 7.12377L12.2908 9.32199C12.1872 9.40413 12.0336 9.33091 12.0336 9.19877V4.80234C12.0336 4.6702 12.1854 4.59699 12.2908 4.67913L15.0819 6.87734C15.1006 6.89193 15.1158 6.91062 15.1263 6.93197C15.1367 6.95333 15.1421 6.97679 15.1421 7.00056C15.1421 7.02433 15.1367 7.04779 15.1263 7.06914C15.1158 7.0905 15.1006 7.10918 15.0819 7.12377Z" fill="black"/>
</svg>
