<svg width="2" height="13" viewBox="0 0 2 13" fill="none" xmlns="http://www.w3.org/2000/svg">
<path d="M0 1.98431C0 2.24953 0.105357 2.50388 0.292893 2.69142C0.480429 2.87896 0.734784 2.98431 1 2.98431C1.26522 2.98431 1.51957 2.87896 1.70711 2.69142C1.89464 2.50388 2 2.24953 2 1.98431C2 1.7191 1.89464 1.46474 1.70711 1.27721C1.51957 1.08967 1.26522 0.984312 1 0.984312C0.734784 0.984312 0.480429 1.08967 0.292893 1.27721C0.105357 1.46474 0 1.7191 0 1.98431ZM0 6.98431C0 7.24953 0.105357 7.50388 0.292893 7.69142C0.480429 7.87896 0.734784 7.98431 1 7.98431C1.26522 7.98431 1.51957 7.87896 1.70711 7.69142C1.89464 7.50388 2 7.24953 2 6.98431C2 6.7191 1.89464 6.46474 1.70711 6.27721C1.51957 6.08967 1.26522 5.98431 1 5.98431C0.734784 5.98431 0.480429 6.08967 0.292893 6.27721C0.105357 6.46474 0 6.7191 0 6.98431ZM0 11.9843C0 12.2495 0.105357 12.5039 0.292893 12.6914C0.480429 12.879 0.734784 12.9843 1 12.9843C1.26522 12.9843 1.51957 12.879 1.70711 12.6914C1.89464 12.5039 2 12.2495 2 11.9843C2 11.7191 1.89464 11.4647 1.70711 11.2772C1.51957 11.0897 1.26522 10.9843 1 10.9843C0.734784 10.9843 0.480429 11.0897 0.292893 11.2772C0.105357 11.4647 0 11.7191 0 11.9843Z" fill="#7797FD"/>
</svg>
