<svg width="2" height="13" viewBox="0 0 2 13" fill="none" xmlns="http://www.w3.org/2000/svg">
<path d="M0 1.98433C0 2.24955 0.105357 2.5039 0.292893 2.69144C0.480429 2.87897 0.734784 2.98433 1 2.98433C1.26522 2.98433 1.51957 2.87897 1.70711 2.69144C1.89464 2.5039 2 2.24955 2 1.98433C2 1.71911 1.89464 1.46476 1.70711 1.27722C1.51957 1.08969 1.26522 0.984329 1 0.984329C0.734784 0.984329 0.480429 1.08969 0.292893 1.27722C0.105357 1.46476 0 1.71911 0 1.98433ZM0 6.98433C0 7.24955 0.105357 7.5039 0.292893 7.69144C0.480429 7.87897 0.734784 7.98433 1 7.98433C1.26522 7.98433 1.51957 7.87897 1.70711 7.69144C1.89464 7.5039 2 7.24955 2 6.98433C2 6.71911 1.89464 6.46476 1.70711 6.27722C1.51957 6.08969 1.26522 5.98433 1 5.98433C0.734784 5.98433 0.480429 6.08969 0.292893 6.27722C0.105357 6.46476 0 6.71911 0 6.98433ZM0 11.9843C0 12.2495 0.105357 12.5039 0.292893 12.6914C0.480429 12.879 0.734784 12.9843 1 12.9843C1.26522 12.9843 1.51957 12.879 1.70711 12.6914C1.89464 12.5039 2 12.2495 2 11.9843C2 11.7191 1.89464 11.4648 1.70711 11.2772C1.51957 11.0897 1.26522 10.9843 1 10.9843C0.734784 10.9843 0.480429 11.0897 0.292893 11.2772C0.105357 11.4648 0 11.7191 0 11.9843Z" fill="black" fill-opacity="0.85"/>
</svg>
