<svg width="16" height="17" viewBox="0 0 16 17" fill="none" xmlns="http://www.w3.org/2000/svg">
<path d="M8 1.5C4.13438 1.5 1 4.63438 1 8.5C1 12.3656 4.13438 15.5 8 15.5C11.8656 15.5 15 12.3656 15 8.5C15 4.63438 11.8656 1.5 8 1.5ZM8 14.3125C4.79063 14.3125 2.1875 11.7094 2.1875 8.5C2.1875 5.29063 4.79063 2.6875 8 2.6875C11.2094 2.6875 13.8125 5.29063 13.8125 8.5C13.8125 11.7094 11.2094 14.3125 8 14.3125Z" fill="#436FFD"/>
<path d="M11.2404 8.29857L6.61388 4.93918C6.57678 4.91198 6.53285 4.89562 6.48699 4.89192C6.44113 4.88822 6.39514 4.89732 6.35415 4.91822C6.31317 4.93912 6.27879 4.97099 6.25485 5.01028C6.23091 5.04957 6.21835 5.09474 6.21857 5.14074V11.8595C6.21857 12.0642 6.44982 12.1798 6.61388 12.0611L11.2404 8.70169C11.2724 8.67868 11.2984 8.6484 11.3163 8.61335C11.3343 8.57831 11.3436 8.5395 11.3436 8.50013C11.3436 8.46076 11.3343 8.42195 11.3163 8.3869C11.2984 8.35186 11.2724 8.32158 11.2404 8.29857ZM7.21544 10.3923V6.60794L9.82013 8.50013L7.21544 10.3923Z" fill="#436FFD"/>
</svg>
