<svg width="14" height="14" viewBox="0 0 14 14" fill="none" xmlns="http://www.w3.org/2000/svg">
<path d="M13.2047 2.27053L12.3234 2.95959C11.1219 1.42365 9.25313 0.437714 7.15469 0.437714C3.53126 0.437714 0.598443 3.3674 0.593756 6.9924C0.589068 10.6205 3.52813 13.5627 7.15469 13.5627C9.98751 13.5627 12.4016 11.7658 13.3203 9.24865C13.3438 9.18303 13.3094 9.10959 13.2438 9.08771L12.3578 8.78303C12.3269 8.77244 12.2931 8.77436 12.2636 8.78837C12.2341 8.80239 12.2113 8.82739 12.2 8.85803C12.1719 8.93615 12.1406 9.01428 12.1078 9.09084C11.8375 9.73146 11.45 10.3065 10.9563 10.8002C10.4665 11.2909 9.88661 11.6824 9.24844 11.9533C8.58751 12.233 7.88282 12.3752 7.15782 12.3752C6.43125 12.3752 5.72813 12.233 5.06719 11.9533C4.4284 11.6836 3.84832 11.2919 3.35938 10.8002C2.86829 10.3105 2.47717 9.72993 2.20782 9.09084C1.92813 8.42834 1.78594 7.72521 1.78594 6.99865C1.78594 6.27209 1.92813 5.56896 2.20782 4.90646C2.47813 4.26584 2.86563 3.69084 3.35938 3.19709C3.85313 2.70334 4.42813 2.31584 5.06719 2.04396C5.72813 1.76428 6.43282 1.62209 7.15782 1.62209C7.88438 1.62209 8.58751 1.76428 9.24844 2.04396C9.88723 2.31372 10.4673 2.7054 10.9563 3.19709C11.1109 3.35178 11.2563 3.51584 11.3906 3.68771L10.45 4.42209C10.4314 4.43649 10.4172 4.45584 10.4091 4.47794C10.401 4.50003 10.3993 4.52396 10.4042 4.54697C10.4091 4.56999 10.4204 4.59115 10.4368 4.60803C10.4532 4.62492 10.474 4.63683 10.4969 4.6424L13.2406 5.31428C13.3188 5.33303 13.3953 5.27365 13.3953 5.19396L13.4078 2.3674C13.4063 2.26428 13.2859 2.20646 13.2047 2.27053Z" fill="#436FFD"/>
</svg>
