<svg width="14" height="14" viewBox="0 0 14 14" fill="none" xmlns="http://www.w3.org/2000/svg">
<path d="M12.75 0.75H1.25C0.973437 0.75 0.75 0.973437 0.75 1.25V12.75C0.75 13.0266 0.973437 13.25 1.25 13.25H12.75C13.0266 13.25 13.25 13.0266 13.25 12.75V1.25C13.25 0.973437 13.0266 0.75 12.75 0.75ZM12.125 12.125H1.875V1.875H12.125V12.125ZM3.7625 7.1875H4.55469C4.6125 7.1875 4.66094 7.14062 4.66094 7.08125V5.84844C4.66094 5.54062 4.90937 5.29219 5.21562 5.29219H8.42969V6.12656C8.42969 6.21563 8.53125 6.26406 8.6 6.20937L10.3047 4.87031C10.3594 4.82812 10.3594 4.74531 10.3047 4.70312L8.6 3.36406C8.53125 3.30937 8.42969 3.35938 8.42969 3.44688V4.28125H5.21406C4.35313 4.28125 3.65625 4.98125 3.65625 5.84531V7.07812C3.65625 7.14062 3.70312 7.1875 3.7625 7.1875ZM3.69688 9.29531L5.40156 10.6344C5.47031 10.6891 5.57188 10.6391 5.57188 10.5516V9.71719H8.78594C9.64687 9.71719 10.3438 9.01719 10.3438 8.15312V6.92031C10.3438 6.8625 10.2969 6.81406 10.2375 6.81406H9.44531C9.3875 6.81406 9.33906 6.86094 9.33906 6.92031V8.15312C9.33906 8.46094 9.09062 8.70938 8.78438 8.70938H5.57188V7.875C5.57188 7.78594 5.47031 7.7375 5.40156 7.79219L3.69688 9.13125C3.64219 9.17031 3.64219 9.25313 3.69688 9.29531Z"/>
</svg>
