<svg xmlns="http://www.w3.org/2000/svg" width="18" height="18" viewBox="0 0 18 18">
<path d="M15.875 9.11717H8.88282V2.12498C8.88282 2.03905 8.81251 1.96873 8.72657 1.96873H8.21876C7.19278 1.96705 6.1766 2.16826 5.22867 2.56077C4.28075 2.95328 3.41979 3.52935 2.69532 4.25584C1.98187 4.9671 1.41339 5.81019 1.0215 6.73827C0.613694 7.70084 0.404435 8.73584 0.406262 9.78123C0.404582 10.8072 0.605785 11.8234 0.998297 12.7713C1.39081 13.7193 1.96688 14.5802 2.69337 15.3047C3.41017 16.0215 4.24611 16.5859 5.17579 16.9785C6.13837 17.3863 7.17337 17.5956 8.21876 17.5937C9.24474 17.5954 10.2609 17.3942 11.2089 17.0017C12.1568 16.6092 13.0177 16.0331 13.7422 15.3066C14.459 14.5898 15.0234 13.7539 15.416 12.8242C15.8238 11.8616 16.0331 10.8266 16.0313 9.78123V9.27342C16.0313 9.18748 15.9609 9.11717 15.875 9.11717ZM12.7832 14.3867C12.1784 14.9868 11.4612 15.4616 10.6726 15.784C9.88395 16.1065 9.03947 16.2701 8.18751 16.2656C6.46681 16.2578 4.84962 15.584 3.63282 14.3672C2.40822 13.1426 1.73439 11.5137 1.73439 9.78123C1.73439 8.04881 2.40822 6.41991 3.63282 5.1953C4.69923 4.12889 6.07228 3.4785 7.5547 3.33006V10.4453H14.6699C14.5195 11.9355 13.8633 13.3164 12.7832 14.3867ZM17.5938 8.03123L17.543 7.48045C17.377 5.68162 16.5781 3.98436 15.293 2.70311C14.0069 1.41951 12.3131 0.625111 10.5039 0.457014L9.95118 0.406233C9.85939 0.39842 9.78126 0.468733 9.78126 0.56053V8.06248C9.78126 8.14842 9.85157 8.21873 9.93751 8.21873L17.4375 8.1992C17.5293 8.1992 17.6016 8.12108 17.5938 8.03123ZM11.1055 6.89452V1.8828C12.3358 2.14031 13.4649 2.74963 14.3555 3.6367C15.2481 4.52733 15.8594 5.66014 16.1133 6.88084L11.1055 6.89452Z"/>
</svg>