<svg width="16" height="14" viewBox="0 0 16 14" xmlns="http://www.w3.org/2000/svg">
<path d="M15.4286 1.85389H12.5714V0.853886C12.5714 0.775315 12.5071 0.711029 12.4286 0.711029H11.4286C11.35 0.711029 11.2857 0.775315 11.2857 0.853886V1.85389H8.64286V0.853886C8.64286 0.775315 8.57857 0.711029 8.5 0.711029H7.5C7.42143 0.711029 7.35714 0.775315 7.35714 0.853886V1.85389H4.71429V0.853886C4.71429 0.775315 4.65 0.711029 4.57143 0.711029H3.57143C3.49286 0.711029 3.42857 0.775315 3.42857 0.853886V1.85389H0.571429C0.255357 1.85389 0 2.10924 0 2.42531V12.711C0 13.0271 0.255357 13.2825 0.571429 13.2825H15.4286C15.7446 13.2825 16 13.0271 16 12.711V2.42531C16 2.10924 15.7446 1.85389 15.4286 1.85389ZM14.7143 11.9967H1.28571V3.1396H3.42857V4.1396C3.42857 4.21817 3.49286 4.28246 3.57143 4.28246H4.57143C4.65 4.28246 4.71429 4.21817 4.71429 4.1396V3.1396H7.35714V4.1396C7.35714 4.21817 7.42143 4.28246 7.5 4.28246H8.5C8.57857 4.28246 8.64286 4.21817 8.64286 4.1396V3.1396H11.2857V4.1396C11.2857 4.21817 11.35 4.28246 11.4286 4.28246H12.4286C12.5071 4.28246 12.5714 4.21817 12.5714 4.1396V3.1396H14.7143V11.9967ZM6.28571 6.71103H3C2.92143 6.71103 2.85714 6.77531 2.85714 6.85389V7.71103C2.85714 7.7896 2.92143 7.85389 3 7.85389H6.28571C6.36429 7.85389 6.42857 7.7896 6.42857 7.71103V6.85389C6.42857 6.77531 6.36429 6.71103 6.28571 6.71103ZM6.28571 9.1396H3C2.92143 9.1396 2.85714 9.20389 2.85714 9.28246V10.1396C2.85714 10.2182 2.92143 10.2825 3 10.2825H6.28571C6.36429 10.2825 6.42857 10.2182 6.42857 10.1396V9.28246C6.42857 9.20389 6.36429 9.1396 6.28571 9.1396ZM11.7893 5.97174L9.93929 8.53782L8.99643 7.23246C8.94286 7.15746 8.85714 7.1146 8.76607 7.1146H7.78571C7.66964 7.1146 7.60179 7.24674 7.66964 7.34139L9.70714 10.1664C9.73345 10.2029 9.76805 10.2326 9.8081 10.2531C9.84815 10.2736 9.8925 10.2843 9.9375 10.2843C9.9825 10.2843 10.0268 10.2736 10.0669 10.2531C10.1069 10.2326 10.1416 10.2029 10.1679 10.1664L13.1143 6.08246C13.1821 5.98781 13.1143 5.85567 12.9982 5.85567H12.0179C11.9286 5.85389 11.8429 5.89853 11.7893 5.97174Z" />
</svg>
