<svg width="14" height="16" viewBox="0 0 14 16" xmlns="http://www.w3.org/2000/svg">
<path d="M10.1433 3.5682C10.1433 3.48963 10.079 3.42535 10.0004 3.42535H3.14328C3.0647 3.42535 3.00042 3.48963 3.00042 3.5682V4.42535C3.00042 4.50392 3.0647 4.5682 3.14328 4.5682H10.0004C10.079 4.5682 10.1433 4.50392 10.1433 4.42535V3.5682ZM10.0004 5.99677H3.14328C3.0647 5.99677 3.00042 6.06106 3.00042 6.13963V6.99677C3.00042 7.07535 3.0647 7.13963 3.14328 7.13963H10.0004C10.079 7.13963 10.1433 7.07535 10.1433 6.99677V6.13963C10.1433 6.06106 10.079 5.99677 10.0004 5.99677ZM6.42899 8.5682H3.14328C3.0647 8.5682 3.00042 8.63249 3.00042 8.71106V9.5682C3.00042 9.64677 3.0647 9.71106 3.14328 9.71106H6.42899C6.50756 9.71106 6.57185 9.64677 6.57185 9.5682V8.71106C6.57185 8.63249 6.50756 8.5682 6.42899 8.5682ZM5.57185 14.0682H1.57185V1.49677H11.5718V7.63963C11.5718 7.7182 11.6361 7.78249 11.7147 7.78249H12.7147C12.7933 7.78249 12.8576 7.7182 12.8576 7.63963V0.782488C12.8576 0.466417 12.6022 0.21106 12.2861 0.21106H0.857561C0.54149 0.21106 0.286133 0.466417 0.286133 0.782488V14.7825C0.286133 15.0986 0.54149 15.3539 0.857561 15.3539H5.57185C5.65042 15.3539 5.7147 15.2896 5.7147 15.2111V14.2111C5.7147 14.1325 5.65042 14.0682 5.57185 14.0682ZM11.9433 12.7396C12.4611 12.27 12.7861 11.5914 12.7861 10.8361C12.7861 9.41642 11.6343 8.26463 10.2147 8.26463C8.79506 8.26463 7.64328 9.41642 7.64328 10.8361C7.64328 11.5914 7.96828 12.27 8.48613 12.7396C7.46828 13.32 6.76828 14.395 6.7147 15.6343C6.71113 15.7146 6.7772 15.7825 6.85756 15.7825H7.71649C7.79149 15.7825 7.85399 15.7236 7.85935 15.6468C7.92899 14.4111 8.95935 13.4253 10.2147 13.4253C11.4701 13.4253 12.5004 14.4111 12.5701 15.6468C12.5736 15.7218 12.6361 15.7825 12.7129 15.7825H13.5718C13.654 15.7825 13.7183 15.7146 13.7147 15.6343C13.6629 14.3932 12.9611 13.32 11.9433 12.7396ZM10.2147 9.40749C11.004 9.40749 11.6433 10.0468 11.6433 10.8361C11.6433 11.6253 11.004 12.2646 10.2147 12.2646C9.42542 12.2646 8.78613 11.6253 8.78613 10.8361C8.78613 10.0468 9.42542 9.40749 10.2147 9.40749Z"/>
</svg>
