<svg width="12" height="12" viewBox="0 0 12 12" fill="none" xmlns="http://www.w3.org/2000/svg">
<path d="M6.99985 0.752029L6.99985 11.6255C6.99985 11.6942 7.0561 11.7505 7.12485 11.7505H8.06235C8.1311 11.7505 8.18735 11.6942 8.18735 11.6255V2.16922L11.0467 4.42391C11.128 4.48797 11.2498 4.43016 11.2498 4.32547V3.19266C11.2498 3.11609 11.2155 3.04422 11.1545 2.99578L7.80922 0.35828C7.4811 0.100468 6.99985 0.33328 6.99985 0.752029ZM3.31235 0.375467L3.31235 9.83172L0.452972 7.57703C0.371722 7.51297 0.249847 7.57078 0.249847 7.67547L0.249847 8.80828C0.249847 8.88484 0.284223 8.95672 0.34516 9.00516L3.69047 11.6427C4.0186 11.9005 4.49985 11.6677 4.49985 11.2505L4.49985 0.375467C4.49985 0.306718 4.4436 0.250467 4.37485 0.250467H3.43735C3.3686 0.250467 3.31235 0.306718 3.31235 0.375467Z" fill="black" fill-opacity="0.85"/>
</svg>
